<?xml version="1.0" encoding="utf-8" standalone="no"?>
<!DOCTYPE svg PUBLIC "-//W3C//DTD SVG 1.1//EN"
  "http://www.w3.org/Graphics/SVG/1.1/DTD/svg11.dtd">
<svg xmlns:xlink="http://www.w3.org/1999/xlink" width="640.666964pt" height="496.555469pt" viewBox="0 0 640.666964 496.555469" xmlns="http://www.w3.org/2000/svg" version="1.1">
 <metadata>
  <rdf:RDF xmlns:dc="http://purl.org/dc/elements/1.1/" xmlns:cc="http://creativecommons.org/ns#" xmlns:rdf="http://www.w3.org/1999/02/22-rdf-syntax-ns#">
   <cc:Work>
    <dc:type rdf:resource="http://purl.org/dc/dcmitype/StillImage"/>
    <dc:date>2025-10-22T18:15:56.204437</dc:date>
    <dc:format>image/svg+xml</dc:format>
    <dc:creator>
     <cc:Agent>
      <dc:title>Matplotlib v3.10.6, https://matplotlib.org/</dc:title>
     </cc:Agent>
    </dc:creator>
   </cc:Work>
  </rdf:RDF>
 </metadata>
 <defs>
  <style type="text/css">*{stroke-linejoin: round; stroke-linecap: butt}</style>
 </defs>
 <g id="figure_1">
  <g id="patch_1">
   <path d="M 0 496.555469 
L 640.666964 496.555469 
L 640.666964 0 
L 0 0 
z
" style="fill: #ffffff"/>
  </g>
  <g id="axes_1">
   <g id="patch_2">
    <path d="M 43.78125 458.999219 
L 633.466964 458.999219 
L 633.466964 10.999219 
L 43.78125 10.999219 
z
" style="fill: #ffffff"/>
   </g>
   <g id="matplotlib.axis_1">
    <g id="xtick_1">
     <g id="line2d_1">
      <defs>
       <path id="md9b4ed6d21" d="M 0 0 
L 0 3.5 
" style="stroke: #000000; stroke-width: 0.8"/>
      </defs>
      <g>
       <use xlink:href="#md9b4ed6d21" x="70.585146" y="458.999219" style="stroke: #000000; stroke-width: 0.8"/>
      </g>
     </g>
     <g id="text_1">
      <!-- 0 -->
      <g transform="translate(67.403896 473.597656) scale(0.1 -0.1)">
       <defs>
        <path id="DejaVuSans-30" d="M 2034 4250 
Q 1547 4250 1301 3770 
Q 1056 3291 1056 2328 
Q 1056 1369 1301 889 
Q 1547 409 2034 409 
Q 2525 409 2770 889 
Q 3016 1369 3016 2328 
Q 3016 3291 2770 3770 
Q 2525 4250 2034 4250 
z
M 2034 4750 
Q 2819 4750 3233 4129 
Q 3647 3509 3647 2328 
Q 3647 1150 3233 529 
Q 2819 -91 2034 -91 
Q 1250 -91 836 529 
Q 422 1150 422 2328 
Q 422 3509 836 4129 
Q 1250 4750 2034 4750 
z
" transform="scale(0.015625)"/>
       </defs>
       <use xlink:href="#DejaVuSans-30"/>
      </g>
     </g>
    </g>
    <g id="xtick_2">
     <g id="line2d_2">
      <g>
       <use xlink:href="#md9b4ed6d21" x="170.786627" y="458.999219" style="stroke: #000000; stroke-width: 0.8"/>
      </g>
     </g>
     <g id="text_2">
      <!-- 20 -->
      <g transform="translate(164.424127 473.597656) scale(0.1 -0.1)">
       <defs>
        <path id="DejaVuSans-32" d="M 1228 531 
L 3431 531 
L 3431 0 
L 469 0 
L 469 531 
Q 828 903 1448 1529 
Q 2069 2156 2228 2338 
Q 2531 2678 2651 2914 
Q 2772 3150 2772 3378 
Q 2772 3750 2511 3984 
Q 2250 4219 1831 4219 
Q 1534 4219 1204 4116 
Q 875 4013 500 3803 
L 500 4441 
Q 881 4594 1212 4672 
Q 1544 4750 1819 4750 
Q 2544 4750 2975 4387 
Q 3406 4025 3406 3419 
Q 3406 3131 3298 2873 
Q 3191 2616 2906 2266 
Q 2828 2175 2409 1742 
Q 1991 1309 1228 531 
z
" transform="scale(0.015625)"/>
       </defs>
       <use xlink:href="#DejaVuSans-32"/>
       <use xlink:href="#DejaVuSans-30" transform="translate(63.623047 0)"/>
      </g>
     </g>
    </g>
    <g id="xtick_3">
     <g id="line2d_3">
      <g>
       <use xlink:href="#md9b4ed6d21" x="270.988108" y="458.999219" style="stroke: #000000; stroke-width: 0.8"/>
      </g>
     </g>
     <g id="text_3">
      <!-- 40 -->
      <g transform="translate(264.625608 473.597656) scale(0.1 -0.1)">
       <defs>
        <path id="DejaVuSans-34" d="M 2419 4116 
L 825 1625 
L 2419 1625 
L 2419 4116 
z
M 2253 4666 
L 3047 4666 
L 3047 1625 
L 3713 1625 
L 3713 1100 
L 3047 1100 
L 3047 0 
L 2419 0 
L 2419 1100 
L 313 1100 
L 313 1709 
L 2253 4666 
z
" transform="scale(0.015625)"/>
       </defs>
       <use xlink:href="#DejaVuSans-34"/>
       <use xlink:href="#DejaVuSans-30" transform="translate(63.623047 0)"/>
      </g>
     </g>
    </g>
    <g id="xtick_4">
     <g id="line2d_4">
      <g>
       <use xlink:href="#md9b4ed6d21" x="371.189588" y="458.999219" style="stroke: #000000; stroke-width: 0.8"/>
      </g>
     </g>
     <g id="text_4">
      <!-- 60 -->
      <g transform="translate(364.827088 473.597656) scale(0.1 -0.1)">
       <defs>
        <path id="DejaVuSans-36" d="M 2113 2584 
Q 1688 2584 1439 2293 
Q 1191 2003 1191 1497 
Q 1191 994 1439 701 
Q 1688 409 2113 409 
Q 2538 409 2786 701 
Q 3034 994 3034 1497 
Q 3034 2003 2786 2293 
Q 2538 2584 2113 2584 
z
M 3366 4563 
L 3366 3988 
Q 3128 4100 2886 4159 
Q 2644 4219 2406 4219 
Q 1781 4219 1451 3797 
Q 1122 3375 1075 2522 
Q 1259 2794 1537 2939 
Q 1816 3084 2150 3084 
Q 2853 3084 3261 2657 
Q 3669 2231 3669 1497 
Q 3669 778 3244 343 
Q 2819 -91 2113 -91 
Q 1303 -91 875 529 
Q 447 1150 447 2328 
Q 447 3434 972 4092 
Q 1497 4750 2381 4750 
Q 2619 4750 2861 4703 
Q 3103 4656 3366 4563 
z
" transform="scale(0.015625)"/>
       </defs>
       <use xlink:href="#DejaVuSans-36"/>
       <use xlink:href="#DejaVuSans-30" transform="translate(63.623047 0)"/>
      </g>
     </g>
    </g>
    <g id="xtick_5">
     <g id="line2d_5">
      <g>
       <use xlink:href="#md9b4ed6d21" x="471.391069" y="458.999219" style="stroke: #000000; stroke-width: 0.8"/>
      </g>
     </g>
     <g id="text_5">
      <!-- 80 -->
      <g transform="translate(465.028569 473.597656) scale(0.1 -0.1)">
       <defs>
        <path id="DejaVuSans-38" d="M 2034 2216 
Q 1584 2216 1326 1975 
Q 1069 1734 1069 1313 
Q 1069 891 1326 650 
Q 1584 409 2034 409 
Q 2484 409 2743 651 
Q 3003 894 3003 1313 
Q 3003 1734 2745 1975 
Q 2488 2216 2034 2216 
z
M 1403 2484 
Q 997 2584 770 2862 
Q 544 3141 544 3541 
Q 544 4100 942 4425 
Q 1341 4750 2034 4750 
Q 2731 4750 3128 4425 
Q 3525 4100 3525 3541 
Q 3525 3141 3298 2862 
Q 3072 2584 2669 2484 
Q 3125 2378 3379 2068 
Q 3634 1759 3634 1313 
Q 3634 634 3220 271 
Q 2806 -91 2034 -91 
Q 1263 -91 848 271 
Q 434 634 434 1313 
Q 434 1759 690 2068 
Q 947 2378 1403 2484 
z
M 1172 3481 
Q 1172 3119 1398 2916 
Q 1625 2713 2034 2713 
Q 2441 2713 2670 2916 
Q 2900 3119 2900 3481 
Q 2900 3844 2670 4047 
Q 2441 4250 2034 4250 
Q 1625 4250 1398 4047 
Q 1172 3844 1172 3481 
z
" transform="scale(0.015625)"/>
       </defs>
       <use xlink:href="#DejaVuSans-38"/>
       <use xlink:href="#DejaVuSans-30" transform="translate(63.623047 0)"/>
      </g>
     </g>
    </g>
    <g id="xtick_6">
     <g id="line2d_6">
      <g>
       <use xlink:href="#md9b4ed6d21" x="571.59255" y="458.999219" style="stroke: #000000; stroke-width: 0.8"/>
      </g>
     </g>
     <g id="text_6">
      <!-- 100 -->
      <g transform="translate(562.0488 473.597656) scale(0.1 -0.1)">
       <defs>
        <path id="DejaVuSans-31" d="M 794 531 
L 1825 531 
L 1825 4091 
L 703 3866 
L 703 4441 
L 1819 4666 
L 2450 4666 
L 2450 531 
L 3481 531 
L 3481 0 
L 794 0 
L 794 531 
z
" transform="scale(0.015625)"/>
       </defs>
       <use xlink:href="#DejaVuSans-31"/>
       <use xlink:href="#DejaVuSans-30" transform="translate(63.623047 0)"/>
       <use xlink:href="#DejaVuSans-30" transform="translate(127.246094 0)"/>
      </g>
     </g>
    </g>
    <g id="text_7">
     <!-- Time (months) -->
     <g transform="translate(302.067857 487.275781) scale(0.1 -0.1)">
      <defs>
       <path id="DejaVuSans-54" d="M -19 4666 
L 3928 4666 
L 3928 4134 
L 2272 4134 
L 2272 0 
L 1638 0 
L 1638 4134 
L -19 4134 
L -19 4666 
z
" transform="scale(0.015625)"/>
       <path id="DejaVuSans-69" d="M 603 3500 
L 1178 3500 
L 1178 0 
L 603 0 
L 603 3500 
z
M 603 4863 
L 1178 4863 
L 1178 4134 
L 603 4134 
L 603 4863 
z
" transform="scale(0.015625)"/>
       <path id="DejaVuSans-6d" d="M 3328 2828 
Q 3544 3216 3844 3400 
Q 4144 3584 4550 3584 
Q 5097 3584 5394 3201 
Q 5691 2819 5691 2113 
L 5691 0 
L 5113 0 
L 5113 2094 
Q 5113 2597 4934 2840 
Q 4756 3084 4391 3084 
Q 3944 3084 3684 2787 
Q 3425 2491 3425 1978 
L 3425 0 
L 2847 0 
L 2847 2094 
Q 2847 2600 2669 2842 
Q 2491 3084 2119 3084 
Q 1678 3084 1418 2786 
Q 1159 2488 1159 1978 
L 1159 0 
L 581 0 
L 581 3500 
L 1159 3500 
L 1159 2956 
Q 1356 3278 1631 3431 
Q 1906 3584 2284 3584 
Q 2666 3584 2933 3390 
Q 3200 3197 3328 2828 
z
" transform="scale(0.015625)"/>
       <path id="DejaVuSans-65" d="M 3597 1894 
L 3597 1613 
L 953 1613 
Q 991 1019 1311 708 
Q 1631 397 2203 397 
Q 2534 397 2845 478 
Q 3156 559 3463 722 
L 3463 178 
Q 3153 47 2828 -22 
Q 2503 -91 2169 -91 
Q 1331 -91 842 396 
Q 353 884 353 1716 
Q 353 2575 817 3079 
Q 1281 3584 2069 3584 
Q 2775 3584 3186 3129 
Q 3597 2675 3597 1894 
z
M 3022 2063 
Q 3016 2534 2758 2815 
Q 2500 3097 2075 3097 
Q 1594 3097 1305 2825 
Q 1016 2553 972 2059 
L 3022 2063 
z
" transform="scale(0.015625)"/>
       <path id="DejaVuSans-20" transform="scale(0.015625)"/>
       <path id="DejaVuSans-28" d="M 1984 4856 
Q 1566 4138 1362 3434 
Q 1159 2731 1159 2009 
Q 1159 1288 1364 580 
Q 1569 -128 1984 -844 
L 1484 -844 
Q 1016 -109 783 600 
Q 550 1309 550 2009 
Q 550 2706 781 3412 
Q 1013 4119 1484 4856 
L 1984 4856 
z
" transform="scale(0.015625)"/>
       <path id="DejaVuSans-6f" d="M 1959 3097 
Q 1497 3097 1228 2736 
Q 959 2375 959 1747 
Q 959 1119 1226 758 
Q 1494 397 1959 397 
Q 2419 397 2687 759 
Q 2956 1122 2956 1747 
Q 2956 2369 2687 2733 
Q 2419 3097 1959 3097 
z
M 1959 3584 
Q 2709 3584 3137 3096 
Q 3566 2609 3566 1747 
Q 3566 888 3137 398 
Q 2709 -91 1959 -91 
Q 1206 -91 779 398 
Q 353 888 353 1747 
Q 353 2609 779 3096 
Q 1206 3584 1959 3584 
z
" transform="scale(0.015625)"/>
       <path id="DejaVuSans-6e" d="M 3513 2113 
L 3513 0 
L 2938 0 
L 2938 2094 
Q 2938 2591 2744 2837 
Q 2550 3084 2163 3084 
Q 1697 3084 1428 2787 
Q 1159 2491 1159 1978 
L 1159 0 
L 581 0 
L 581 3500 
L 1159 3500 
L 1159 2956 
Q 1366 3272 1645 3428 
Q 1925 3584 2291 3584 
Q 2894 3584 3203 3211 
Q 3513 2838 3513 2113 
z
" transform="scale(0.015625)"/>
       <path id="DejaVuSans-74" d="M 1172 4494 
L 1172 3500 
L 2356 3500 
L 2356 3053 
L 1172 3053 
L 1172 1153 
Q 1172 725 1289 603 
Q 1406 481 1766 481 
L 2356 481 
L 2356 0 
L 1766 0 
Q 1100 0 847 248 
Q 594 497 594 1153 
L 594 3053 
L 172 3053 
L 172 3500 
L 594 3500 
L 594 4494 
L 1172 4494 
z
" transform="scale(0.015625)"/>
       <path id="DejaVuSans-68" d="M 3513 2113 
L 3513 0 
L 2938 0 
L 2938 2094 
Q 2938 2591 2744 2837 
Q 2550 3084 2163 3084 
Q 1697 3084 1428 2787 
Q 1159 2491 1159 1978 
L 1159 0 
L 581 0 
L 581 4863 
L 1159 4863 
L 1159 2956 
Q 1366 3272 1645 3428 
Q 1925 3584 2291 3584 
Q 2894 3584 3203 3211 
Q 3513 2838 3513 2113 
z
" transform="scale(0.015625)"/>
       <path id="DejaVuSans-73" d="M 2834 3397 
L 2834 2853 
Q 2591 2978 2328 3040 
Q 2066 3103 1784 3103 
Q 1356 3103 1142 2972 
Q 928 2841 928 2578 
Q 928 2378 1081 2264 
Q 1234 2150 1697 2047 
L 1894 2003 
Q 2506 1872 2764 1633 
Q 3022 1394 3022 966 
Q 3022 478 2636 193 
Q 2250 -91 1575 -91 
Q 1294 -91 989 -36 
Q 684 19 347 128 
L 347 722 
Q 666 556 975 473 
Q 1284 391 1588 391 
Q 1994 391 2212 530 
Q 2431 669 2431 922 
Q 2431 1156 2273 1281 
Q 2116 1406 1581 1522 
L 1381 1569 
Q 847 1681 609 1914 
Q 372 2147 372 2553 
Q 372 3047 722 3315 
Q 1072 3584 1716 3584 
Q 2034 3584 2315 3537 
Q 2597 3491 2834 3397 
z
" transform="scale(0.015625)"/>
       <path id="DejaVuSans-29" d="M 513 4856 
L 1013 4856 
Q 1481 4119 1714 3412 
Q 1947 2706 1947 2009 
Q 1947 1309 1714 600 
Q 1481 -109 1013 -844 
L 513 -844 
Q 928 -128 1133 580 
Q 1338 1288 1338 2009 
Q 1338 2731 1133 3434 
Q 928 4138 513 4856 
z
" transform="scale(0.015625)"/>
      </defs>
      <use xlink:href="#DejaVuSans-54"/>
      <use xlink:href="#DejaVuSans-69" transform="translate(57.958984 0)"/>
      <use xlink:href="#DejaVuSans-6d" transform="translate(85.742188 0)"/>
      <use xlink:href="#DejaVuSans-65" transform="translate(183.154297 0)"/>
      <use xlink:href="#DejaVuSans-20" transform="translate(244.677734 0)"/>
      <use xlink:href="#DejaVuSans-28" transform="translate(276.464844 0)"/>
      <use xlink:href="#DejaVuSans-6d" transform="translate(315.478516 0)"/>
      <use xlink:href="#DejaVuSans-6f" transform="translate(412.890625 0)"/>
      <use xlink:href="#DejaVuSans-6e" transform="translate(474.072266 0)"/>
      <use xlink:href="#DejaVuSans-74" transform="translate(537.451172 0)"/>
      <use xlink:href="#DejaVuSans-68" transform="translate(576.660156 0)"/>
      <use xlink:href="#DejaVuSans-73" transform="translate(640.039062 0)"/>
      <use xlink:href="#DejaVuSans-29" transform="translate(692.138672 0)"/>
     </g>
    </g>
   </g>
   <g id="matplotlib.axis_2">
    <g id="ytick_1">
     <g id="line2d_7">
      <defs>
       <path id="m605d06f0ea" d="M 0 0 
L -3.5 0 
" style="stroke: #000000; stroke-width: 0.8"/>
      </defs>
      <g>
       <use xlink:href="#m605d06f0ea" x="43.78125" y="458.999219" style="stroke: #000000; stroke-width: 0.8"/>
      </g>
     </g>
     <g id="text_8">
      <!-- 0.2 -->
      <g transform="translate(20.878125 462.798437) scale(0.1 -0.1)">
       <defs>
        <path id="DejaVuSans-2e" d="M 684 794 
L 1344 794 
L 1344 0 
L 684 0 
L 684 794 
z
" transform="scale(0.015625)"/>
       </defs>
       <use xlink:href="#DejaVuSans-30"/>
       <use xlink:href="#DejaVuSans-2e" transform="translate(63.623047 0)"/>
       <use xlink:href="#DejaVuSans-32" transform="translate(95.410156 0)"/>
      </g>
     </g>
    </g>
    <g id="ytick_2">
     <g id="line2d_8">
      <g>
       <use xlink:href="#m605d06f0ea" x="43.78125" y="402.999219" style="stroke: #000000; stroke-width: 0.8"/>
      </g>
     </g>
     <g id="text_9">
      <!-- 0.3 -->
      <g transform="translate(20.878125 406.798437) scale(0.1 -0.1)">
       <defs>
        <path id="DejaVuSans-33" d="M 2597 2516 
Q 3050 2419 3304 2112 
Q 3559 1806 3559 1356 
Q 3559 666 3084 287 
Q 2609 -91 1734 -91 
Q 1441 -91 1130 -33 
Q 819 25 488 141 
L 488 750 
Q 750 597 1062 519 
Q 1375 441 1716 441 
Q 2309 441 2620 675 
Q 2931 909 2931 1356 
Q 2931 1769 2642 2001 
Q 2353 2234 1838 2234 
L 1294 2234 
L 1294 2753 
L 1863 2753 
Q 2328 2753 2575 2939 
Q 2822 3125 2822 3475 
Q 2822 3834 2567 4026 
Q 2313 4219 1838 4219 
Q 1578 4219 1281 4162 
Q 984 4106 628 3988 
L 628 4550 
Q 988 4650 1302 4700 
Q 1616 4750 1894 4750 
Q 2613 4750 3031 4423 
Q 3450 4097 3450 3541 
Q 3450 3153 3228 2886 
Q 3006 2619 2597 2516 
z
" transform="scale(0.015625)"/>
       </defs>
       <use xlink:href="#DejaVuSans-30"/>
       <use xlink:href="#DejaVuSans-2e" transform="translate(63.623047 0)"/>
       <use xlink:href="#DejaVuSans-33" transform="translate(95.410156 0)"/>
      </g>
     </g>
    </g>
    <g id="ytick_3">
     <g id="line2d_9">
      <g>
       <use xlink:href="#m605d06f0ea" x="43.78125" y="346.999219" style="stroke: #000000; stroke-width: 0.8"/>
      </g>
     </g>
     <g id="text_10">
      <!-- 0.4 -->
      <g transform="translate(20.878125 350.798437) scale(0.1 -0.1)">
       <use xlink:href="#DejaVuSans-30"/>
       <use xlink:href="#DejaVuSans-2e" transform="translate(63.623047 0)"/>
       <use xlink:href="#DejaVuSans-34" transform="translate(95.410156 0)"/>
      </g>
     </g>
    </g>
    <g id="ytick_4">
     <g id="line2d_10">
      <g>
       <use xlink:href="#m605d06f0ea" x="43.78125" y="290.999219" style="stroke: #000000; stroke-width: 0.8"/>
      </g>
     </g>
     <g id="text_11">
      <!-- 0.5 -->
      <g transform="translate(20.878125 294.798437) scale(0.1 -0.1)">
       <defs>
        <path id="DejaVuSans-35" d="M 691 4666 
L 3169 4666 
L 3169 4134 
L 1269 4134 
L 1269 2991 
Q 1406 3038 1543 3061 
Q 1681 3084 1819 3084 
Q 2600 3084 3056 2656 
Q 3513 2228 3513 1497 
Q 3513 744 3044 326 
Q 2575 -91 1722 -91 
Q 1428 -91 1123 -41 
Q 819 9 494 109 
L 494 744 
Q 775 591 1075 516 
Q 1375 441 1709 441 
Q 2250 441 2565 725 
Q 2881 1009 2881 1497 
Q 2881 1984 2565 2268 
Q 2250 2553 1709 2553 
Q 1456 2553 1204 2497 
Q 953 2441 691 2322 
L 691 4666 
z
" transform="scale(0.015625)"/>
       </defs>
       <use xlink:href="#DejaVuSans-30"/>
       <use xlink:href="#DejaVuSans-2e" transform="translate(63.623047 0)"/>
       <use xlink:href="#DejaVuSans-35" transform="translate(95.410156 0)"/>
      </g>
     </g>
    </g>
    <g id="ytick_5">
     <g id="line2d_11">
      <g>
       <use xlink:href="#m605d06f0ea" x="43.78125" y="234.999219" style="stroke: #000000; stroke-width: 0.8"/>
      </g>
     </g>
     <g id="text_12">
      <!-- 0.6 -->
      <g transform="translate(20.878125 238.798437) scale(0.1 -0.1)">
       <use xlink:href="#DejaVuSans-30"/>
       <use xlink:href="#DejaVuSans-2e" transform="translate(63.623047 0)"/>
       <use xlink:href="#DejaVuSans-36" transform="translate(95.410156 0)"/>
      </g>
     </g>
    </g>
    <g id="ytick_6">
     <g id="line2d_12">
      <g>
       <use xlink:href="#m605d06f0ea" x="43.78125" y="178.999219" style="stroke: #000000; stroke-width: 0.8"/>
      </g>
     </g>
     <g id="text_13">
      <!-- 0.7 -->
      <g transform="translate(20.878125 182.798437) scale(0.1 -0.1)">
       <defs>
        <path id="DejaVuSans-37" d="M 525 4666 
L 3525 4666 
L 3525 4397 
L 1831 0 
L 1172 0 
L 2766 4134 
L 525 4134 
L 525 4666 
z
" transform="scale(0.015625)"/>
       </defs>
       <use xlink:href="#DejaVuSans-30"/>
       <use xlink:href="#DejaVuSans-2e" transform="translate(63.623047 0)"/>
       <use xlink:href="#DejaVuSans-37" transform="translate(95.410156 0)"/>
      </g>
     </g>
    </g>
    <g id="ytick_7">
     <g id="line2d_13">
      <g>
       <use xlink:href="#m605d06f0ea" x="43.78125" y="122.999219" style="stroke: #000000; stroke-width: 0.8"/>
      </g>
     </g>
     <g id="text_14">
      <!-- 0.8 -->
      <g transform="translate(20.878125 126.798437) scale(0.1 -0.1)">
       <use xlink:href="#DejaVuSans-30"/>
       <use xlink:href="#DejaVuSans-2e" transform="translate(63.623047 0)"/>
       <use xlink:href="#DejaVuSans-38" transform="translate(95.410156 0)"/>
      </g>
     </g>
    </g>
    <g id="ytick_8">
     <g id="line2d_14">
      <g>
       <use xlink:href="#m605d06f0ea" x="43.78125" y="66.999219" style="stroke: #000000; stroke-width: 0.8"/>
      </g>
     </g>
     <g id="text_15">
      <!-- 0.9 -->
      <g transform="translate(20.878125 70.798437) scale(0.1 -0.1)">
       <defs>
        <path id="DejaVuSans-39" d="M 703 97 
L 703 672 
Q 941 559 1184 500 
Q 1428 441 1663 441 
Q 2288 441 2617 861 
Q 2947 1281 2994 2138 
Q 2813 1869 2534 1725 
Q 2256 1581 1919 1581 
Q 1219 1581 811 2004 
Q 403 2428 403 3163 
Q 403 3881 828 4315 
Q 1253 4750 1959 4750 
Q 2769 4750 3195 4129 
Q 3622 3509 3622 2328 
Q 3622 1225 3098 567 
Q 2575 -91 1691 -91 
Q 1453 -91 1209 -44 
Q 966 3 703 97 
z
M 1959 2075 
Q 2384 2075 2632 2365 
Q 2881 2656 2881 3163 
Q 2881 3666 2632 3958 
Q 2384 4250 1959 4250 
Q 1534 4250 1286 3958 
Q 1038 3666 1038 3163 
Q 1038 2656 1286 2365 
Q 1534 2075 1959 2075 
z
" transform="scale(0.015625)"/>
       </defs>
       <use xlink:href="#DejaVuSans-30"/>
       <use xlink:href="#DejaVuSans-2e" transform="translate(63.623047 0)"/>
       <use xlink:href="#DejaVuSans-39" transform="translate(95.410156 0)"/>
      </g>
     </g>
    </g>
    <g id="ytick_9">
     <g id="line2d_15">
      <g>
       <use xlink:href="#m605d06f0ea" x="43.78125" y="10.999219" style="stroke: #000000; stroke-width: 0.8"/>
      </g>
     </g>
     <g id="text_16">
      <!-- 1.0 -->
      <g transform="translate(20.878125 14.798437) scale(0.1 -0.1)">
       <use xlink:href="#DejaVuSans-31"/>
       <use xlink:href="#DejaVuSans-2e" transform="translate(63.623047 0)"/>
       <use xlink:href="#DejaVuSans-30" transform="translate(95.410156 0)"/>
      </g>
     </g>
    </g>
    <g id="text_17">
     <!-- Survival probability -->
     <g transform="translate(14.798438 283.423437) rotate(-90) scale(0.1 -0.1)">
      <defs>
       <path id="DejaVuSans-53" d="M 3425 4513 
L 3425 3897 
Q 3066 4069 2747 4153 
Q 2428 4238 2131 4238 
Q 1616 4238 1336 4038 
Q 1056 3838 1056 3469 
Q 1056 3159 1242 3001 
Q 1428 2844 1947 2747 
L 2328 2669 
Q 3034 2534 3370 2195 
Q 3706 1856 3706 1288 
Q 3706 609 3251 259 
Q 2797 -91 1919 -91 
Q 1588 -91 1214 -16 
Q 841 59 441 206 
L 441 856 
Q 825 641 1194 531 
Q 1563 422 1919 422 
Q 2459 422 2753 634 
Q 3047 847 3047 1241 
Q 3047 1584 2836 1778 
Q 2625 1972 2144 2069 
L 1759 2144 
Q 1053 2284 737 2584 
Q 422 2884 422 3419 
Q 422 4038 858 4394 
Q 1294 4750 2059 4750 
Q 2388 4750 2728 4690 
Q 3069 4631 3425 4513 
z
" transform="scale(0.015625)"/>
       <path id="DejaVuSans-75" d="M 544 1381 
L 544 3500 
L 1119 3500 
L 1119 1403 
Q 1119 906 1312 657 
Q 1506 409 1894 409 
Q 2359 409 2629 706 
Q 2900 1003 2900 1516 
L 2900 3500 
L 3475 3500 
L 3475 0 
L 2900 0 
L 2900 538 
Q 2691 219 2414 64 
Q 2138 -91 1772 -91 
Q 1169 -91 856 284 
Q 544 659 544 1381 
z
M 1991 3584 
L 1991 3584 
z
" transform="scale(0.015625)"/>
       <path id="DejaVuSans-72" d="M 2631 2963 
Q 2534 3019 2420 3045 
Q 2306 3072 2169 3072 
Q 1681 3072 1420 2755 
Q 1159 2438 1159 1844 
L 1159 0 
L 581 0 
L 581 3500 
L 1159 3500 
L 1159 2956 
Q 1341 3275 1631 3429 
Q 1922 3584 2338 3584 
Q 2397 3584 2469 3576 
Q 2541 3569 2628 3553 
L 2631 2963 
z
" transform="scale(0.015625)"/>
       <path id="DejaVuSans-76" d="M 191 3500 
L 800 3500 
L 1894 563 
L 2988 3500 
L 3597 3500 
L 2284 0 
L 1503 0 
L 191 3500 
z
" transform="scale(0.015625)"/>
       <path id="DejaVuSans-61" d="M 2194 1759 
Q 1497 1759 1228 1600 
Q 959 1441 959 1056 
Q 959 750 1161 570 
Q 1363 391 1709 391 
Q 2188 391 2477 730 
Q 2766 1069 2766 1631 
L 2766 1759 
L 2194 1759 
z
M 3341 1997 
L 3341 0 
L 2766 0 
L 2766 531 
Q 2569 213 2275 61 
Q 1981 -91 1556 -91 
Q 1019 -91 701 211 
Q 384 513 384 1019 
Q 384 1609 779 1909 
Q 1175 2209 1959 2209 
L 2766 2209 
L 2766 2266 
Q 2766 2663 2505 2880 
Q 2244 3097 1772 3097 
Q 1472 3097 1187 3025 
Q 903 2953 641 2809 
L 641 3341 
Q 956 3463 1253 3523 
Q 1550 3584 1831 3584 
Q 2591 3584 2966 3190 
Q 3341 2797 3341 1997 
z
" transform="scale(0.015625)"/>
       <path id="DejaVuSans-6c" d="M 603 4863 
L 1178 4863 
L 1178 0 
L 603 0 
L 603 4863 
z
" transform="scale(0.015625)"/>
       <path id="DejaVuSans-70" d="M 1159 525 
L 1159 -1331 
L 581 -1331 
L 581 3500 
L 1159 3500 
L 1159 2969 
Q 1341 3281 1617 3432 
Q 1894 3584 2278 3584 
Q 2916 3584 3314 3078 
Q 3713 2572 3713 1747 
Q 3713 922 3314 415 
Q 2916 -91 2278 -91 
Q 1894 -91 1617 61 
Q 1341 213 1159 525 
z
M 3116 1747 
Q 3116 2381 2855 2742 
Q 2594 3103 2138 3103 
Q 1681 3103 1420 2742 
Q 1159 2381 1159 1747 
Q 1159 1113 1420 752 
Q 1681 391 2138 391 
Q 2594 391 2855 752 
Q 3116 1113 3116 1747 
z
" transform="scale(0.015625)"/>
       <path id="DejaVuSans-62" d="M 3116 1747 
Q 3116 2381 2855 2742 
Q 2594 3103 2138 3103 
Q 1681 3103 1420 2742 
Q 1159 2381 1159 1747 
Q 1159 1113 1420 752 
Q 1681 391 2138 391 
Q 2594 391 2855 752 
Q 3116 1113 3116 1747 
z
M 1159 2969 
Q 1341 3281 1617 3432 
Q 1894 3584 2278 3584 
Q 2916 3584 3314 3078 
Q 3713 2572 3713 1747 
Q 3713 922 3314 415 
Q 2916 -91 2278 -91 
Q 1894 -91 1617 61 
Q 1341 213 1159 525 
L 1159 0 
L 581 0 
L 581 4863 
L 1159 4863 
L 1159 2969 
z
" transform="scale(0.015625)"/>
       <path id="DejaVuSans-79" d="M 2059 -325 
Q 1816 -950 1584 -1140 
Q 1353 -1331 966 -1331 
L 506 -1331 
L 506 -850 
L 844 -850 
Q 1081 -850 1212 -737 
Q 1344 -625 1503 -206 
L 1606 56 
L 191 3500 
L 800 3500 
L 1894 763 
L 2988 3500 
L 3597 3500 
L 2059 -325 
z
" transform="scale(0.015625)"/>
      </defs>
      <use xlink:href="#DejaVuSans-53"/>
      <use xlink:href="#DejaVuSans-75" transform="translate(63.476562 0)"/>
      <use xlink:href="#DejaVuSans-72" transform="translate(126.855469 0)"/>
      <use xlink:href="#DejaVuSans-76" transform="translate(167.96875 0)"/>
      <use xlink:href="#DejaVuSans-69" transform="translate(227.148438 0)"/>
      <use xlink:href="#DejaVuSans-76" transform="translate(254.931641 0)"/>
      <use xlink:href="#DejaVuSans-61" transform="translate(314.111328 0)"/>
      <use xlink:href="#DejaVuSans-6c" transform="translate(375.390625 0)"/>
      <use xlink:href="#DejaVuSans-20" transform="translate(403.173828 0)"/>
      <use xlink:href="#DejaVuSans-70" transform="translate(434.960938 0)"/>
      <use xlink:href="#DejaVuSans-72" transform="translate(498.4375 0)"/>
      <use xlink:href="#DejaVuSans-6f" transform="translate(537.300781 0)"/>
      <use xlink:href="#DejaVuSans-62" transform="translate(598.482422 0)"/>
      <use xlink:href="#DejaVuSans-61" transform="translate(661.958984 0)"/>
      <use xlink:href="#DejaVuSans-62" transform="translate(723.238281 0)"/>
      <use xlink:href="#DejaVuSans-69" transform="translate(786.714844 0)"/>
      <use xlink:href="#DejaVuSans-6c" transform="translate(814.498047 0)"/>
      <use xlink:href="#DejaVuSans-69" transform="translate(842.28125 0)"/>
      <use xlink:href="#DejaVuSans-74" transform="translate(870.064453 0)"/>
      <use xlink:href="#DejaVuSans-79" transform="translate(909.273438 0)"/>
     </g>
    </g>
   </g>
   <g id="line2d_16">
    <defs>
     <path id="m5599f06931" d="M -6 0 
L 6 0 
M 0 6 
L 0 -6 
" style="stroke: #f27873"/>
    </defs>
    <g clip-path="url(#peda4d8611b)">
     <use xlink:href="#m5599f06931" x="75.59522" y="16.383834" style="fill: #f27873; stroke: #f27873"/>
     <use xlink:href="#m5599f06931" x="80.605294" y="24.74487" style="fill: #f27873; stroke: #f27873"/>
     <use xlink:href="#m5599f06931" x="85.615368" y="33.280094" style="fill: #f27873; stroke: #f27873"/>
     <use xlink:href="#m5599f06931" x="90.625442" y="40.062137" style="fill: #f27873; stroke: #f27873"/>
     <use xlink:href="#m5599f06931" x="95.635516" y="46.919258" style="fill: #f27873; stroke: #f27873"/>
     <use xlink:href="#m5599f06931" x="100.64559" y="51.844822" style="fill: #f27873; stroke: #f27873"/>
     <use xlink:href="#m5599f06931" x="105.655664" y="61.752348" style="fill: #f27873; stroke: #f27873"/>
     <use xlink:href="#m5599f06931" x="110.665738" y="70.974123" style="fill: #f27873; stroke: #f27873"/>
     <use xlink:href="#m5599f06931" x="115.675812" y="74.105804" style="fill: #f27873; stroke: #f27873"/>
     <use xlink:href="#m5599f06931" x="120.685886" y="86.819495" style="fill: #f27873; stroke: #f27873"/>
     <use xlink:href="#m5599f06931" x="125.695961" y="92.259716" style="fill: #f27873; stroke: #f27873"/>
     <use xlink:href="#m5599f06931" x="130.706035" y="107.846584" style="fill: #f27873; stroke: #f27873"/>
     <use xlink:href="#m5599f06931" x="135.716109" y="117.040681" style="fill: #f27873; stroke: #f27873"/>
     <use xlink:href="#m5599f06931" x="140.726183" y="125.188655" style="fill: #f27873; stroke: #f27873"/>
     <use xlink:href="#m5599f06931" x="145.736257" y="140.643421" style="fill: #f27873; stroke: #f27873"/>
     <use xlink:href="#m5599f06931" x="150.746331" y="155.109162" style="fill: #f27873; stroke: #f27873"/>
     <use xlink:href="#m5599f06931" x="155.756405" y="164.981923" style="fill: #f27873; stroke: #f27873"/>
     <use xlink:href="#m5599f06931" x="160.766479" y="176.295098" style="fill: #f27873; stroke: #f27873"/>
     <use xlink:href="#m5599f06931" x="165.776553" y="181.355408" style="fill: #f27873; stroke: #f27873"/>
     <use xlink:href="#m5599f06931" x="170.786627" y="189.200585" style="fill: #f27873; stroke: #f27873"/>
     <use xlink:href="#m5599f06931" x="175.796701" y="193.150226" style="fill: #f27873; stroke: #f27873"/>
     <use xlink:href="#m5599f06931" x="180.806775" y="201.189566" style="fill: #f27873; stroke: #f27873"/>
     <use xlink:href="#m5599f06931" x="185.816849" y="209.407559" style="fill: #f27873; stroke: #f27873"/>
     <use xlink:href="#m5599f06931" x="190.826923" y="217.784199" style="fill: #f27873; stroke: #f27873"/>
     <use xlink:href="#m5599f06931" x="195.836997" y="217.784199" style="fill: #f27873; stroke: #f27873"/>
     <use xlink:href="#m5599f06931" x="200.847071" y="220.816088" style="fill: #f27873; stroke: #f27873"/>
     <use xlink:href="#m5599f06931" x="205.857145" y="220.816088" style="fill: #f27873; stroke: #f27873"/>
     <use xlink:href="#m5599f06931" x="210.867219" y="228.847811" style="fill: #f27873; stroke: #f27873"/>
     <use xlink:href="#m5599f06931" x="215.877293" y="232.106396" style="fill: #f27873; stroke: #f27873"/>
     <use xlink:href="#m5599f06931" x="220.887367" y="232.106396" style="fill: #f27873; stroke: #f27873"/>
     <use xlink:href="#m5599f06931" x="225.897441" y="235.46177" style="fill: #f27873; stroke: #f27873"/>
     <use xlink:href="#m5599f06931" x="230.907515" y="237.165006" style="fill: #f27873; stroke: #f27873"/>
     <use xlink:href="#m5599f06931" x="235.917589" y="238.94072" style="fill: #f27873; stroke: #f27873"/>
     <use xlink:href="#m5599f06931" x="240.927663" y="244.296502" style="fill: #f27873; stroke: #f27873"/>
     <use xlink:href="#m5599f06931" x="245.937737" y="246.184957" style="fill: #f27873; stroke: #f27873"/>
     <use xlink:href="#m5599f06931" x="250.947811" y="250.098382" style="fill: #f27873; stroke: #f27873"/>
     <use xlink:href="#m5599f06931" x="255.957886" y="252.067099" style="fill: #f27873; stroke: #f27873"/>
     <use xlink:href="#m5599f06931" x="260.96796" y="252.067099" style="fill: #f27873; stroke: #f27873"/>
     <use xlink:href="#m5599f06931" x="265.978034" y="256.104214" style="fill: #f27873; stroke: #f27873"/>
     <use xlink:href="#m5599f06931" x="270.988108" y="256.104214" style="fill: #f27873; stroke: #f27873"/>
     <use xlink:href="#m5599f06931" x="281.008256" y="264.557772" style="fill: #f27873; stroke: #f27873"/>
     <use xlink:href="#m5599f06931" x="286.01833" y="268.813903" style="fill: #f27873; stroke: #f27873"/>
     <use xlink:href="#m5599f06931" x="291.028404" y="271.069017" style="fill: #f27873; stroke: #f27873"/>
     <use xlink:href="#m5599f06931" x="296.038478" y="278.098631" style="fill: #f27873; stroke: #f27873"/>
     <use xlink:href="#m5599f06931" x="301.048552" y="278.098631" style="fill: #f27873; stroke: #f27873"/>
     <use xlink:href="#m5599f06931" x="306.058626" y="285.48268" style="fill: #f27873; stroke: #f27873"/>
     <use xlink:href="#m5599f06931" x="311.0687" y="287.987211" style="fill: #f27873; stroke: #f27873"/>
     <use xlink:href="#m5599f06931" x="316.078774" y="287.987211" style="fill: #f27873; stroke: #f27873"/>
     <use xlink:href="#m5599f06931" x="326.098922" y="301.336834" style="fill: #f27873; stroke: #f27873"/>
     <use xlink:href="#m5599f06931" x="331.108996" y="304.033458" style="fill: #f27873; stroke: #f27873"/>
     <use xlink:href="#m5599f06931" x="336.11907" y="309.537906" style="fill: #f27873; stroke: #f27873"/>
     <use xlink:href="#m5599f06931" x="341.129144" y="312.379877" style="fill: #f27873; stroke: #f27873"/>
     <use xlink:href="#m5599f06931" x="346.139218" y="312.379877" style="fill: #f27873; stroke: #f27873"/>
     <use xlink:href="#m5599f06931" x="351.149292" y="315.352513" style="fill: #f27873; stroke: #f27873"/>
     <use xlink:href="#m5599f06931" x="356.159366" y="315.352513" style="fill: #f27873; stroke: #f27873"/>
     <use xlink:href="#m5599f06931" x="361.16944" y="318.432594" style="fill: #f27873; stroke: #f27873"/>
     <use xlink:href="#m5599f06931" x="371.189588" y="318.432594" style="fill: #f27873; stroke: #f27873"/>
     <use xlink:href="#m5599f06931" x="376.199662" y="321.845656" style="fill: #f27873; stroke: #f27873"/>
     <use xlink:href="#m5599f06931" x="381.209736" y="321.845656" style="fill: #f27873; stroke: #f27873"/>
     <use xlink:href="#m5599f06931" x="386.219811" y="321.845656" style="fill: #f27873; stroke: #f27873"/>
     <use xlink:href="#m5599f06931" x="396.239959" y="325.509679" style="fill: #f27873; stroke: #f27873"/>
     <use xlink:href="#m5599f06931" x="401.250033" y="325.509679" style="fill: #f27873; stroke: #f27873"/>
     <use xlink:href="#m5599f06931" x="406.260107" y="325.509679" style="fill: #f27873; stroke: #f27873"/>
     <use xlink:href="#m5599f06931" x="411.270181" y="325.509679" style="fill: #f27873; stroke: #f27873"/>
     <use xlink:href="#m5599f06931" x="421.290329" y="325.509679" style="fill: #f27873; stroke: #f27873"/>
     <use xlink:href="#m5599f06931" x="426.300403" y="325.509679" style="fill: #f27873; stroke: #f27873"/>
     <use xlink:href="#m5599f06931" x="431.310477" y="325.509679" style="fill: #f27873; stroke: #f27873"/>
     <use xlink:href="#m5599f06931" x="436.320551" y="325.509679" style="fill: #f27873; stroke: #f27873"/>
     <use xlink:href="#m5599f06931" x="441.330625" y="325.509679" style="fill: #f27873; stroke: #f27873"/>
     <use xlink:href="#m5599f06931" x="446.340699" y="325.509679" style="fill: #f27873; stroke: #f27873"/>
     <use xlink:href="#m5599f06931" x="451.350773" y="325.509679" style="fill: #f27873; stroke: #f27873"/>
     <use xlink:href="#m5599f06931" x="466.380995" y="325.509679" style="fill: #f27873; stroke: #f27873"/>
     <use xlink:href="#m5599f06931" x="501.451513" y="325.509679" style="fill: #f27873; stroke: #f27873"/>
     <use xlink:href="#m5599f06931" x="521.49181" y="325.509679" style="fill: #f27873; stroke: #f27873"/>
     <use xlink:href="#m5599f06931" x="526.501884" y="325.509679" style="fill: #f27873; stroke: #f27873"/>
     <use xlink:href="#m5599f06931" x="556.562328" y="325.509679" style="fill: #f27873; stroke: #f27873"/>
     <use xlink:href="#m5599f06931" x="566.582476" y="325.509679" style="fill: #f27873; stroke: #f27873"/>
     <use xlink:href="#m5599f06931" x="606.663068" y="325.509679" style="fill: #f27873; stroke: #f27873"/>
    </g>
   </g>
   <g id="line2d_17">
    <path d="M 70.585146 10.999219 
L 75.59522 10.999219 
L 75.59522 16.383834 
L 80.605294 16.383834 
L 80.605294 24.74487 
L 85.615368 24.74487 
L 85.615368 33.280094 
L 90.625442 33.280094 
L 90.625442 40.062137 
L 95.635516 40.062137 
L 95.635516 46.919258 
L 100.64559 46.919258 
L 100.64559 51.844822 
L 105.655664 51.844822 
L 105.655664 61.752348 
L 110.665738 61.752348 
L 110.665738 70.974123 
L 115.675812 70.974123 
L 115.675812 74.105804 
L 120.685886 74.105804 
L 120.685886 86.819495 
L 125.695961 86.819495 
L 125.695961 92.259716 
L 130.706035 92.259716 
L 130.706035 107.846584 
L 135.716109 107.846584 
L 135.716109 117.040681 
L 140.726183 117.040681 
L 140.726183 125.188655 
L 145.736257 125.188655 
L 145.736257 140.643421 
L 150.746331 140.643421 
L 150.746331 155.109162 
L 155.756405 155.109162 
L 155.756405 164.981923 
L 160.766479 164.981923 
L 160.766479 176.295098 
L 165.776553 176.295098 
L 165.776553 181.355408 
L 170.786627 181.355408 
L 170.786627 189.200585 
L 175.796701 189.200585 
L 175.796701 193.150226 
L 180.806775 193.150226 
L 180.806775 201.189566 
L 185.816849 201.189566 
L 185.816849 209.407559 
L 190.826923 209.407559 
L 190.826923 217.784199 
L 200.847071 217.784199 
L 200.847071 220.816088 
L 210.867219 220.816088 
L 210.867219 228.847811 
L 215.877293 228.847811 
L 215.877293 232.106396 
L 225.897441 232.106396 
L 225.897441 235.46177 
L 230.907515 235.46177 
L 230.907515 237.165006 
L 235.917589 237.165006 
L 235.917589 238.94072 
L 240.927663 238.94072 
L 240.927663 244.296502 
L 245.937737 244.296502 
L 245.937737 246.184957 
L 250.947811 246.184957 
L 250.947811 250.098382 
L 255.957886 250.098382 
L 255.957886 252.067099 
L 265.978034 252.067099 
L 265.978034 256.104214 
L 275.998182 256.104214 
L 275.998182 260.330993 
L 281.008256 260.330993 
L 281.008256 264.557772 
L 286.01833 264.557772 
L 286.01833 268.813903 
L 291.028404 268.813903 
L 291.028404 271.069017 
L 296.038478 271.069017 
L 296.038478 278.098631 
L 306.058626 278.098631 
L 306.058626 285.48268 
L 311.0687 285.48268 
L 311.0687 287.987211 
L 326.098922 287.987211 
L 326.098922 301.336834 
L 331.108996 301.336834 
L 331.108996 304.033458 
L 336.11907 304.033458 
L 336.11907 309.537906 
L 341.129144 309.537906 
L 341.129144 312.379877 
L 351.149292 312.379877 
L 351.149292 315.352513 
L 361.16944 315.352513 
L 361.16944 318.432594 
L 376.199662 318.432594 
L 376.199662 321.845656 
L 396.239959 321.845656 
L 396.239959 325.509679 
L 606.663068 325.509679 
L 606.663068 325.509679 
" clip-path="url(#peda4d8611b)" style="fill: none; stroke: #f27873; stroke-width: 2; stroke-linecap: square"/>
   </g>
   <g id="line2d_18">
    <defs>
     <path id="mdcc8fb2763" d="M -6 0 
L 6 0 
M 0 6 
L 0 -6 
" style="stroke: #468bca"/>
    </defs>
    <g clip-path="url(#peda4d8611b)">
     <use xlink:href="#mdcc8fb2763" x="75.59522" y="22.665885" style="fill: #468bca; stroke: #468bca"/>
     <use xlink:href="#mdcc8fb2763" x="80.605294" y="42.28258" style="fill: #468bca; stroke: #468bca"/>
     <use xlink:href="#mdcc8fb2763" x="85.615368" y="47.06302" style="fill: #468bca; stroke: #468bca"/>
     <use xlink:href="#mdcc8fb2763" x="90.625442" y="57.815442" style="fill: #468bca; stroke: #468bca"/>
     <use xlink:href="#mdcc8fb2763" x="95.635516" y="70.669756" style="fill: #468bca; stroke: #468bca"/>
     <use xlink:href="#mdcc8fb2763" x="100.64559" y="77.688406" style="fill: #468bca; stroke: #468bca"/>
     <use xlink:href="#mdcc8fb2763" x="105.655664" y="97.947577" style="fill: #468bca; stroke: #468bca"/>
     <use xlink:href="#mdcc8fb2763" x="110.665738" y="97.947577" style="fill: #468bca; stroke: #468bca"/>
     <use xlink:href="#mdcc8fb2763" x="115.675812" y="101.052949" style="fill: #468bca; stroke: #468bca"/>
     <use xlink:href="#mdcc8fb2763" x="120.685886" y="120.939317" style="fill: #468bca; stroke: #468bca"/>
     <use xlink:href="#mdcc8fb2763" x="125.695961" y="130.537751" style="fill: #468bca; stroke: #468bca"/>
     <use xlink:href="#mdcc8fb2763" x="130.706035" y="140.350011" style="fill: #468bca; stroke: #468bca"/>
     <use xlink:href="#mdcc8fb2763" x="135.716109" y="149.275383" style="fill: #468bca; stroke: #468bca"/>
     <use xlink:href="#mdcc8fb2763" x="140.726183" y="149.275383" style="fill: #468bca; stroke: #468bca"/>
     <use xlink:href="#mdcc8fb2763" x="145.736257" y="165.18949" style="fill: #468bca; stroke: #468bca"/>
     <use xlink:href="#mdcc8fb2763" x="150.746331" y="187.47384" style="fill: #468bca; stroke: #468bca"/>
     <use xlink:href="#mdcc8fb2763" x="160.766479" y="212.255479" style="fill: #468bca; stroke: #468bca"/>
     <use xlink:href="#mdcc8fb2763" x="165.776553" y="220.626167" style="fill: #468bca; stroke: #468bca"/>
     <use xlink:href="#mdcc8fb2763" x="170.786627" y="232.963246" style="fill: #468bca; stroke: #468bca"/>
     <use xlink:href="#mdcc8fb2763" x="175.796701" y="235.448805" style="fill: #468bca; stroke: #468bca"/>
     <use xlink:href="#mdcc8fb2763" x="180.806775" y="254.442224" style="fill: #468bca; stroke: #468bca"/>
     <use xlink:href="#mdcc8fb2763" x="185.816849" y="264.695082" style="fill: #468bca; stroke: #468bca"/>
     <use xlink:href="#mdcc8fb2763" x="190.826923" y="272.417035" style="fill: #468bca; stroke: #468bca"/>
     <use xlink:href="#mdcc8fb2763" x="195.836997" y="279.172288" style="fill: #468bca; stroke: #468bca"/>
     <use xlink:href="#mdcc8fb2763" x="200.847071" y="279.172288" style="fill: #468bca; stroke: #468bca"/>
     <use xlink:href="#mdcc8fb2763" x="205.857145" y="280.595834" style="fill: #468bca; stroke: #468bca"/>
     <use xlink:href="#mdcc8fb2763" x="210.867219" y="286.403902" style="fill: #468bca; stroke: #468bca"/>
     <use xlink:href="#mdcc8fb2763" x="215.877293" y="300.998534" style="fill: #468bca; stroke: #468bca"/>
     <use xlink:href="#mdcc8fb2763" x="220.887367" y="300.998534" style="fill: #468bca; stroke: #468bca"/>
     <use xlink:href="#mdcc8fb2763" x="225.897441" y="305.449094" style="fill: #468bca; stroke: #468bca"/>
     <use xlink:href="#mdcc8fb2763" x="230.907515" y="309.924658" style="fill: #468bca; stroke: #468bca"/>
     <use xlink:href="#mdcc8fb2763" x="240.927663" y="316.031666" style="fill: #468bca; stroke: #468bca"/>
     <use xlink:href="#mdcc8fb2763" x="245.937737" y="317.615315" style="fill: #468bca; stroke: #468bca"/>
     <use xlink:href="#mdcc8fb2763" x="250.947811" y="328.912687" style="fill: #468bca; stroke: #468bca"/>
     <use xlink:href="#mdcc8fb2763" x="255.957886" y="330.570813" style="fill: #468bca; stroke: #468bca"/>
     <use xlink:href="#mdcc8fb2763" x="265.978034" y="333.957129" style="fill: #468bca; stroke: #468bca"/>
     <use xlink:href="#mdcc8fb2763" x="275.998182" y="333.957129" style="fill: #468bca; stroke: #468bca"/>
     <use xlink:href="#mdcc8fb2763" x="281.008256" y="335.766611" style="fill: #468bca; stroke: #468bca"/>
     <use xlink:href="#mdcc8fb2763" x="286.01833" y="345.027737" style="fill: #468bca; stroke: #468bca"/>
     <use xlink:href="#mdcc8fb2763" x="291.028404" y="345.027737" style="fill: #468bca; stroke: #468bca"/>
     <use xlink:href="#mdcc8fb2763" x="296.038478" y="351.135074" style="fill: #468bca; stroke: #468bca"/>
     <use xlink:href="#mdcc8fb2763" x="301.048552" y="351.135074" style="fill: #468bca; stroke: #468bca"/>
     <use xlink:href="#mdcc8fb2763" x="311.0687" y="359.591388" style="fill: #468bca; stroke: #468bca"/>
     <use xlink:href="#mdcc8fb2763" x="316.078774" y="361.840407" style="fill: #468bca; stroke: #468bca"/>
     <use xlink:href="#mdcc8fb2763" x="326.098922" y="380.227995" style="fill: #468bca; stroke: #468bca"/>
     <use xlink:href="#mdcc8fb2763" x="331.108996" y="389.533908" style="fill: #468bca; stroke: #468bca"/>
     <use xlink:href="#mdcc8fb2763" x="336.11907" y="391.986142" style="fill: #468bca; stroke: #468bca"/>
     <use xlink:href="#mdcc8fb2763" x="341.129144" y="394.472435" style="fill: #468bca; stroke: #468bca"/>
     <use xlink:href="#mdcc8fb2763" x="346.139218" y="394.472435" style="fill: #468bca; stroke: #468bca"/>
     <use xlink:href="#mdcc8fb2763" x="351.149292" y="404.856363" style="fill: #468bca; stroke: #468bca"/>
     <use xlink:href="#mdcc8fb2763" x="361.16944" y="404.856363" style="fill: #468bca; stroke: #468bca"/>
     <use xlink:href="#mdcc8fb2763" x="366.179514" y="404.856363" style="fill: #468bca; stroke: #468bca"/>
     <use xlink:href="#mdcc8fb2763" x="371.189588" y="404.856363" style="fill: #468bca; stroke: #468bca"/>
     <use xlink:href="#mdcc8fb2763" x="376.199662" y="404.856363" style="fill: #468bca; stroke: #468bca"/>
     <use xlink:href="#mdcc8fb2763" x="381.209736" y="404.856363" style="fill: #468bca; stroke: #468bca"/>
     <use xlink:href="#mdcc8fb2763" x="386.219811" y="404.856363" style="fill: #468bca; stroke: #468bca"/>
     <use xlink:href="#mdcc8fb2763" x="396.239959" y="404.856363" style="fill: #468bca; stroke: #468bca"/>
     <use xlink:href="#mdcc8fb2763" x="401.250033" y="404.856363" style="fill: #468bca; stroke: #468bca"/>
     <use xlink:href="#mdcc8fb2763" x="411.270181" y="404.856363" style="fill: #468bca; stroke: #468bca"/>
     <use xlink:href="#mdcc8fb2763" x="421.290329" y="404.856363" style="fill: #468bca; stroke: #468bca"/>
     <use xlink:href="#mdcc8fb2763" x="426.300403" y="404.856363" style="fill: #468bca; stroke: #468bca"/>
     <use xlink:href="#mdcc8fb2763" x="431.310477" y="404.856363" style="fill: #468bca; stroke: #468bca"/>
     <use xlink:href="#mdcc8fb2763" x="436.320551" y="404.856363" style="fill: #468bca; stroke: #468bca"/>
     <use xlink:href="#mdcc8fb2763" x="441.330625" y="404.856363" style="fill: #468bca; stroke: #468bca"/>
     <use xlink:href="#mdcc8fb2763" x="446.340699" y="404.856363" style="fill: #468bca; stroke: #468bca"/>
     <use xlink:href="#mdcc8fb2763" x="451.350773" y="404.856363" style="fill: #468bca; stroke: #468bca"/>
     <use xlink:href="#mdcc8fb2763" x="456.360847" y="404.856363" style="fill: #468bca; stroke: #468bca"/>
     <use xlink:href="#mdcc8fb2763" x="466.380995" y="404.856363" style="fill: #468bca; stroke: #468bca"/>
     <use xlink:href="#mdcc8fb2763" x="471.391069" y="404.856363" style="fill: #468bca; stroke: #468bca"/>
     <use xlink:href="#mdcc8fb2763" x="496.441439" y="404.856363" style="fill: #468bca; stroke: #468bca"/>
     <use xlink:href="#mdcc8fb2763" x="501.451513" y="404.856363" style="fill: #468bca; stroke: #468bca"/>
     <use xlink:href="#mdcc8fb2763" x="521.49181" y="404.856363" style="fill: #468bca; stroke: #468bca"/>
     <use xlink:href="#mdcc8fb2763" x="546.54218" y="404.856363" style="fill: #468bca; stroke: #468bca"/>
     <use xlink:href="#mdcc8fb2763" x="556.562328" y="404.856363" style="fill: #468bca; stroke: #468bca"/>
     <use xlink:href="#mdcc8fb2763" x="566.582476" y="404.856363" style="fill: #468bca; stroke: #468bca"/>
     <use xlink:href="#mdcc8fb2763" x="571.59255" y="404.856363" style="fill: #468bca; stroke: #468bca"/>
     <use xlink:href="#mdcc8fb2763" x="606.663068" y="404.856363" style="fill: #468bca; stroke: #468bca"/>
    </g>
   </g>
   <g id="line2d_19">
    <path d="M 70.585146 10.999219 
L 75.59522 10.999219 
L 75.59522 22.665885 
L 80.605294 22.665885 
L 80.605294 42.28258 
L 85.615368 42.28258 
L 85.615368 47.06302 
L 90.625442 47.06302 
L 90.625442 57.815442 
L 95.635516 57.815442 
L 95.635516 70.669756 
L 100.64559 70.669756 
L 100.64559 77.688406 
L 105.655664 77.688406 
L 105.655664 97.947577 
L 115.675812 97.947577 
L 115.675812 101.052949 
L 120.685886 101.052949 
L 120.685886 120.939317 
L 125.695961 120.939317 
L 125.695961 130.537751 
L 130.706035 130.537751 
L 130.706035 140.350011 
L 135.716109 140.350011 
L 135.716109 149.275383 
L 145.736257 149.275383 
L 145.736257 165.18949 
L 150.746331 165.18949 
L 150.746331 187.47384 
L 155.756405 187.47384 
L 155.756405 192.194152 
L 160.766479 192.194152 
L 160.766479 212.255479 
L 165.776553 212.255479 
L 165.776553 220.626167 
L 170.786627 220.626167 
L 170.786627 232.963246 
L 175.796701 232.963246 
L 175.796701 235.448805 
L 180.806775 235.448805 
L 180.806775 254.442224 
L 185.816849 254.442224 
L 185.816849 264.695082 
L 190.826923 264.695082 
L 190.826923 272.417035 
L 195.836997 272.417035 
L 195.836997 279.172288 
L 205.857145 279.172288 
L 205.857145 280.595834 
L 210.867219 280.595834 
L 210.867219 286.403902 
L 215.877293 286.403902 
L 215.877293 300.998534 
L 225.897441 300.998534 
L 225.897441 305.449094 
L 230.907515 305.449094 
L 230.907515 309.924658 
L 235.917589 309.924658 
L 235.917589 316.031666 
L 245.937737 316.031666 
L 245.937737 317.615315 
L 250.947811 317.615315 
L 250.947811 328.912687 
L 255.957886 328.912687 
L 255.957886 330.570813 
L 265.978034 330.570813 
L 265.978034 333.957129 
L 281.008256 333.957129 
L 281.008256 335.766611 
L 286.01833 335.766611 
L 286.01833 345.027737 
L 296.038478 345.027737 
L 296.038478 351.135074 
L 306.058626 351.135074 
L 306.058626 357.477309 
L 311.0687 357.477309 
L 311.0687 359.591388 
L 316.078774 359.591388 
L 316.078774 361.840407 
L 326.098922 361.840407 
L 326.098922 380.227995 
L 331.108996 380.227995 
L 331.108996 389.533908 
L 336.11907 389.533908 
L 336.11907 391.986142 
L 341.129144 391.986142 
L 341.129144 394.472435 
L 351.149292 394.472435 
L 351.149292 404.856363 
L 606.663068 404.856363 
L 606.663068 404.856363 
" clip-path="url(#peda4d8611b)" style="fill: none; stroke: #468bca; stroke-width: 2; stroke-linecap: square"/>
   </g>
   <g id="line2d_20">
    <defs>
     <path id="m436980eea5" d="M -6 0 
L 6 0 
M 0 6 
L 0 -6 
" style="stroke: #7dd2f6"/>
    </defs>
    <g clip-path="url(#peda4d8611b)">
     <use xlink:href="#m436980eea5" x="75.59522" y="17.28127" style="fill: #7dd2f6; stroke: #7dd2f6"/>
     <use xlink:href="#m436980eea5" x="80.605294" y="28.524274" style="fill: #7dd2f6; stroke: #7dd2f6"/>
     <use xlink:href="#m436980eea5" x="85.615368" y="37.196165" style="fill: #7dd2f6; stroke: #7dd2f6"/>
     <use xlink:href="#m436980eea5" x="90.625442" y="48.992917" style="fill: #7dd2f6; stroke: #7dd2f6"/>
     <use xlink:href="#m436980eea5" x="95.635516" y="58.89816" style="fill: #7dd2f6; stroke: #7dd2f6"/>
     <use xlink:href="#m436980eea5" x="100.64559" y="69.857521" style="fill: #7dd2f6; stroke: #7dd2f6"/>
     <use xlink:href="#m436980eea5" x="105.655664" y="78.896149" style="fill: #7dd2f6; stroke: #7dd2f6"/>
     <use xlink:href="#m436980eea5" x="110.665738" y="88.065772" style="fill: #7dd2f6; stroke: #7dd2f6"/>
     <use xlink:href="#m436980eea5" x="115.675812" y="99.344472" style="fill: #7dd2f6; stroke: #7dd2f6"/>
     <use xlink:href="#m436980eea5" x="120.685886" y="117.005553" style="fill: #7dd2f6; stroke: #7dd2f6"/>
     <use xlink:href="#m436980eea5" x="125.695961" y="120.180334" style="fill: #7dd2f6; stroke: #7dd2f6"/>
     <use xlink:href="#m436980eea5" x="130.706035" y="127.748037" style="fill: #7dd2f6; stroke: #7dd2f6"/>
     <use xlink:href="#m436980eea5" x="135.716109" y="141.112394" style="fill: #7dd2f6; stroke: #7dd2f6"/>
     <use xlink:href="#m436980eea5" x="140.726183" y="152.278286" style="fill: #7dd2f6; stroke: #7dd2f6"/>
     <use xlink:href="#m436980eea5" x="145.736257" y="167.191634" style="fill: #7dd2f6; stroke: #7dd2f6"/>
     <use xlink:href="#m436980eea5" x="150.746331" y="177.66503" style="fill: #7dd2f6; stroke: #7dd2f6"/>
     <use xlink:href="#m436980eea5" x="155.756405" y="189.548238" style="fill: #7dd2f6; stroke: #7dd2f6"/>
     <use xlink:href="#m436980eea5" x="160.766479" y="199.329032" style="fill: #7dd2f6; stroke: #7dd2f6"/>
     <use xlink:href="#m436980eea5" x="165.776553" y="203.02112" style="fill: #7dd2f6; stroke: #7dd2f6"/>
     <use xlink:href="#m436980eea5" x="170.786627" y="212.059179" style="fill: #7dd2f6; stroke: #7dd2f6"/>
     <use xlink:href="#m436980eea5" x="175.796701" y="219.834053" style="fill: #7dd2f6; stroke: #7dd2f6"/>
     <use xlink:href="#m436980eea5" x="180.806775" y="233.035751" style="fill: #7dd2f6; stroke: #7dd2f6"/>
     <use xlink:href="#m436980eea5" x="185.816849" y="247.965864" style="fill: #7dd2f6; stroke: #7dd2f6"/>
     <use xlink:href="#m436980eea5" x="190.826923" y="252.07222" style="fill: #7dd2f6; stroke: #7dd2f6"/>
     <use xlink:href="#m436980eea5" x="195.836997" y="253.471023" style="fill: #7dd2f6; stroke: #7dd2f6"/>
     <use xlink:href="#m436980eea5" x="200.847071" y="254.90133" style="fill: #7dd2f6; stroke: #7dd2f6"/>
     <use xlink:href="#m436980eea5" x="205.857145" y="256.378423" style="fill: #7dd2f6; stroke: #7dd2f6"/>
     <use xlink:href="#m436980eea5" x="210.867219" y="263.798725" style="fill: #7dd2f6; stroke: #7dd2f6"/>
     <use xlink:href="#m436980eea5" x="215.877293" y="277.220106" style="fill: #7dd2f6; stroke: #7dd2f6"/>
     <use xlink:href="#m436980eea5" x="220.887367" y="277.220106" style="fill: #7dd2f6; stroke: #7dd2f6"/>
     <use xlink:href="#m436980eea5" x="225.897441" y="286.353135" style="fill: #7dd2f6; stroke: #7dd2f6"/>
     <use xlink:href="#m436980eea5" x="230.907515" y="297.182062" style="fill: #7dd2f6; stroke: #7dd2f6"/>
     <use xlink:href="#m436980eea5" x="235.917589" y="300.365983" style="fill: #7dd2f6; stroke: #7dd2f6"/>
     <use xlink:href="#m436980eea5" x="240.927663" y="305.170123" style="fill: #7dd2f6; stroke: #7dd2f6"/>
     <use xlink:href="#m436980eea5" x="245.937737" y="308.472348" style="fill: #7dd2f6; stroke: #7dd2f6"/>
     <use xlink:href="#m436980eea5" x="250.947811" y="313.553513" style="fill: #7dd2f6; stroke: #7dd2f6"/>
     <use xlink:href="#m436980eea5" x="255.957886" y="320.464807" style="fill: #7dd2f6; stroke: #7dd2f6"/>
     <use xlink:href="#m436980eea5" x="265.978034" y="329.286441" style="fill: #7dd2f6; stroke: #7dd2f6"/>
     <use xlink:href="#m436980eea5" x="270.988108" y="329.286441" style="fill: #7dd2f6; stroke: #7dd2f6"/>
     <use xlink:href="#m436980eea5" x="275.998182" y="333.033926" style="fill: #7dd2f6; stroke: #7dd2f6"/>
     <use xlink:href="#m436980eea5" x="281.008256" y="334.937649" style="fill: #7dd2f6; stroke: #7dd2f6"/>
     <use xlink:href="#m436980eea5" x="286.01833" y="334.937649" style="fill: #7dd2f6; stroke: #7dd2f6"/>
     <use xlink:href="#m436980eea5" x="291.028404" y="334.937649" style="fill: #7dd2f6; stroke: #7dd2f6"/>
     <use xlink:href="#m436980eea5" x="296.038478" y="334.937649" style="fill: #7dd2f6; stroke: #7dd2f6"/>
     <use xlink:href="#m436980eea5" x="301.048552" y="334.937649" style="fill: #7dd2f6; stroke: #7dd2f6"/>
     <use xlink:href="#m436980eea5" x="311.0687" y="348.299624" style="fill: #7dd2f6; stroke: #7dd2f6"/>
     <use xlink:href="#m436980eea5" x="316.078774" y="350.64383" style="fill: #7dd2f6; stroke: #7dd2f6"/>
     <use xlink:href="#m436980eea5" x="326.098922" y="353.065318" style="fill: #7dd2f6; stroke: #7dd2f6"/>
     <use xlink:href="#m436980eea5" x="336.11907" y="355.514014" style="fill: #7dd2f6; stroke: #7dd2f6"/>
     <use xlink:href="#m436980eea5" x="341.129144" y="357.990855" style="fill: #7dd2f6; stroke: #7dd2f6"/>
     <use xlink:href="#m436980eea5" x="346.139218" y="357.990855" style="fill: #7dd2f6; stroke: #7dd2f6"/>
     <use xlink:href="#m436980eea5" x="351.149292" y="357.990855" style="fill: #7dd2f6; stroke: #7dd2f6"/>
     <use xlink:href="#m436980eea5" x="356.159366" y="357.990855" style="fill: #7dd2f6; stroke: #7dd2f6"/>
     <use xlink:href="#m436980eea5" x="361.16944" y="357.990855" style="fill: #7dd2f6; stroke: #7dd2f6"/>
     <use xlink:href="#m436980eea5" x="366.179514" y="357.990855" style="fill: #7dd2f6; stroke: #7dd2f6"/>
     <use xlink:href="#m436980eea5" x="371.189588" y="357.990855" style="fill: #7dd2f6; stroke: #7dd2f6"/>
     <use xlink:href="#m436980eea5" x="376.199662" y="357.990855" style="fill: #7dd2f6; stroke: #7dd2f6"/>
     <use xlink:href="#m436980eea5" x="381.209736" y="357.990855" style="fill: #7dd2f6; stroke: #7dd2f6"/>
     <use xlink:href="#m436980eea5" x="386.219811" y="357.990855" style="fill: #7dd2f6; stroke: #7dd2f6"/>
     <use xlink:href="#m436980eea5" x="396.239959" y="365.211478" style="fill: #7dd2f6; stroke: #7dd2f6"/>
     <use xlink:href="#m436980eea5" x="401.250033" y="365.211478" style="fill: #7dd2f6; stroke: #7dd2f6"/>
     <use xlink:href="#m436980eea5" x="406.260107" y="365.211478" style="fill: #7dd2f6; stroke: #7dd2f6"/>
     <use xlink:href="#m436980eea5" x="411.270181" y="365.211478" style="fill: #7dd2f6; stroke: #7dd2f6"/>
     <use xlink:href="#m436980eea5" x="421.290329" y="365.211478" style="fill: #7dd2f6; stroke: #7dd2f6"/>
     <use xlink:href="#m436980eea5" x="426.300403" y="365.211478" style="fill: #7dd2f6; stroke: #7dd2f6"/>
     <use xlink:href="#m436980eea5" x="431.310477" y="365.211478" style="fill: #7dd2f6; stroke: #7dd2f6"/>
     <use xlink:href="#m436980eea5" x="436.320551" y="365.211478" style="fill: #7dd2f6; stroke: #7dd2f6"/>
     <use xlink:href="#m436980eea5" x="441.330625" y="365.211478" style="fill: #7dd2f6; stroke: #7dd2f6"/>
     <use xlink:href="#m436980eea5" x="446.340699" y="365.211478" style="fill: #7dd2f6; stroke: #7dd2f6"/>
     <use xlink:href="#m436980eea5" x="451.350773" y="365.211478" style="fill: #7dd2f6; stroke: #7dd2f6"/>
     <use xlink:href="#m436980eea5" x="456.360847" y="365.211478" style="fill: #7dd2f6; stroke: #7dd2f6"/>
     <use xlink:href="#m436980eea5" x="466.380995" y="365.211478" style="fill: #7dd2f6; stroke: #7dd2f6"/>
     <use xlink:href="#m436980eea5" x="471.391069" y="365.211478" style="fill: #7dd2f6; stroke: #7dd2f6"/>
     <use xlink:href="#m436980eea5" x="496.441439" y="365.211478" style="fill: #7dd2f6; stroke: #7dd2f6"/>
     <use xlink:href="#m436980eea5" x="501.451513" y="365.211478" style="fill: #7dd2f6; stroke: #7dd2f6"/>
     <use xlink:href="#m436980eea5" x="521.49181" y="365.211478" style="fill: #7dd2f6; stroke: #7dd2f6"/>
     <use xlink:href="#m436980eea5" x="526.501884" y="365.211478" style="fill: #7dd2f6; stroke: #7dd2f6"/>
     <use xlink:href="#m436980eea5" x="546.54218" y="365.211478" style="fill: #7dd2f6; stroke: #7dd2f6"/>
     <use xlink:href="#m436980eea5" x="556.562328" y="365.211478" style="fill: #7dd2f6; stroke: #7dd2f6"/>
     <use xlink:href="#m436980eea5" x="566.582476" y="365.211478" style="fill: #7dd2f6; stroke: #7dd2f6"/>
     <use xlink:href="#m436980eea5" x="571.59255" y="365.211478" style="fill: #7dd2f6; stroke: #7dd2f6"/>
     <use xlink:href="#m436980eea5" x="606.663068" y="365.211478" style="fill: #7dd2f6; stroke: #7dd2f6"/>
    </g>
   </g>
   <g id="line2d_21">
    <path d="M 70.585146 10.999219 
L 75.59522 10.999219 
L 75.59522 17.28127 
L 80.605294 17.28127 
L 80.605294 28.524274 
L 85.615368 28.524274 
L 85.615368 37.196165 
L 90.625442 37.196165 
L 90.625442 48.992917 
L 95.635516 48.992917 
L 95.635516 58.89816 
L 100.64559 58.89816 
L 100.64559 69.857521 
L 105.655664 69.857521 
L 105.655664 78.896149 
L 110.665738 78.896149 
L 110.665738 88.065772 
L 115.675812 88.065772 
L 115.675812 99.344472 
L 120.685886 99.344472 
L 120.685886 117.005553 
L 125.695961 117.005553 
L 125.695961 120.180334 
L 130.706035 120.180334 
L 130.706035 127.748037 
L 135.716109 127.748037 
L 135.716109 141.112394 
L 140.726183 141.112394 
L 140.726183 152.278286 
L 145.736257 152.278286 
L 145.736257 167.191634 
L 150.746331 167.191634 
L 150.746331 177.66503 
L 155.756405 177.66503 
L 155.756405 189.548238 
L 160.766479 189.548238 
L 160.766479 199.329032 
L 165.776553 199.329032 
L 165.776553 203.02112 
L 170.786627 203.02112 
L 170.786627 212.059179 
L 175.796701 212.059179 
L 175.796701 219.834053 
L 180.806775 219.834053 
L 180.806775 233.035751 
L 185.816849 233.035751 
L 185.816849 247.965864 
L 190.826923 247.965864 
L 190.826923 252.07222 
L 195.836997 252.07222 
L 195.836997 253.471023 
L 200.847071 253.471023 
L 200.847071 254.90133 
L 205.857145 254.90133 
L 205.857145 256.378423 
L 210.867219 256.378423 
L 210.867219 263.798725 
L 215.877293 263.798725 
L 215.877293 277.220106 
L 225.897441 277.220106 
L 225.897441 286.353135 
L 230.907515 286.353135 
L 230.907515 297.182062 
L 235.917589 297.182062 
L 235.917589 300.365983 
L 240.927663 300.365983 
L 240.927663 305.170123 
L 245.937737 305.170123 
L 245.937737 308.472348 
L 250.947811 308.472348 
L 250.947811 313.553513 
L 255.957886 313.553513 
L 255.957886 320.464807 
L 265.978034 320.464807 
L 265.978034 329.286441 
L 275.998182 329.286441 
L 275.998182 333.033926 
L 281.008256 333.033926 
L 281.008256 334.937649 
L 306.058626 334.937649 
L 306.058626 341.618636 
L 311.0687 341.618636 
L 311.0687 348.299624 
L 316.078774 348.299624 
L 316.078774 350.64383 
L 326.098922 350.64383 
L 326.098922 353.065318 
L 331.108996 353.065318 
L 331.108996 355.514014 
L 341.129144 355.514014 
L 341.129144 357.990855 
L 396.239959 357.990855 
L 396.239959 365.211478 
L 606.663068 365.211478 
L 606.663068 365.211478 
" clip-path="url(#peda4d8611b)" style="fill: none; stroke: #7dd2f6; stroke-width: 2; stroke-linecap: square"/>
   </g>
   <g id="patch_3">
    <path d="M 43.78125 458.999219 
L 43.78125 10.999219 
" style="fill: none; stroke: #000000; stroke-width: 0.8; stroke-linejoin: miter; stroke-linecap: square"/>
   </g>
   <g id="patch_4">
    <path d="M 633.466964 458.999219 
L 633.466964 10.999219 
" style="fill: none; stroke: #000000; stroke-width: 0.8; stroke-linejoin: miter; stroke-linecap: square"/>
   </g>
   <g id="patch_5">
    <path d="M 43.78125 458.999219 
L 633.466964 458.999219 
" style="fill: none; stroke: #000000; stroke-width: 0.8; stroke-linejoin: miter; stroke-linecap: square"/>
   </g>
   <g id="patch_6">
    <path d="M 43.78125 10.999219 
L 633.466964 10.999219 
" style="fill: none; stroke: #000000; stroke-width: 0.8; stroke-linejoin: miter; stroke-linecap: square"/>
   </g>
   <g id="legend_1">
    <g id="line2d_22">
     <path d="M 57.78125 410.063281 
L 67.78125 410.063281 
L 77.78125 410.063281 
" style="fill: none; stroke: #f27873; stroke-width: 2; stroke-linecap: round"/>
    </g>
    <g id="text_18">
     <!-- OURS -->
     <g transform="translate(85.78125 413.563281) scale(0.1 -0.1)">
      <defs>
       <path id="DejaVuSans-4f" d="M 2522 4238 
Q 1834 4238 1429 3725 
Q 1025 3213 1025 2328 
Q 1025 1447 1429 934 
Q 1834 422 2522 422 
Q 3209 422 3611 934 
Q 4013 1447 4013 2328 
Q 4013 3213 3611 3725 
Q 3209 4238 2522 4238 
z
M 2522 4750 
Q 3503 4750 4090 4092 
Q 4678 3434 4678 2328 
Q 4678 1225 4090 567 
Q 3503 -91 2522 -91 
Q 1538 -91 948 565 
Q 359 1222 359 2328 
Q 359 3434 948 4092 
Q 1538 4750 2522 4750 
z
" transform="scale(0.015625)"/>
       <path id="DejaVuSans-55" d="M 556 4666 
L 1191 4666 
L 1191 1831 
Q 1191 1081 1462 751 
Q 1734 422 2344 422 
Q 2950 422 3222 751 
Q 3494 1081 3494 1831 
L 3494 4666 
L 4128 4666 
L 4128 1753 
Q 4128 841 3676 375 
Q 3225 -91 2344 -91 
Q 1459 -91 1007 375 
Q 556 841 556 1753 
L 556 4666 
z
" transform="scale(0.015625)"/>
       <path id="DejaVuSans-52" d="M 2841 2188 
Q 3044 2119 3236 1894 
Q 3428 1669 3622 1275 
L 4263 0 
L 3584 0 
L 2988 1197 
Q 2756 1666 2539 1819 
Q 2322 1972 1947 1972 
L 1259 1972 
L 1259 0 
L 628 0 
L 628 4666 
L 2053 4666 
Q 2853 4666 3247 4331 
Q 3641 3997 3641 3322 
Q 3641 2881 3436 2590 
Q 3231 2300 2841 2188 
z
M 1259 4147 
L 1259 2491 
L 2053 2491 
Q 2509 2491 2742 2702 
Q 2975 2913 2975 3322 
Q 2975 3731 2742 3939 
Q 2509 4147 2053 4147 
L 1259 4147 
z
" transform="scale(0.015625)"/>
      </defs>
      <use xlink:href="#DejaVuSans-4f"/>
      <use xlink:href="#DejaVuSans-55" transform="translate(78.710938 0)"/>
      <use xlink:href="#DejaVuSans-52" transform="translate(151.904297 0)"/>
      <use xlink:href="#DejaVuSans-53" transform="translate(221.386719 0)"/>
     </g>
    </g>
    <g id="line2d_23">
     <path d="M 57.78125 424.741406 
L 67.78125 424.741406 
L 77.78125 424.741406 
" style="fill: none; stroke: #468bca; stroke-width: 2; stroke-linecap: round"/>
    </g>
    <g id="text_19">
     <!-- BCLC -->
     <g transform="translate(85.78125 428.241406) scale(0.1 -0.1)">
      <defs>
       <path id="DejaVuSans-42" d="M 1259 2228 
L 1259 519 
L 2272 519 
Q 2781 519 3026 730 
Q 3272 941 3272 1375 
Q 3272 1813 3026 2020 
Q 2781 2228 2272 2228 
L 1259 2228 
z
M 1259 4147 
L 1259 2741 
L 2194 2741 
Q 2656 2741 2882 2914 
Q 3109 3088 3109 3444 
Q 3109 3797 2882 3972 
Q 2656 4147 2194 4147 
L 1259 4147 
z
M 628 4666 
L 2241 4666 
Q 2963 4666 3353 4366 
Q 3744 4066 3744 3513 
Q 3744 3084 3544 2831 
Q 3344 2578 2956 2516 
Q 3422 2416 3680 2098 
Q 3938 1781 3938 1306 
Q 3938 681 3513 340 
Q 3088 0 2303 0 
L 628 0 
L 628 4666 
z
" transform="scale(0.015625)"/>
       <path id="DejaVuSans-43" d="M 4122 4306 
L 4122 3641 
Q 3803 3938 3442 4084 
Q 3081 4231 2675 4231 
Q 1875 4231 1450 3742 
Q 1025 3253 1025 2328 
Q 1025 1406 1450 917 
Q 1875 428 2675 428 
Q 3081 428 3442 575 
Q 3803 722 4122 1019 
L 4122 359 
Q 3791 134 3420 21 
Q 3050 -91 2638 -91 
Q 1578 -91 968 557 
Q 359 1206 359 2328 
Q 359 3453 968 4101 
Q 1578 4750 2638 4750 
Q 3056 4750 3426 4639 
Q 3797 4528 4122 4306 
z
" transform="scale(0.015625)"/>
       <path id="DejaVuSans-4c" d="M 628 4666 
L 1259 4666 
L 1259 531 
L 3531 531 
L 3531 0 
L 628 0 
L 628 4666 
z
" transform="scale(0.015625)"/>
      </defs>
      <use xlink:href="#DejaVuSans-42"/>
      <use xlink:href="#DejaVuSans-43" transform="translate(66.853516 0)"/>
      <use xlink:href="#DejaVuSans-4c" transform="translate(136.677734 0)"/>
      <use xlink:href="#DejaVuSans-43" transform="translate(192.390625 0)"/>
     </g>
    </g>
    <g id="line2d_24">
     <path d="M 57.78125 439.419531 
L 67.78125 439.419531 
L 77.78125 439.419531 
" style="fill: none; stroke: #7dd2f6; stroke-width: 2; stroke-linecap: round"/>
    </g>
    <g id="text_20">
     <!-- CNLC -->
     <g transform="translate(85.78125 442.919531) scale(0.1 -0.1)">
      <defs>
       <path id="DejaVuSans-4e" d="M 628 4666 
L 1478 4666 
L 3547 763 
L 3547 4666 
L 4159 4666 
L 4159 0 
L 3309 0 
L 1241 3903 
L 1241 0 
L 628 0 
L 628 4666 
z
" transform="scale(0.015625)"/>
      </defs>
      <use xlink:href="#DejaVuSans-43"/>
      <use xlink:href="#DejaVuSans-4e" transform="translate(69.824219 0)"/>
      <use xlink:href="#DejaVuSans-4c" transform="translate(144.628906 0)"/>
      <use xlink:href="#DejaVuSans-43" transform="translate(200.341797 0)"/>
     </g>
    </g>
   </g>
  </g>
 </g>
 <defs>
  <clipPath id="peda4d8611b">
   <rect x="43.78125" y="10.999219" width="589.685714" height="448"/>
  </clipPath>
 </defs>
</svg>
