<?xml version="1.0" encoding="utf-8" standalone="no"?>
<!DOCTYPE svg PUBLIC "-//W3C//DTD SVG 1.1//EN"
  "http://www.w3.org/Graphics/SVG/1.1/DTD/svg11.dtd">
<svg xmlns:xlink="http://www.w3.org/1999/xlink" width="852.463437pt" height="431.271875pt" viewBox="0 0 852.463437 431.271875" xmlns="http://www.w3.org/2000/svg" version="1.1">
 <metadata>
  <rdf:RDF xmlns:dc="http://purl.org/dc/elements/1.1/" xmlns:cc="http://creativecommons.org/ns#" xmlns:rdf="http://www.w3.org/1999/02/22-rdf-syntax-ns#">
   <cc:Work>
    <dc:type rdf:resource="http://purl.org/dc/dcmitype/StillImage"/>
    <dc:date>2025-11-16T22:46:37.901699</dc:date>
    <dc:format>image/svg+xml</dc:format>
    <dc:creator>
     <cc:Agent>
      <dc:title>Matplotlib v3.10.6, https://matplotlib.org/</dc:title>
     </cc:Agent>
    </dc:creator>
   </cc:Work>
  </rdf:RDF>
 </metadata>
 <defs>
  <style type="text/css">*{stroke-linejoin: round; stroke-linecap: butt}</style>
 </defs>
 <g id="figure_1">
  <g id="patch_1">
   <path d="M 0 431.271875 
L 852.463437 431.271875 
L 852.463437 0 
L 0 0 
z
" style="fill: #ffffff"/>
  </g>
  <g id="axes_1">
   <g id="patch_2">
    <path d="M 64.063438 328.591304 
L 845.263438 328.591304 
L 845.263438 7.2 
L 64.063438 7.2 
z
" style="fill: #ffffff"/>
   </g>
   <g id="matplotlib.axis_1">
    <g id="xtick_1">
     <g id="line2d_1">
      <defs>
       <path id="m6cfa333551" d="M 0 0 
L 0 -4 
" style="stroke: #000000"/>
      </defs>
      <g>
       <use xlink:href="#m6cfa333551" x="99.572528" y="328.591304" style="stroke: #000000"/>
      </g>
     </g>
    </g>
    <g id="xtick_2">
     <g id="line2d_2">
      <g>
       <use xlink:href="#m6cfa333551" x="199.130727" y="328.591304" style="stroke: #000000"/>
      </g>
     </g>
    </g>
    <g id="xtick_3">
     <g id="line2d_3">
      <g>
       <use xlink:href="#m6cfa333551" x="298.688926" y="328.591304" style="stroke: #000000"/>
      </g>
     </g>
    </g>
    <g id="xtick_4">
     <g id="line2d_4">
      <g>
       <use xlink:href="#m6cfa333551" x="398.247125" y="328.591304" style="stroke: #000000"/>
      </g>
     </g>
    </g>
    <g id="xtick_5">
     <g id="line2d_5">
      <g>
       <use xlink:href="#m6cfa333551" x="497.805324" y="328.591304" style="stroke: #000000"/>
      </g>
     </g>
    </g>
    <g id="xtick_6">
     <g id="line2d_6">
      <g>
       <use xlink:href="#m6cfa333551" x="597.363522" y="328.591304" style="stroke: #000000"/>
      </g>
     </g>
    </g>
    <g id="xtick_7">
     <g id="line2d_7">
      <g>
       <use xlink:href="#m6cfa333551" x="696.921721" y="328.591304" style="stroke: #000000"/>
      </g>
     </g>
    </g>
    <g id="xtick_8">
     <g id="line2d_8">
      <g>
       <use xlink:href="#m6cfa333551" x="796.47992" y="328.591304" style="stroke: #000000"/>
      </g>
     </g>
    </g>
    <g id="xtick_9">
     <g id="line2d_9">
      <g>
       <use xlink:href="#m6cfa333551" x="232.316793" y="328.591304" style="stroke: #000000"/>
      </g>
     </g>
    </g>
    <g id="xtick_10">
     <g id="line2d_10">
      <g>
       <use xlink:href="#m6cfa333551" x="365.061059" y="328.591304" style="stroke: #000000"/>
      </g>
     </g>
    </g>
    <g id="xtick_11">
     <g id="line2d_11">
      <g>
       <use xlink:href="#m6cfa333551" x="630.549589" y="328.591304" style="stroke: #000000"/>
      </g>
     </g>
    </g>
    <g id="xtick_12">
     <g id="line2d_12">
      <g>
       <use xlink:href="#m6cfa333551" x="763.293854" y="328.591304" style="stroke: #000000"/>
      </g>
     </g>
    </g>
   </g>
   <g id="matplotlib.axis_2">
    <g id="ytick_1">
     <g id="line2d_13">
      <path d="M 64.063438 328.591304 
L 845.263438 328.591304 
" clip-path="url(#p7cf0f22fc5)" style="fill: none; stroke-dasharray: 2.22,0.96; stroke-dashoffset: 0; stroke: #b0b0b0; stroke-opacity: 0.5; stroke-width: 0.6"/>
     </g>
     <g id="line2d_14">
      <defs>
       <path id="m22d30d756f" d="M 0 0 
L 4 0 
" style="stroke: #000000"/>
      </defs>
      <g>
       <use xlink:href="#m22d30d756f" x="64.063438" y="328.591304" style="stroke: #000000"/>
      </g>
     </g>
     <g id="text_1">
      <!-- 0.2 -->
      <g transform="translate(44.660313 332.390523) scale(0.1 -0.1)">
       <defs>
        <path id="DejaVuSans-30" d="M 2034 4250 
Q 1547 4250 1301 3770 
Q 1056 3291 1056 2328 
Q 1056 1369 1301 889 
Q 1547 409 2034 409 
Q 2525 409 2770 889 
Q 3016 1369 3016 2328 
Q 3016 3291 2770 3770 
Q 2525 4250 2034 4250 
z
M 2034 4750 
Q 2819 4750 3233 4129 
Q 3647 3509 3647 2328 
Q 3647 1150 3233 529 
Q 2819 -91 2034 -91 
Q 1250 -91 836 529 
Q 422 1150 422 2328 
Q 422 3509 836 4129 
Q 1250 4750 2034 4750 
z
" transform="scale(0.015625)"/>
        <path id="DejaVuSans-2e" d="M 684 794 
L 1344 794 
L 1344 0 
L 684 0 
L 684 794 
z
" transform="scale(0.015625)"/>
        <path id="DejaVuSans-32" d="M 1228 531 
L 3431 531 
L 3431 0 
L 469 0 
L 469 531 
Q 828 903 1448 1529 
Q 2069 2156 2228 2338 
Q 2531 2678 2651 2914 
Q 2772 3150 2772 3378 
Q 2772 3750 2511 3984 
Q 2250 4219 1831 4219 
Q 1534 4219 1204 4116 
Q 875 4013 500 3803 
L 500 4441 
Q 881 4594 1212 4672 
Q 1544 4750 1819 4750 
Q 2544 4750 2975 4387 
Q 3406 4025 3406 3419 
Q 3406 3131 3298 2873 
Q 3191 2616 2906 2266 
Q 2828 2175 2409 1742 
Q 1991 1309 1228 531 
z
" transform="scale(0.015625)"/>
       </defs>
       <use xlink:href="#DejaVuSans-30"/>
       <use xlink:href="#DejaVuSans-2e" transform="translate(63.623047 0)"/>
       <use xlink:href="#DejaVuSans-32" transform="translate(95.410156 0)"/>
      </g>
     </g>
    </g>
    <g id="ytick_2">
     <g id="line2d_15">
      <path d="M 64.063438 290.780563 
L 845.263438 290.780563 
" clip-path="url(#p7cf0f22fc5)" style="fill: none; stroke-dasharray: 2.22,0.96; stroke-dashoffset: 0; stroke: #b0b0b0; stroke-opacity: 0.5; stroke-width: 0.6"/>
     </g>
     <g id="line2d_16">
      <g>
       <use xlink:href="#m22d30d756f" x="64.063438" y="290.780563" style="stroke: #000000"/>
      </g>
     </g>
     <g id="text_2">
      <!-- 0.3 -->
      <g transform="translate(44.660313 294.579781) scale(0.1 -0.1)">
       <defs>
        <path id="DejaVuSans-33" d="M 2597 2516 
Q 3050 2419 3304 2112 
Q 3559 1806 3559 1356 
Q 3559 666 3084 287 
Q 2609 -91 1734 -91 
Q 1441 -91 1130 -33 
Q 819 25 488 141 
L 488 750 
Q 750 597 1062 519 
Q 1375 441 1716 441 
Q 2309 441 2620 675 
Q 2931 909 2931 1356 
Q 2931 1769 2642 2001 
Q 2353 2234 1838 2234 
L 1294 2234 
L 1294 2753 
L 1863 2753 
Q 2328 2753 2575 2939 
Q 2822 3125 2822 3475 
Q 2822 3834 2567 4026 
Q 2313 4219 1838 4219 
Q 1578 4219 1281 4162 
Q 984 4106 628 3988 
L 628 4550 
Q 988 4650 1302 4700 
Q 1616 4750 1894 4750 
Q 2613 4750 3031 4423 
Q 3450 4097 3450 3541 
Q 3450 3153 3228 2886 
Q 3006 2619 2597 2516 
z
" transform="scale(0.015625)"/>
       </defs>
       <use xlink:href="#DejaVuSans-30"/>
       <use xlink:href="#DejaVuSans-2e" transform="translate(63.623047 0)"/>
       <use xlink:href="#DejaVuSans-33" transform="translate(95.410156 0)"/>
      </g>
     </g>
    </g>
    <g id="ytick_3">
     <g id="line2d_17">
      <path d="M 64.063438 252.969821 
L 845.263438 252.969821 
" clip-path="url(#p7cf0f22fc5)" style="fill: none; stroke-dasharray: 2.22,0.96; stroke-dashoffset: 0; stroke: #b0b0b0; stroke-opacity: 0.5; stroke-width: 0.6"/>
     </g>
     <g id="line2d_18">
      <g>
       <use xlink:href="#m22d30d756f" x="64.063438" y="252.969821" style="stroke: #000000"/>
      </g>
     </g>
     <g id="text_3">
      <!-- 0.4 -->
      <g transform="translate(44.660313 256.76904) scale(0.1 -0.1)">
       <defs>
        <path id="DejaVuSans-34" d="M 2419 4116 
L 825 1625 
L 2419 1625 
L 2419 4116 
z
M 2253 4666 
L 3047 4666 
L 3047 1625 
L 3713 1625 
L 3713 1100 
L 3047 1100 
L 3047 0 
L 2419 0 
L 2419 1100 
L 313 1100 
L 313 1709 
L 2253 4666 
z
" transform="scale(0.015625)"/>
       </defs>
       <use xlink:href="#DejaVuSans-30"/>
       <use xlink:href="#DejaVuSans-2e" transform="translate(63.623047 0)"/>
       <use xlink:href="#DejaVuSans-34" transform="translate(95.410156 0)"/>
      </g>
     </g>
    </g>
    <g id="ytick_4">
     <g id="line2d_19">
      <path d="M 64.063438 215.159079 
L 845.263438 215.159079 
" clip-path="url(#p7cf0f22fc5)" style="fill: none; stroke-dasharray: 2.22,0.96; stroke-dashoffset: 0; stroke: #b0b0b0; stroke-opacity: 0.5; stroke-width: 0.6"/>
     </g>
     <g id="line2d_20">
      <g>
       <use xlink:href="#m22d30d756f" x="64.063438" y="215.159079" style="stroke: #000000"/>
      </g>
     </g>
     <g id="text_4">
      <!-- 0.5 -->
      <g transform="translate(44.660313 218.958298) scale(0.1 -0.1)">
       <defs>
        <path id="DejaVuSans-35" d="M 691 4666 
L 3169 4666 
L 3169 4134 
L 1269 4134 
L 1269 2991 
Q 1406 3038 1543 3061 
Q 1681 3084 1819 3084 
Q 2600 3084 3056 2656 
Q 3513 2228 3513 1497 
Q 3513 744 3044 326 
Q 2575 -91 1722 -91 
Q 1428 -91 1123 -41 
Q 819 9 494 109 
L 494 744 
Q 775 591 1075 516 
Q 1375 441 1709 441 
Q 2250 441 2565 725 
Q 2881 1009 2881 1497 
Q 2881 1984 2565 2268 
Q 2250 2553 1709 2553 
Q 1456 2553 1204 2497 
Q 953 2441 691 2322 
L 691 4666 
z
" transform="scale(0.015625)"/>
       </defs>
       <use xlink:href="#DejaVuSans-30"/>
       <use xlink:href="#DejaVuSans-2e" transform="translate(63.623047 0)"/>
       <use xlink:href="#DejaVuSans-35" transform="translate(95.410156 0)"/>
      </g>
     </g>
    </g>
    <g id="ytick_5">
     <g id="line2d_21">
      <path d="M 64.063438 177.348338 
L 845.263438 177.348338 
" clip-path="url(#p7cf0f22fc5)" style="fill: none; stroke-dasharray: 2.22,0.96; stroke-dashoffset: 0; stroke: #b0b0b0; stroke-opacity: 0.5; stroke-width: 0.6"/>
     </g>
     <g id="line2d_22">
      <g>
       <use xlink:href="#m22d30d756f" x="64.063438" y="177.348338" style="stroke: #000000"/>
      </g>
     </g>
     <g id="text_5">
      <!-- 0.6 -->
      <g transform="translate(44.660313 181.147556) scale(0.1 -0.1)">
       <defs>
        <path id="DejaVuSans-36" d="M 2113 2584 
Q 1688 2584 1439 2293 
Q 1191 2003 1191 1497 
Q 1191 994 1439 701 
Q 1688 409 2113 409 
Q 2538 409 2786 701 
Q 3034 994 3034 1497 
Q 3034 2003 2786 2293 
Q 2538 2584 2113 2584 
z
M 3366 4563 
L 3366 3988 
Q 3128 4100 2886 4159 
Q 2644 4219 2406 4219 
Q 1781 4219 1451 3797 
Q 1122 3375 1075 2522 
Q 1259 2794 1537 2939 
Q 1816 3084 2150 3084 
Q 2853 3084 3261 2657 
Q 3669 2231 3669 1497 
Q 3669 778 3244 343 
Q 2819 -91 2113 -91 
Q 1303 -91 875 529 
Q 447 1150 447 2328 
Q 447 3434 972 4092 
Q 1497 4750 2381 4750 
Q 2619 4750 2861 4703 
Q 3103 4656 3366 4563 
z
" transform="scale(0.015625)"/>
       </defs>
       <use xlink:href="#DejaVuSans-30"/>
       <use xlink:href="#DejaVuSans-2e" transform="translate(63.623047 0)"/>
       <use xlink:href="#DejaVuSans-36" transform="translate(95.410156 0)"/>
      </g>
     </g>
    </g>
    <g id="ytick_6">
     <g id="line2d_23">
      <path d="M 64.063438 139.537596 
L 845.263438 139.537596 
" clip-path="url(#p7cf0f22fc5)" style="fill: none; stroke-dasharray: 2.22,0.96; stroke-dashoffset: 0; stroke: #b0b0b0; stroke-opacity: 0.5; stroke-width: 0.6"/>
     </g>
     <g id="line2d_24">
      <g>
       <use xlink:href="#m22d30d756f" x="64.063438" y="139.537596" style="stroke: #000000"/>
      </g>
     </g>
     <g id="text_6">
      <!-- 0.7 -->
      <g transform="translate(44.660313 143.336815) scale(0.1 -0.1)">
       <defs>
        <path id="DejaVuSans-37" d="M 525 4666 
L 3525 4666 
L 3525 4397 
L 1831 0 
L 1172 0 
L 2766 4134 
L 525 4134 
L 525 4666 
z
" transform="scale(0.015625)"/>
       </defs>
       <use xlink:href="#DejaVuSans-30"/>
       <use xlink:href="#DejaVuSans-2e" transform="translate(63.623047 0)"/>
       <use xlink:href="#DejaVuSans-37" transform="translate(95.410156 0)"/>
      </g>
     </g>
    </g>
    <g id="ytick_7">
     <g id="line2d_25">
      <path d="M 64.063438 101.726854 
L 845.263438 101.726854 
" clip-path="url(#p7cf0f22fc5)" style="fill: none; stroke-dasharray: 2.22,0.96; stroke-dashoffset: 0; stroke: #b0b0b0; stroke-opacity: 0.5; stroke-width: 0.6"/>
     </g>
     <g id="line2d_26">
      <g>
       <use xlink:href="#m22d30d756f" x="64.063438" y="101.726854" style="stroke: #000000"/>
      </g>
     </g>
     <g id="text_7">
      <!-- 0.8 -->
      <g transform="translate(44.660313 105.526073) scale(0.1 -0.1)">
       <defs>
        <path id="DejaVuSans-38" d="M 2034 2216 
Q 1584 2216 1326 1975 
Q 1069 1734 1069 1313 
Q 1069 891 1326 650 
Q 1584 409 2034 409 
Q 2484 409 2743 651 
Q 3003 894 3003 1313 
Q 3003 1734 2745 1975 
Q 2488 2216 2034 2216 
z
M 1403 2484 
Q 997 2584 770 2862 
Q 544 3141 544 3541 
Q 544 4100 942 4425 
Q 1341 4750 2034 4750 
Q 2731 4750 3128 4425 
Q 3525 4100 3525 3541 
Q 3525 3141 3298 2862 
Q 3072 2584 2669 2484 
Q 3125 2378 3379 2068 
Q 3634 1759 3634 1313 
Q 3634 634 3220 271 
Q 2806 -91 2034 -91 
Q 1263 -91 848 271 
Q 434 634 434 1313 
Q 434 1759 690 2068 
Q 947 2378 1403 2484 
z
M 1172 3481 
Q 1172 3119 1398 2916 
Q 1625 2713 2034 2713 
Q 2441 2713 2670 2916 
Q 2900 3119 2900 3481 
Q 2900 3844 2670 4047 
Q 2441 4250 2034 4250 
Q 1625 4250 1398 4047 
Q 1172 3844 1172 3481 
z
" transform="scale(0.015625)"/>
       </defs>
       <use xlink:href="#DejaVuSans-30"/>
       <use xlink:href="#DejaVuSans-2e" transform="translate(63.623047 0)"/>
       <use xlink:href="#DejaVuSans-38" transform="translate(95.410156 0)"/>
      </g>
     </g>
    </g>
    <g id="ytick_8">
     <g id="line2d_27">
      <path d="M 64.063438 63.916113 
L 845.263438 63.916113 
" clip-path="url(#p7cf0f22fc5)" style="fill: none; stroke-dasharray: 2.22,0.96; stroke-dashoffset: 0; stroke: #b0b0b0; stroke-opacity: 0.5; stroke-width: 0.6"/>
     </g>
     <g id="line2d_28">
      <g>
       <use xlink:href="#m22d30d756f" x="64.063438" y="63.916113" style="stroke: #000000"/>
      </g>
     </g>
     <g id="text_8">
      <!-- 0.9 -->
      <g transform="translate(44.660313 67.715331) scale(0.1 -0.1)">
       <defs>
        <path id="DejaVuSans-39" d="M 703 97 
L 703 672 
Q 941 559 1184 500 
Q 1428 441 1663 441 
Q 2288 441 2617 861 
Q 2947 1281 2994 2138 
Q 2813 1869 2534 1725 
Q 2256 1581 1919 1581 
Q 1219 1581 811 2004 
Q 403 2428 403 3163 
Q 403 3881 828 4315 
Q 1253 4750 1959 4750 
Q 2769 4750 3195 4129 
Q 3622 3509 3622 2328 
Q 3622 1225 3098 567 
Q 2575 -91 1691 -91 
Q 1453 -91 1209 -44 
Q 966 3 703 97 
z
M 1959 2075 
Q 2384 2075 2632 2365 
Q 2881 2656 2881 3163 
Q 2881 3666 2632 3958 
Q 2384 4250 1959 4250 
Q 1534 4250 1286 3958 
Q 1038 3666 1038 3163 
Q 1038 2656 1286 2365 
Q 1534 2075 1959 2075 
z
" transform="scale(0.015625)"/>
       </defs>
       <use xlink:href="#DejaVuSans-30"/>
       <use xlink:href="#DejaVuSans-2e" transform="translate(63.623047 0)"/>
       <use xlink:href="#DejaVuSans-39" transform="translate(95.410156 0)"/>
      </g>
     </g>
    </g>
    <g id="ytick_9">
     <g id="line2d_29">
      <path d="M 64.063438 26.105371 
L 845.263438 26.105371 
" clip-path="url(#p7cf0f22fc5)" style="fill: none; stroke-dasharray: 2.22,0.96; stroke-dashoffset: 0; stroke: #b0b0b0; stroke-opacity: 0.5; stroke-width: 0.6"/>
     </g>
     <g id="line2d_30">
      <g>
       <use xlink:href="#m22d30d756f" x="64.063438" y="26.105371" style="stroke: #000000"/>
      </g>
     </g>
     <g id="text_9">
      <!-- 1.0 -->
      <g transform="translate(44.660313 29.90459) scale(0.1 -0.1)">
       <defs>
        <path id="DejaVuSans-31" d="M 794 531 
L 1825 531 
L 1825 4091 
L 703 3866 
L 703 4441 
L 1819 4666 
L 2450 4666 
L 2450 531 
L 3481 531 
L 3481 0 
L 794 0 
L 794 531 
z
" transform="scale(0.015625)"/>
       </defs>
       <use xlink:href="#DejaVuSans-31"/>
       <use xlink:href="#DejaVuSans-2e" transform="translate(63.623047 0)"/>
       <use xlink:href="#DejaVuSans-30" transform="translate(95.410156 0)"/>
      </g>
     </g>
    </g>
    <g id="text_10">
     <!-- Survival probability -->
     <g transform="translate(38.164687 226.004715) rotate(-90) scale(0.12 -0.12)">
      <defs>
       <path id="DejaVuSans-53" d="M 3425 4513 
L 3425 3897 
Q 3066 4069 2747 4153 
Q 2428 4238 2131 4238 
Q 1616 4238 1336 4038 
Q 1056 3838 1056 3469 
Q 1056 3159 1242 3001 
Q 1428 2844 1947 2747 
L 2328 2669 
Q 3034 2534 3370 2195 
Q 3706 1856 3706 1288 
Q 3706 609 3251 259 
Q 2797 -91 1919 -91 
Q 1588 -91 1214 -16 
Q 841 59 441 206 
L 441 856 
Q 825 641 1194 531 
Q 1563 422 1919 422 
Q 2459 422 2753 634 
Q 3047 847 3047 1241 
Q 3047 1584 2836 1778 
Q 2625 1972 2144 2069 
L 1759 2144 
Q 1053 2284 737 2584 
Q 422 2884 422 3419 
Q 422 4038 858 4394 
Q 1294 4750 2059 4750 
Q 2388 4750 2728 4690 
Q 3069 4631 3425 4513 
z
" transform="scale(0.015625)"/>
       <path id="DejaVuSans-75" d="M 544 1381 
L 544 3500 
L 1119 3500 
L 1119 1403 
Q 1119 906 1312 657 
Q 1506 409 1894 409 
Q 2359 409 2629 706 
Q 2900 1003 2900 1516 
L 2900 3500 
L 3475 3500 
L 3475 0 
L 2900 0 
L 2900 538 
Q 2691 219 2414 64 
Q 2138 -91 1772 -91 
Q 1169 -91 856 284 
Q 544 659 544 1381 
z
M 1991 3584 
L 1991 3584 
z
" transform="scale(0.015625)"/>
       <path id="DejaVuSans-72" d="M 2631 2963 
Q 2534 3019 2420 3045 
Q 2306 3072 2169 3072 
Q 1681 3072 1420 2755 
Q 1159 2438 1159 1844 
L 1159 0 
L 581 0 
L 581 3500 
L 1159 3500 
L 1159 2956 
Q 1341 3275 1631 3429 
Q 1922 3584 2338 3584 
Q 2397 3584 2469 3576 
Q 2541 3569 2628 3553 
L 2631 2963 
z
" transform="scale(0.015625)"/>
       <path id="DejaVuSans-76" d="M 191 3500 
L 800 3500 
L 1894 563 
L 2988 3500 
L 3597 3500 
L 2284 0 
L 1503 0 
L 191 3500 
z
" transform="scale(0.015625)"/>
       <path id="DejaVuSans-69" d="M 603 3500 
L 1178 3500 
L 1178 0 
L 603 0 
L 603 3500 
z
M 603 4863 
L 1178 4863 
L 1178 4134 
L 603 4134 
L 603 4863 
z
" transform="scale(0.015625)"/>
       <path id="DejaVuSans-61" d="M 2194 1759 
Q 1497 1759 1228 1600 
Q 959 1441 959 1056 
Q 959 750 1161 570 
Q 1363 391 1709 391 
Q 2188 391 2477 730 
Q 2766 1069 2766 1631 
L 2766 1759 
L 2194 1759 
z
M 3341 1997 
L 3341 0 
L 2766 0 
L 2766 531 
Q 2569 213 2275 61 
Q 1981 -91 1556 -91 
Q 1019 -91 701 211 
Q 384 513 384 1019 
Q 384 1609 779 1909 
Q 1175 2209 1959 2209 
L 2766 2209 
L 2766 2266 
Q 2766 2663 2505 2880 
Q 2244 3097 1772 3097 
Q 1472 3097 1187 3025 
Q 903 2953 641 2809 
L 641 3341 
Q 956 3463 1253 3523 
Q 1550 3584 1831 3584 
Q 2591 3584 2966 3190 
Q 3341 2797 3341 1997 
z
" transform="scale(0.015625)"/>
       <path id="DejaVuSans-6c" d="M 603 4863 
L 1178 4863 
L 1178 0 
L 603 0 
L 603 4863 
z
" transform="scale(0.015625)"/>
       <path id="DejaVuSans-20" transform="scale(0.015625)"/>
       <path id="DejaVuSans-70" d="M 1159 525 
L 1159 -1331 
L 581 -1331 
L 581 3500 
L 1159 3500 
L 1159 2969 
Q 1341 3281 1617 3432 
Q 1894 3584 2278 3584 
Q 2916 3584 3314 3078 
Q 3713 2572 3713 1747 
Q 3713 922 3314 415 
Q 2916 -91 2278 -91 
Q 1894 -91 1617 61 
Q 1341 213 1159 525 
z
M 3116 1747 
Q 3116 2381 2855 2742 
Q 2594 3103 2138 3103 
Q 1681 3103 1420 2742 
Q 1159 2381 1159 1747 
Q 1159 1113 1420 752 
Q 1681 391 2138 391 
Q 2594 391 2855 752 
Q 3116 1113 3116 1747 
z
" transform="scale(0.015625)"/>
       <path id="DejaVuSans-6f" d="M 1959 3097 
Q 1497 3097 1228 2736 
Q 959 2375 959 1747 
Q 959 1119 1226 758 
Q 1494 397 1959 397 
Q 2419 397 2687 759 
Q 2956 1122 2956 1747 
Q 2956 2369 2687 2733 
Q 2419 3097 1959 3097 
z
M 1959 3584 
Q 2709 3584 3137 3096 
Q 3566 2609 3566 1747 
Q 3566 888 3137 398 
Q 2709 -91 1959 -91 
Q 1206 -91 779 398 
Q 353 888 353 1747 
Q 353 2609 779 3096 
Q 1206 3584 1959 3584 
z
" transform="scale(0.015625)"/>
       <path id="DejaVuSans-62" d="M 3116 1747 
Q 3116 2381 2855 2742 
Q 2594 3103 2138 3103 
Q 1681 3103 1420 2742 
Q 1159 2381 1159 1747 
Q 1159 1113 1420 752 
Q 1681 391 2138 391 
Q 2594 391 2855 752 
Q 3116 1113 3116 1747 
z
M 1159 2969 
Q 1341 3281 1617 3432 
Q 1894 3584 2278 3584 
Q 2916 3584 3314 3078 
Q 3713 2572 3713 1747 
Q 3713 922 3314 415 
Q 2916 -91 2278 -91 
Q 1894 -91 1617 61 
Q 1341 213 1159 525 
L 1159 0 
L 581 0 
L 581 4863 
L 1159 4863 
L 1159 2969 
z
" transform="scale(0.015625)"/>
       <path id="DejaVuSans-74" d="M 1172 4494 
L 1172 3500 
L 2356 3500 
L 2356 3053 
L 1172 3053 
L 1172 1153 
Q 1172 725 1289 603 
Q 1406 481 1766 481 
L 2356 481 
L 2356 0 
L 1766 0 
Q 1100 0 847 248 
Q 594 497 594 1153 
L 594 3053 
L 172 3053 
L 172 3500 
L 594 3500 
L 594 4494 
L 1172 4494 
z
" transform="scale(0.015625)"/>
       <path id="DejaVuSans-79" d="M 2059 -325 
Q 1816 -950 1584 -1140 
Q 1353 -1331 966 -1331 
L 506 -1331 
L 506 -850 
L 844 -850 
Q 1081 -850 1212 -737 
Q 1344 -625 1503 -206 
L 1606 56 
L 191 3500 
L 800 3500 
L 1894 763 
L 2988 3500 
L 3597 3500 
L 2059 -325 
z
" transform="scale(0.015625)"/>
      </defs>
      <use xlink:href="#DejaVuSans-53"/>
      <use xlink:href="#DejaVuSans-75" transform="translate(63.476562 0)"/>
      <use xlink:href="#DejaVuSans-72" transform="translate(126.855469 0)"/>
      <use xlink:href="#DejaVuSans-76" transform="translate(167.96875 0)"/>
      <use xlink:href="#DejaVuSans-69" transform="translate(227.148438 0)"/>
      <use xlink:href="#DejaVuSans-76" transform="translate(254.931641 0)"/>
      <use xlink:href="#DejaVuSans-61" transform="translate(314.111328 0)"/>
      <use xlink:href="#DejaVuSans-6c" transform="translate(375.390625 0)"/>
      <use xlink:href="#DejaVuSans-20" transform="translate(403.173828 0)"/>
      <use xlink:href="#DejaVuSans-70" transform="translate(434.960938 0)"/>
      <use xlink:href="#DejaVuSans-72" transform="translate(498.4375 0)"/>
      <use xlink:href="#DejaVuSans-6f" transform="translate(537.300781 0)"/>
      <use xlink:href="#DejaVuSans-62" transform="translate(598.482422 0)"/>
      <use xlink:href="#DejaVuSans-61" transform="translate(661.958984 0)"/>
      <use xlink:href="#DejaVuSans-62" transform="translate(723.238281 0)"/>
      <use xlink:href="#DejaVuSans-69" transform="translate(786.714844 0)"/>
      <use xlink:href="#DejaVuSans-6c" transform="translate(814.498047 0)"/>
      <use xlink:href="#DejaVuSans-69" transform="translate(842.28125 0)"/>
      <use xlink:href="#DejaVuSans-74" transform="translate(870.064453 0)"/>
      <use xlink:href="#DejaVuSans-79" transform="translate(909.273438 0)"/>
     </g>
    </g>
   </g>
   <g id="line2d_31">
    <defs>
     <path id="mb4079d070a" d="M -5 0 
L 5 0 
M 0 5 
L 0 -5 
" style="stroke: #f27873"/>
    </defs>
    <g clip-path="url(#p7cf0f22fc5)">
     <use xlink:href="#mb4079d070a" x="106.209742" y="29.741019" style="fill: #f27873; stroke: #f27873"/>
     <use xlink:href="#mb4079d070a" x="112.846955" y="35.386322" style="fill: #f27873; stroke: #f27873"/>
     <use xlink:href="#mb4079d070a" x="119.484168" y="41.149236" style="fill: #f27873; stroke: #f27873"/>
     <use xlink:href="#mb4079d070a" x="126.121381" y="45.728416" style="fill: #f27873; stroke: #f27873"/>
     <use xlink:href="#mb4079d070a" x="132.758595" y="50.358288" style="fill: #f27873; stroke: #f27873"/>
     <use xlink:href="#mb4079d070a" x="139.395808" y="53.683988" style="fill: #f27873; stroke: #f27873"/>
     <use xlink:href="#mb4079d070a" x="146.033021" y="60.373469" style="fill: #f27873; stroke: #f27873"/>
     <use xlink:href="#mb4079d070a" x="152.670234" y="66.599935" style="fill: #f27873; stroke: #f27873"/>
     <use xlink:href="#mb4079d070a" x="159.307448" y="68.714421" style="fill: #f27873; stroke: #f27873"/>
     <use xlink:href="#mb4079d070a" x="165.944661" y="77.298601" style="fill: #f27873; stroke: #f27873"/>
     <use xlink:href="#mb4079d070a" x="172.581874" y="80.971794" style="fill: #f27873; stroke: #f27873"/>
     <use xlink:href="#mb4079d070a" x="179.219087" y="91.495919" style="fill: #f27873; stroke: #f27873"/>
     <use xlink:href="#mb4079d070a" x="185.856301" y="97.703698" style="fill: #f27873; stroke: #f27873"/>
     <use xlink:href="#mb4079d070a" x="192.493514" y="103.205143" style="fill: #f27873; stroke: #f27873"/>
     <use xlink:href="#mb4079d070a" x="199.130727" y="113.640075" style="fill: #f27873; stroke: #f27873"/>
     <use xlink:href="#mb4079d070a" x="205.76794" y="123.407225" style="fill: #f27873; stroke: #f27873"/>
     <use xlink:href="#mb4079d070a" x="212.405154" y="130.073232" style="fill: #f27873; stroke: #f27873"/>
     <use xlink:href="#mb4079d070a" x="219.042367" y="137.711796" style="fill: #f27873; stroke: #f27873"/>
     <use xlink:href="#mb4079d070a" x="225.67958" y="141.128475" style="fill: #f27873; stroke: #f27873"/>
     <use xlink:href="#mb4079d070a" x="232.316793" y="146.425475" style="fill: #f27873; stroke: #f27873"/>
     <use xlink:href="#mb4079d070a" x="238.954007" y="149.09224" style="fill: #f27873; stroke: #f27873"/>
     <use xlink:href="#mb4079d070a" x="245.59122" y="154.520337" style="fill: #f27873; stroke: #f27873"/>
     <use xlink:href="#mb4079d070a" x="252.228433" y="160.069058" style="fill: #f27873; stroke: #f27873"/>
     <use xlink:href="#mb4079d070a" x="258.865647" y="165.724897" style="fill: #f27873; stroke: #f27873"/>
     <use xlink:href="#mb4079d070a" x="265.50286" y="165.724897" style="fill: #f27873; stroke: #f27873"/>
     <use xlink:href="#mb4079d070a" x="272.140073" y="167.772004" style="fill: #f27873; stroke: #f27873"/>
     <use xlink:href="#mb4079d070a" x="278.777286" y="167.772004" style="fill: #f27873; stroke: #f27873"/>
     <use xlink:href="#mb4079d070a" x="285.4145" y="173.194958" style="fill: #f27873; stroke: #f27873"/>
     <use xlink:href="#mb4079d070a" x="292.051713" y="175.395127" style="fill: #f27873; stroke: #f27873"/>
     <use xlink:href="#mb4079d070a" x="298.688926" y="175.395127" style="fill: #f27873; stroke: #f27873"/>
     <use xlink:href="#mb4079d070a" x="305.326139" y="177.660649" style="fill: #f27873; stroke: #f27873"/>
     <use xlink:href="#mb4079d070a" x="311.963353" y="178.81066" style="fill: #f27873; stroke: #f27873"/>
     <use xlink:href="#mb4079d070a" x="318.600566" y="180.009607" style="fill: #f27873; stroke: #f27873"/>
     <use xlink:href="#mb4079d070a" x="325.237779" y="183.625787" style="fill: #f27873; stroke: #f27873"/>
     <use xlink:href="#mb4079d070a" x="331.874992" y="184.900857" style="fill: #f27873; stroke: #f27873"/>
     <use xlink:href="#mb4079d070a" x="338.512206" y="187.543169" style="fill: #f27873; stroke: #f27873"/>
     <use xlink:href="#mb4079d070a" x="345.149419" y="188.872431" style="fill: #f27873; stroke: #f27873"/>
     <use xlink:href="#mb4079d070a" x="351.786632" y="188.872431" style="fill: #f27873; stroke: #f27873"/>
     <use xlink:href="#mb4079d070a" x="358.423845" y="191.598258" style="fill: #f27873; stroke: #f27873"/>
     <use xlink:href="#mb4079d070a" x="365.061059" y="191.598258" style="fill: #f27873; stroke: #f27873"/>
     <use xlink:href="#mb4079d070a" x="378.335485" y="197.306031" style="fill: #f27873; stroke: #f27873"/>
     <use xlink:href="#mb4079d070a" x="384.972698" y="200.179736" style="fill: #f27873; stroke: #f27873"/>
     <use xlink:href="#mb4079d070a" x="391.609912" y="201.70237" style="fill: #f27873; stroke: #f27873"/>
     <use xlink:href="#mb4079d070a" x="398.247125" y="206.448708" style="fill: #f27873; stroke: #f27873"/>
     <use xlink:href="#mb4079d070a" x="404.884338" y="206.448708" style="fill: #f27873; stroke: #f27873"/>
     <use xlink:href="#mb4079d070a" x="411.521551" y="211.434357" style="fill: #f27873; stroke: #f27873"/>
     <use xlink:href="#mb4079d070a" x="418.158765" y="213.125396" style="fill: #f27873; stroke: #f27873"/>
     <use xlink:href="#mb4079d070a" x="424.795978" y="213.125396" style="fill: #f27873; stroke: #f27873"/>
     <use xlink:href="#mb4079d070a" x="438.070404" y="222.138952" style="fill: #f27873; stroke: #f27873"/>
     <use xlink:href="#mb4079d070a" x="444.707618" y="223.959691" style="fill: #f27873; stroke: #f27873"/>
     <use xlink:href="#mb4079d070a" x="451.344831" y="227.676249" style="fill: #f27873; stroke: #f27873"/>
     <use xlink:href="#mb4079d070a" x="457.982044" y="229.595125" style="fill: #f27873; stroke: #f27873"/>
     <use xlink:href="#mb4079d070a" x="464.619257" y="229.595125" style="fill: #f27873; stroke: #f27873"/>
     <use xlink:href="#mb4079d070a" x="471.256471" y="231.602224" style="fill: #f27873; stroke: #f27873"/>
     <use xlink:href="#mb4079d070a" x="477.893684" y="231.602224" style="fill: #f27873; stroke: #f27873"/>
     <use xlink:href="#mb4079d070a" x="484.530897" y="233.68187" style="fill: #f27873; stroke: #f27873"/>
     <use xlink:href="#mb4079d070a" x="497.805324" y="233.68187" style="fill: #f27873; stroke: #f27873"/>
     <use xlink:href="#mb4079d070a" x="504.442537" y="235.986342" style="fill: #f27873; stroke: #f27873"/>
     <use xlink:href="#mb4079d070a" x="511.07975" y="235.986342" style="fill: #f27873; stroke: #f27873"/>
     <use xlink:href="#mb4079d070a" x="517.716963" y="235.986342" style="fill: #f27873; stroke: #f27873"/>
     <use xlink:href="#mb4079d070a" x="530.99139" y="238.46026" style="fill: #f27873; stroke: #f27873"/>
     <use xlink:href="#mb4079d070a" x="537.628603" y="238.46026" style="fill: #f27873; stroke: #f27873"/>
     <use xlink:href="#mb4079d070a" x="544.265816" y="238.46026" style="fill: #f27873; stroke: #f27873"/>
     <use xlink:href="#mb4079d070a" x="550.90303" y="238.46026" style="fill: #f27873; stroke: #f27873"/>
     <use xlink:href="#mb4079d070a" x="564.177456" y="238.46026" style="fill: #f27873; stroke: #f27873"/>
     <use xlink:href="#mb4079d070a" x="570.814669" y="238.46026" style="fill: #f27873; stroke: #f27873"/>
     <use xlink:href="#mb4079d070a" x="577.451883" y="238.46026" style="fill: #f27873; stroke: #f27873"/>
     <use xlink:href="#mb4079d070a" x="584.089096" y="238.46026" style="fill: #f27873; stroke: #f27873"/>
     <use xlink:href="#mb4079d070a" x="590.726309" y="238.46026" style="fill: #f27873; stroke: #f27873"/>
     <use xlink:href="#mb4079d070a" x="597.363522" y="238.46026" style="fill: #f27873; stroke: #f27873"/>
     <use xlink:href="#mb4079d070a" x="604.000736" y="238.46026" style="fill: #f27873; stroke: #f27873"/>
     <use xlink:href="#mb4079d070a" x="623.912375" y="238.46026" style="fill: #f27873; stroke: #f27873"/>
     <use xlink:href="#mb4079d070a" x="670.372868" y="238.46026" style="fill: #f27873; stroke: #f27873"/>
     <use xlink:href="#mb4079d070a" x="696.921721" y="238.46026" style="fill: #f27873; stroke: #f27873"/>
     <use xlink:href="#mb4079d070a" x="703.558935" y="238.46026" style="fill: #f27873; stroke: #f27873"/>
     <use xlink:href="#mb4079d070a" x="743.382214" y="238.46026" style="fill: #f27873; stroke: #f27873"/>
     <use xlink:href="#mb4079d070a" x="756.656641" y="238.46026" style="fill: #f27873; stroke: #f27873"/>
     <use xlink:href="#mb4079d070a" x="809.754347" y="238.46026" style="fill: #f27873; stroke: #f27873"/>
    </g>
   </g>
   <g id="line2d_32">
    <path d="M 99.572528 26.105371 
L 106.209742 26.105371 
L 106.209742 29.741019 
L 112.846955 29.741019 
L 112.846955 35.386322 
L 119.484168 35.386322 
L 119.484168 41.149236 
L 126.121381 41.149236 
L 126.121381 45.728416 
L 132.758595 45.728416 
L 132.758595 50.358288 
L 139.395808 50.358288 
L 139.395808 53.683988 
L 146.033021 53.683988 
L 146.033021 60.373469 
L 152.670234 60.373469 
L 152.670234 66.599935 
L 159.307448 66.599935 
L 159.307448 68.714421 
L 165.944661 68.714421 
L 165.944661 77.298601 
L 172.581874 77.298601 
L 172.581874 80.971794 
L 179.219087 80.971794 
L 179.219087 91.495919 
L 185.856301 91.495919 
L 185.856301 97.703698 
L 192.493514 97.703698 
L 192.493514 103.205143 
L 199.130727 103.205143 
L 199.130727 113.640075 
L 205.76794 113.640075 
L 205.76794 123.407225 
L 212.405154 123.407225 
L 212.405154 130.073232 
L 219.042367 130.073232 
L 219.042367 137.711796 
L 225.67958 137.711796 
L 225.67958 141.128475 
L 232.316793 141.128475 
L 232.316793 146.425475 
L 238.954007 146.425475 
L 238.954007 149.09224 
L 245.59122 149.09224 
L 245.59122 154.520337 
L 252.228433 154.520337 
L 252.228433 160.069058 
L 258.865647 160.069058 
L 258.865647 165.724897 
L 272.140073 165.724897 
L 272.140073 167.772004 
L 285.4145 167.772004 
L 285.4145 173.194958 
L 292.051713 173.194958 
L 292.051713 175.395127 
L 305.326139 175.395127 
L 305.326139 177.660649 
L 311.963353 177.660649 
L 311.963353 178.81066 
L 318.600566 178.81066 
L 318.600566 180.009607 
L 325.237779 180.009607 
L 325.237779 183.625787 
L 331.874992 183.625787 
L 331.874992 184.900857 
L 338.512206 184.900857 
L 338.512206 187.543169 
L 345.149419 187.543169 
L 345.149419 188.872431 
L 358.423845 188.872431 
L 358.423845 191.598258 
L 371.698272 191.598258 
L 371.698272 194.452144 
L 378.335485 194.452144 
L 378.335485 197.306031 
L 384.972698 197.306031 
L 384.972698 200.179736 
L 391.609912 200.179736 
L 391.609912 201.70237 
L 398.247125 201.70237 
L 398.247125 206.448708 
L 411.521551 206.448708 
L 411.521551 211.434357 
L 418.158765 211.434357 
L 418.158765 213.125396 
L 438.070404 213.125396 
L 438.070404 222.138952 
L 444.707618 222.138952 
L 444.707618 223.959691 
L 451.344831 223.959691 
L 451.344831 227.676249 
L 457.982044 227.676249 
L 457.982044 229.595125 
L 471.256471 229.595125 
L 471.256471 231.602224 
L 484.530897 231.602224 
L 484.530897 233.68187 
L 504.442537 233.68187 
L 504.442537 235.986342 
L 530.99139 235.986342 
L 530.99139 238.46026 
L 809.754347 238.46026 
L 809.754347 238.46026 
" clip-path="url(#p7cf0f22fc5)" style="fill: none; stroke: #f27873; stroke-width: 2; stroke-linecap: square"/>
   </g>
   <g id="line2d_33">
    <defs>
     <path id="meff78dffe3" d="M -5 0 
L 5 0 
M 0 5 
L 0 -5 
" style="stroke: #468bca"/>
    </defs>
    <g clip-path="url(#p7cf0f22fc5)">
     <use xlink:href="#meff78dffe3" x="106.209742" y="33.982609" style="fill: #468bca; stroke: #468bca"/>
     <use xlink:href="#meff78dffe3" x="112.846955" y="47.227641" style="fill: #468bca; stroke: #468bca"/>
     <use xlink:href="#meff78dffe3" x="119.484168" y="50.455354" style="fill: #468bca; stroke: #468bca"/>
     <use xlink:href="#meff78dffe3" x="126.121381" y="57.715302" style="fill: #468bca; stroke: #468bca"/>
     <use xlink:href="#meff78dffe3" x="132.758595" y="66.39443" style="fill: #468bca; stroke: #468bca"/>
     <use xlink:href="#meff78dffe3" x="139.395808" y="71.133364" style="fill: #468bca; stroke: #468bca"/>
     <use xlink:href="#meff78dffe3" x="146.033021" y="84.812191" style="fill: #468bca; stroke: #468bca"/>
     <use xlink:href="#meff78dffe3" x="152.670234" y="84.812191" style="fill: #468bca; stroke: #468bca"/>
     <use xlink:href="#meff78dffe3" x="159.307448" y="86.908913" style="fill: #468bca; stroke: #468bca"/>
     <use xlink:href="#meff78dffe3" x="165.944661" y="100.336025" style="fill: #468bca; stroke: #468bca"/>
     <use xlink:href="#meff78dffe3" x="172.581874" y="106.816809" style="fill: #468bca; stroke: #468bca"/>
     <use xlink:href="#meff78dffe3" x="179.219087" y="113.441967" style="fill: #468bca; stroke: #468bca"/>
     <use xlink:href="#meff78dffe3" x="185.856301" y="119.468305" style="fill: #468bca; stroke: #468bca"/>
     <use xlink:href="#meff78dffe3" x="192.493514" y="119.468305" style="fill: #468bca; stroke: #468bca"/>
     <use xlink:href="#meff78dffe3" x="199.130727" y="130.21338" style="fill: #468bca; stroke: #468bca"/>
     <use xlink:href="#meff78dffe3" x="205.76794" y="145.259591" style="fill: #468bca; stroke: #468bca"/>
     <use xlink:href="#meff78dffe3" x="219.042367" y="161.991951" style="fill: #468bca; stroke: #468bca"/>
     <use xlink:href="#meff78dffe3" x="225.67958" y="167.64377" style="fill: #468bca; stroke: #468bca"/>
     <use xlink:href="#meff78dffe3" x="232.316793" y="175.973665" style="fill: #468bca; stroke: #468bca"/>
     <use xlink:href="#meff78dffe3" x="238.954007" y="177.651894" style="fill: #468bca; stroke: #468bca"/>
     <use xlink:href="#meff78dffe3" x="245.59122" y="190.476096" style="fill: #468bca; stroke: #468bca"/>
     <use xlink:href="#meff78dffe3" x="252.228433" y="197.398742" style="fill: #468bca; stroke: #468bca"/>
     <use xlink:href="#meff78dffe3" x="258.865647" y="202.612541" style="fill: #468bca; stroke: #468bca"/>
     <use xlink:href="#meff78dffe3" x="265.50286" y="207.173633" style="fill: #468bca; stroke: #468bca"/>
     <use xlink:href="#meff78dffe3" x="272.140073" y="207.173633" style="fill: #468bca; stroke: #468bca"/>
     <use xlink:href="#meff78dffe3" x="278.777286" y="208.134799" style="fill: #468bca; stroke: #468bca"/>
     <use xlink:href="#meff78dffe3" x="285.4145" y="212.056359" style="fill: #468bca; stroke: #468bca"/>
     <use xlink:href="#meff78dffe3" x="292.051713" y="221.910535" style="fill: #468bca; stroke: #468bca"/>
     <use xlink:href="#meff78dffe3" x="298.688926" y="221.910535" style="fill: #468bca; stroke: #468bca"/>
     <use xlink:href="#meff78dffe3" x="305.326139" y="224.915517" style="fill: #468bca; stroke: #468bca"/>
     <use xlink:href="#meff78dffe3" x="311.963353" y="227.937381" style="fill: #468bca; stroke: #468bca"/>
     <use xlink:href="#meff78dffe3" x="325.237779" y="232.060783" style="fill: #468bca; stroke: #468bca"/>
     <use xlink:href="#meff78dffe3" x="331.874992" y="233.13005" style="fill: #468bca; stroke: #468bca"/>
     <use xlink:href="#meff78dffe3" x="338.512206" y="240.757942" style="fill: #468bca; stroke: #468bca"/>
     <use xlink:href="#meff78dffe3" x="345.149419" y="241.877496" style="fill: #468bca; stroke: #468bca"/>
     <use xlink:href="#meff78dffe3" x="358.423845" y="244.163909" style="fill: #468bca; stroke: #468bca"/>
     <use xlink:href="#meff78dffe3" x="371.698272" y="244.163909" style="fill: #468bca; stroke: #468bca"/>
     <use xlink:href="#meff78dffe3" x="378.335485" y="245.385656" style="fill: #468bca; stroke: #468bca"/>
     <use xlink:href="#meff78dffe3" x="384.972698" y="251.638693" style="fill: #468bca; stroke: #468bca"/>
     <use xlink:href="#meff78dffe3" x="391.609912" y="251.638693" style="fill: #468bca; stroke: #468bca"/>
     <use xlink:href="#meff78dffe3" x="398.247125" y="255.762317" style="fill: #468bca; stroke: #468bca"/>
     <use xlink:href="#meff78dffe3" x="404.884338" y="255.762317" style="fill: #468bca; stroke: #468bca"/>
     <use xlink:href="#meff78dffe3" x="418.158765" y="261.47195" style="fill: #468bca; stroke: #468bca"/>
     <use xlink:href="#meff78dffe3" x="424.795978" y="262.99047" style="fill: #468bca; stroke: #468bca"/>
     <use xlink:href="#meff78dffe3" x="438.070404" y="275.405619" style="fill: #468bca; stroke: #468bca"/>
     <use xlink:href="#meff78dffe3" x="444.707618" y="281.688895" style="fill: #468bca; stroke: #468bca"/>
     <use xlink:href="#meff78dffe3" x="451.344831" y="283.344623" style="fill: #468bca; stroke: #468bca"/>
     <use xlink:href="#meff78dffe3" x="457.982044" y="285.023348" style="fill: #468bca; stroke: #468bca"/>
     <use xlink:href="#meff78dffe3" x="464.619257" y="285.023348" style="fill: #468bca; stroke: #468bca"/>
     <use xlink:href="#meff78dffe3" x="471.256471" y="292.034491" style="fill: #468bca; stroke: #468bca"/>
     <use xlink:href="#meff78dffe3" x="484.530897" y="292.034491" style="fill: #468bca; stroke: #468bca"/>
     <use xlink:href="#meff78dffe3" x="491.16811" y="292.034491" style="fill: #468bca; stroke: #468bca"/>
     <use xlink:href="#meff78dffe3" x="497.805324" y="292.034491" style="fill: #468bca; stroke: #468bca"/>
     <use xlink:href="#meff78dffe3" x="504.442537" y="292.034491" style="fill: #468bca; stroke: #468bca"/>
     <use xlink:href="#meff78dffe3" x="511.07975" y="292.034491" style="fill: #468bca; stroke: #468bca"/>
     <use xlink:href="#meff78dffe3" x="517.716963" y="292.034491" style="fill: #468bca; stroke: #468bca"/>
     <use xlink:href="#meff78dffe3" x="530.99139" y="292.034491" style="fill: #468bca; stroke: #468bca"/>
     <use xlink:href="#meff78dffe3" x="537.628603" y="292.034491" style="fill: #468bca; stroke: #468bca"/>
     <use xlink:href="#meff78dffe3" x="550.90303" y="292.034491" style="fill: #468bca; stroke: #468bca"/>
     <use xlink:href="#meff78dffe3" x="564.177456" y="292.034491" style="fill: #468bca; stroke: #468bca"/>
     <use xlink:href="#meff78dffe3" x="570.814669" y="292.034491" style="fill: #468bca; stroke: #468bca"/>
     <use xlink:href="#meff78dffe3" x="577.451883" y="292.034491" style="fill: #468bca; stroke: #468bca"/>
     <use xlink:href="#meff78dffe3" x="584.089096" y="292.034491" style="fill: #468bca; stroke: #468bca"/>
     <use xlink:href="#meff78dffe3" x="590.726309" y="292.034491" style="fill: #468bca; stroke: #468bca"/>
     <use xlink:href="#meff78dffe3" x="597.363522" y="292.034491" style="fill: #468bca; stroke: #468bca"/>
     <use xlink:href="#meff78dffe3" x="604.000736" y="292.034491" style="fill: #468bca; stroke: #468bca"/>
     <use xlink:href="#meff78dffe3" x="610.637949" y="292.034491" style="fill: #468bca; stroke: #468bca"/>
     <use xlink:href="#meff78dffe3" x="623.912375" y="292.034491" style="fill: #468bca; stroke: #468bca"/>
     <use xlink:href="#meff78dffe3" x="630.549589" y="292.034491" style="fill: #468bca; stroke: #468bca"/>
     <use xlink:href="#meff78dffe3" x="663.735655" y="292.034491" style="fill: #468bca; stroke: #468bca"/>
     <use xlink:href="#meff78dffe3" x="670.372868" y="292.034491" style="fill: #468bca; stroke: #468bca"/>
     <use xlink:href="#meff78dffe3" x="696.921721" y="292.034491" style="fill: #468bca; stroke: #468bca"/>
     <use xlink:href="#meff78dffe3" x="730.107788" y="292.034491" style="fill: #468bca; stroke: #468bca"/>
     <use xlink:href="#meff78dffe3" x="743.382214" y="292.034491" style="fill: #468bca; stroke: #468bca"/>
     <use xlink:href="#meff78dffe3" x="756.656641" y="292.034491" style="fill: #468bca; stroke: #468bca"/>
     <use xlink:href="#meff78dffe3" x="763.293854" y="292.034491" style="fill: #468bca; stroke: #468bca"/>
     <use xlink:href="#meff78dffe3" x="809.754347" y="292.034491" style="fill: #468bca; stroke: #468bca"/>
    </g>
   </g>
   <g id="line2d_34">
    <path d="M 99.572528 26.105371 
L 106.209742 26.105371 
L 106.209742 33.982609 
L 112.846955 33.982609 
L 112.846955 47.227641 
L 119.484168 47.227641 
L 119.484168 50.455354 
L 126.121381 50.455354 
L 126.121381 57.715302 
L 132.758595 57.715302 
L 132.758595 66.39443 
L 139.395808 66.39443 
L 139.395808 71.133364 
L 146.033021 71.133364 
L 146.033021 84.812191 
L 159.307448 84.812191 
L 159.307448 86.908913 
L 165.944661 86.908913 
L 165.944661 100.336025 
L 172.581874 100.336025 
L 172.581874 106.816809 
L 179.219087 106.816809 
L 179.219087 113.441967 
L 185.856301 113.441967 
L 185.856301 119.468305 
L 199.130727 119.468305 
L 199.130727 130.21338 
L 205.76794 130.21338 
L 205.76794 145.259591 
L 212.405154 145.259591 
L 212.405154 148.446707 
L 219.042367 148.446707 
L 219.042367 161.991951 
L 225.67958 161.991951 
L 225.67958 167.64377 
L 232.316793 167.64377 
L 232.316793 175.973665 
L 238.954007 175.973665 
L 238.954007 177.651894 
L 245.59122 177.651894 
L 245.59122 190.476096 
L 252.228433 190.476096 
L 252.228433 197.398742 
L 258.865647 197.398742 
L 258.865647 202.612541 
L 265.50286 202.612541 
L 265.50286 207.173633 
L 278.777286 207.173633 
L 278.777286 208.134799 
L 285.4145 208.134799 
L 285.4145 212.056359 
L 292.051713 212.056359 
L 292.051713 221.910535 
L 305.326139 221.910535 
L 305.326139 224.915517 
L 311.963353 224.915517 
L 311.963353 227.937381 
L 318.600566 227.937381 
L 318.600566 232.060783 
L 331.874992 232.060783 
L 331.874992 233.13005 
L 338.512206 233.13005 
L 338.512206 240.757942 
L 345.149419 240.757942 
L 345.149419 241.877496 
L 358.423845 241.877496 
L 358.423845 244.163909 
L 378.335485 244.163909 
L 378.335485 245.385656 
L 384.972698 245.385656 
L 384.972698 251.638693 
L 398.247125 251.638693 
L 398.247125 255.762317 
L 411.521551 255.762317 
L 411.521551 260.044542 
L 418.158765 260.044542 
L 418.158765 261.47195 
L 424.795978 261.47195 
L 424.795978 262.99047 
L 438.070404 262.99047 
L 438.070404 275.405619 
L 444.707618 275.405619 
L 444.707618 281.688895 
L 451.344831 281.688895 
L 451.344831 283.344623 
L 457.982044 283.344623 
L 457.982044 285.023348 
L 471.256471 285.023348 
L 471.256471 292.034491 
L 809.754347 292.034491 
L 809.754347 292.034491 
" clip-path="url(#p7cf0f22fc5)" style="fill: none; stroke: #468bca; stroke-width: 2; stroke-linecap: square"/>
   </g>
   <g id="line2d_35">
    <defs>
     <path id="m0487141586" d="M -5 0 
L 5 0 
M 0 5 
L 0 -5 
" style="stroke: #7dd2f6"/>
    </defs>
    <g clip-path="url(#p7cf0f22fc5)">
     <use xlink:href="#m0487141586" x="106.209742" y="30.34696" style="fill: #7dd2f6; stroke: #7dd2f6"/>
     <use xlink:href="#m0487141586" x="112.846955" y="37.938145" style="fill: #7dd2f6; stroke: #7dd2f6"/>
     <use xlink:href="#m0487141586" x="119.484168" y="43.793334" style="fill: #7dd2f6; stroke: #7dd2f6"/>
     <use xlink:href="#m0487141586" x="126.121381" y="51.758405" style="fill: #7dd2f6; stroke: #7dd2f6"/>
     <use xlink:href="#m0487141586" x="132.758595" y="58.446344" style="fill: #7dd2f6; stroke: #7dd2f6"/>
     <use xlink:href="#m0487141586" x="139.395808" y="65.846015" style="fill: #7dd2f6; stroke: #7dd2f6"/>
     <use xlink:href="#m0487141586" x="146.033021" y="71.948823" style="fill: #7dd2f6; stroke: #7dd2f6"/>
     <use xlink:href="#m0487141586" x="152.670234" y="78.140077" style="fill: #7dd2f6; stroke: #7dd2f6"/>
     <use xlink:href="#m0487141586" x="159.307448" y="85.755363" style="fill: #7dd2f6; stroke: #7dd2f6"/>
     <use xlink:href="#m0487141586" x="165.944661" y="97.67998" style="fill: #7dd2f6; stroke: #7dd2f6"/>
     <use xlink:href="#m0487141586" x="172.581874" y="99.823566" style="fill: #7dd2f6; stroke: #7dd2f6"/>
     <use xlink:href="#m0487141586" x="179.219087" y="104.933217" style="fill: #7dd2f6; stroke: #7dd2f6"/>
     <use xlink:href="#m0487141586" x="185.856301" y="113.956722" style="fill: #7dd2f6; stroke: #7dd2f6"/>
     <use xlink:href="#m0487141586" x="192.493514" y="121.495841" style="fill: #7dd2f6; stroke: #7dd2f6"/>
     <use xlink:href="#m0487141586" x="199.130727" y="131.565211" style="fill: #7dd2f6; stroke: #7dd2f6"/>
     <use xlink:href="#m0487141586" x="205.76794" y="138.636762" style="fill: #7dd2f6; stroke: #7dd2f6"/>
     <use xlink:href="#m0487141586" x="212.405154" y="146.660207" style="fill: #7dd2f6; stroke: #7dd2f6"/>
     <use xlink:href="#m0487141586" x="219.042367" y="153.26412" style="fill: #7dd2f6; stroke: #7dd2f6"/>
     <use xlink:href="#m0487141586" x="225.67958" y="155.756987" style="fill: #7dd2f6; stroke: #7dd2f6"/>
     <use xlink:href="#m0487141586" x="232.316793" y="161.85941" style="fill: #7dd2f6; stroke: #7dd2f6"/>
     <use xlink:href="#m0487141586" x="238.954007" y="167.108942" style="fill: #7dd2f6; stroke: #7dd2f6"/>
     <use xlink:href="#m0487141586" x="245.59122" y="176.02262" style="fill: #7dd2f6; stroke: #7dd2f6"/>
     <use xlink:href="#m0487141586" x="252.228433" y="186.10331" style="fill: #7dd2f6; stroke: #7dd2f6"/>
     <use xlink:href="#m0487141586" x="258.865647" y="188.875889" style="fill: #7dd2f6; stroke: #7dd2f6"/>
     <use xlink:href="#m0487141586" x="265.50286" y="189.820349" style="fill: #7dd2f6; stroke: #7dd2f6"/>
     <use xlink:href="#m0487141586" x="272.140073" y="190.78608" style="fill: #7dd2f6; stroke: #7dd2f6"/>
     <use xlink:href="#m0487141586" x="278.777286" y="191.783401" style="fill: #7dd2f6; stroke: #7dd2f6"/>
     <use xlink:href="#m0487141586" x="285.4145" y="196.793528" style="fill: #7dd2f6; stroke: #7dd2f6"/>
     <use xlink:href="#m0487141586" x="292.051713" y="205.855535" style="fill: #7dd2f6; stroke: #7dd2f6"/>
     <use xlink:href="#m0487141586" x="298.688926" y="205.855535" style="fill: #7dd2f6; stroke: #7dd2f6"/>
     <use xlink:href="#m0487141586" x="305.326139" y="212.022082" style="fill: #7dd2f6; stroke: #7dd2f6"/>
     <use xlink:href="#m0487141586" x="311.963353" y="219.333685" style="fill: #7dd2f6; stroke: #7dd2f6"/>
     <use xlink:href="#m0487141586" x="318.600566" y="221.483442" style="fill: #7dd2f6; stroke: #7dd2f6"/>
     <use xlink:href="#m0487141586" x="325.237779" y="224.727158" style="fill: #7dd2f6; stroke: #7dd2f6"/>
     <use xlink:href="#m0487141586" x="331.874992" y="226.956793" style="fill: #7dd2f6; stroke: #7dd2f6"/>
     <use xlink:href="#m0487141586" x="338.512206" y="230.387554" style="fill: #7dd2f6; stroke: #7dd2f6"/>
     <use xlink:href="#m0487141586" x="345.149419" y="235.054003" style="fill: #7dd2f6; stroke: #7dd2f6"/>
     <use xlink:href="#m0487141586" x="358.423845" y="241.010299" style="fill: #7dd2f6; stroke: #7dd2f6"/>
     <use xlink:href="#m0487141586" x="365.061059" y="241.010299" style="fill: #7dd2f6; stroke: #7dd2f6"/>
     <use xlink:href="#m0487141586" x="371.698272" y="243.54057" style="fill: #7dd2f6; stroke: #7dd2f6"/>
     <use xlink:href="#m0487141586" x="378.335485" y="244.825947" style="fill: #7dd2f6; stroke: #7dd2f6"/>
     <use xlink:href="#m0487141586" x="384.972698" y="244.825947" style="fill: #7dd2f6; stroke: #7dd2f6"/>
     <use xlink:href="#m0487141586" x="391.609912" y="244.825947" style="fill: #7dd2f6; stroke: #7dd2f6"/>
     <use xlink:href="#m0487141586" x="398.247125" y="244.825947" style="fill: #7dd2f6; stroke: #7dd2f6"/>
     <use xlink:href="#m0487141586" x="404.884338" y="244.825947" style="fill: #7dd2f6; stroke: #7dd2f6"/>
     <use xlink:href="#m0487141586" x="418.158765" y="253.847844" style="fill: #7dd2f6; stroke: #7dd2f6"/>
     <use xlink:href="#m0487141586" x="424.795978" y="255.430633" style="fill: #7dd2f6; stroke: #7dd2f6"/>
     <use xlink:href="#m0487141586" x="438.070404" y="257.065602" style="fill: #7dd2f6; stroke: #7dd2f6"/>
     <use xlink:href="#m0487141586" x="451.344831" y="258.718941" style="fill: #7dd2f6; stroke: #7dd2f6"/>
     <use xlink:href="#m0487141586" x="457.982044" y="260.391284" style="fill: #7dd2f6; stroke: #7dd2f6"/>
     <use xlink:href="#m0487141586" x="464.619257" y="260.391284" style="fill: #7dd2f6; stroke: #7dd2f6"/>
     <use xlink:href="#m0487141586" x="471.256471" y="260.391284" style="fill: #7dd2f6; stroke: #7dd2f6"/>
     <use xlink:href="#m0487141586" x="477.893684" y="260.391284" style="fill: #7dd2f6; stroke: #7dd2f6"/>
     <use xlink:href="#m0487141586" x="484.530897" y="260.391284" style="fill: #7dd2f6; stroke: #7dd2f6"/>
     <use xlink:href="#m0487141586" x="491.16811" y="260.391284" style="fill: #7dd2f6; stroke: #7dd2f6"/>
     <use xlink:href="#m0487141586" x="497.805324" y="260.391284" style="fill: #7dd2f6; stroke: #7dd2f6"/>
     <use xlink:href="#m0487141586" x="504.442537" y="260.391284" style="fill: #7dd2f6; stroke: #7dd2f6"/>
     <use xlink:href="#m0487141586" x="511.07975" y="260.391284" style="fill: #7dd2f6; stroke: #7dd2f6"/>
     <use xlink:href="#m0487141586" x="517.716963" y="260.391284" style="fill: #7dd2f6; stroke: #7dd2f6"/>
     <use xlink:href="#m0487141586" x="530.99139" y="265.266589" style="fill: #7dd2f6; stroke: #7dd2f6"/>
     <use xlink:href="#m0487141586" x="537.628603" y="265.266589" style="fill: #7dd2f6; stroke: #7dd2f6"/>
     <use xlink:href="#m0487141586" x="544.265816" y="265.266589" style="fill: #7dd2f6; stroke: #7dd2f6"/>
     <use xlink:href="#m0487141586" x="550.90303" y="265.266589" style="fill: #7dd2f6; stroke: #7dd2f6"/>
     <use xlink:href="#m0487141586" x="564.177456" y="265.266589" style="fill: #7dd2f6; stroke: #7dd2f6"/>
     <use xlink:href="#m0487141586" x="570.814669" y="265.266589" style="fill: #7dd2f6; stroke: #7dd2f6"/>
     <use xlink:href="#m0487141586" x="577.451883" y="265.266589" style="fill: #7dd2f6; stroke: #7dd2f6"/>
     <use xlink:href="#m0487141586" x="584.089096" y="265.266589" style="fill: #7dd2f6; stroke: #7dd2f6"/>
     <use xlink:href="#m0487141586" x="590.726309" y="265.266589" style="fill: #7dd2f6; stroke: #7dd2f6"/>
     <use xlink:href="#m0487141586" x="597.363522" y="265.266589" style="fill: #7dd2f6; stroke: #7dd2f6"/>
     <use xlink:href="#m0487141586" x="604.000736" y="265.266589" style="fill: #7dd2f6; stroke: #7dd2f6"/>
     <use xlink:href="#m0487141586" x="610.637949" y="265.266589" style="fill: #7dd2f6; stroke: #7dd2f6"/>
     <use xlink:href="#m0487141586" x="623.912375" y="265.266589" style="fill: #7dd2f6; stroke: #7dd2f6"/>
     <use xlink:href="#m0487141586" x="630.549589" y="265.266589" style="fill: #7dd2f6; stroke: #7dd2f6"/>
     <use xlink:href="#m0487141586" x="663.735655" y="265.266589" style="fill: #7dd2f6; stroke: #7dd2f6"/>
     <use xlink:href="#m0487141586" x="670.372868" y="265.266589" style="fill: #7dd2f6; stroke: #7dd2f6"/>
     <use xlink:href="#m0487141586" x="696.921721" y="265.266589" style="fill: #7dd2f6; stroke: #7dd2f6"/>
     <use xlink:href="#m0487141586" x="703.558935" y="265.266589" style="fill: #7dd2f6; stroke: #7dd2f6"/>
     <use xlink:href="#m0487141586" x="730.107788" y="265.266589" style="fill: #7dd2f6; stroke: #7dd2f6"/>
     <use xlink:href="#m0487141586" x="743.382214" y="265.266589" style="fill: #7dd2f6; stroke: #7dd2f6"/>
     <use xlink:href="#m0487141586" x="756.656641" y="265.266589" style="fill: #7dd2f6; stroke: #7dd2f6"/>
     <use xlink:href="#m0487141586" x="763.293854" y="265.266589" style="fill: #7dd2f6; stroke: #7dd2f6"/>
     <use xlink:href="#m0487141586" x="809.754347" y="265.266589" style="fill: #7dd2f6; stroke: #7dd2f6"/>
    </g>
   </g>
   <g id="line2d_36">
    <path d="M 99.572528 26.105371 
L 106.209742 26.105371 
L 106.209742 30.34696 
L 112.846955 30.34696 
L 112.846955 37.938145 
L 119.484168 37.938145 
L 119.484168 43.793334 
L 126.121381 43.793334 
L 126.121381 51.758405 
L 132.758595 51.758405 
L 132.758595 58.446344 
L 139.395808 58.446344 
L 139.395808 65.846015 
L 146.033021 65.846015 
L 146.033021 71.948823 
L 152.670234 71.948823 
L 152.670234 78.140077 
L 159.307448 78.140077 
L 159.307448 85.755363 
L 165.944661 85.755363 
L 165.944661 97.67998 
L 172.581874 97.67998 
L 172.581874 99.823566 
L 179.219087 99.823566 
L 179.219087 104.933217 
L 185.856301 104.933217 
L 185.856301 113.956722 
L 192.493514 113.956722 
L 192.493514 121.495841 
L 199.130727 121.495841 
L 199.130727 131.565211 
L 205.76794 131.565211 
L 205.76794 138.636762 
L 212.405154 138.636762 
L 212.405154 146.660207 
L 219.042367 146.660207 
L 219.042367 153.26412 
L 225.67958 153.26412 
L 225.67958 155.756987 
L 232.316793 155.756987 
L 232.316793 161.85941 
L 238.954007 161.85941 
L 238.954007 167.108942 
L 245.59122 167.108942 
L 245.59122 176.02262 
L 252.228433 176.02262 
L 252.228433 186.10331 
L 258.865647 186.10331 
L 258.865647 188.875889 
L 265.50286 188.875889 
L 265.50286 189.820349 
L 272.140073 189.820349 
L 272.140073 190.78608 
L 278.777286 190.78608 
L 278.777286 191.783401 
L 285.4145 191.783401 
L 285.4145 196.793528 
L 292.051713 196.793528 
L 292.051713 205.855535 
L 305.326139 205.855535 
L 305.326139 212.022082 
L 311.963353 212.022082 
L 311.963353 219.333685 
L 318.600566 219.333685 
L 318.600566 221.483442 
L 325.237779 221.483442 
L 325.237779 224.727158 
L 331.874992 224.727158 
L 331.874992 226.956793 
L 338.512206 226.956793 
L 338.512206 230.387554 
L 345.149419 230.387554 
L 345.149419 235.054003 
L 358.423845 235.054003 
L 358.423845 241.010299 
L 371.698272 241.010299 
L 371.698272 243.54057 
L 378.335485 243.54057 
L 378.335485 244.825947 
L 411.521551 244.825947 
L 411.521551 249.336896 
L 418.158765 249.336896 
L 418.158765 253.847844 
L 424.795978 253.847844 
L 424.795978 255.430633 
L 438.070404 255.430633 
L 438.070404 257.065602 
L 444.707618 257.065602 
L 444.707618 258.718941 
L 457.982044 258.718941 
L 457.982044 260.391284 
L 530.99139 260.391284 
L 530.99139 265.266589 
L 809.754347 265.266589 
L 809.754347 265.266589 
" clip-path="url(#p7cf0f22fc5)" style="fill: none; stroke: #7dd2f6; stroke-width: 2; stroke-linecap: square"/>
   </g>
   <g id="patch_3">
    <path d="M 64.063438 328.591304 
L 64.063438 7.2 
" style="fill: none; stroke: #000000; stroke-width: 1.2; stroke-linejoin: miter; stroke-linecap: square"/>
   </g>
   <g id="patch_4">
    <path d="M 64.063438 328.591304 
L 845.263438 328.591304 
" style="fill: none; stroke: #000000; stroke-width: 1.2; stroke-linejoin: miter; stroke-linecap: square"/>
   </g>
   <g id="text_11">
    <g id="patch_5">
     <path d="M 676.720531 58.895576 
L 829.639437 58.895576 
Q 832.939437 58.895576 832.939437 55.595576 
L 832.939437 13.627826 
Q 832.939437 10.327826 829.639437 10.327826 
L 676.720531 10.327826 
Q 673.420531 10.327826 673.420531 13.627826 
L 673.420531 55.595576 
Q 673.420531 58.895576 676.720531 58.895576 
z
" style="fill: #ffffff; opacity: 0.7"/>
    </g>
    <!-- Overall p = 1.40e-04 -->
    <g transform="translate(714.411 21.986107) scale(0.11 -0.11)">
     <defs>
      <path id="DejaVuSans-4f" d="M 2522 4238 
Q 1834 4238 1429 3725 
Q 1025 3213 1025 2328 
Q 1025 1447 1429 934 
Q 1834 422 2522 422 
Q 3209 422 3611 934 
Q 4013 1447 4013 2328 
Q 4013 3213 3611 3725 
Q 3209 4238 2522 4238 
z
M 2522 4750 
Q 3503 4750 4090 4092 
Q 4678 3434 4678 2328 
Q 4678 1225 4090 567 
Q 3503 -91 2522 -91 
Q 1538 -91 948 565 
Q 359 1222 359 2328 
Q 359 3434 948 4092 
Q 1538 4750 2522 4750 
z
" transform="scale(0.015625)"/>
      <path id="DejaVuSans-65" d="M 3597 1894 
L 3597 1613 
L 953 1613 
Q 991 1019 1311 708 
Q 1631 397 2203 397 
Q 2534 397 2845 478 
Q 3156 559 3463 722 
L 3463 178 
Q 3153 47 2828 -22 
Q 2503 -91 2169 -91 
Q 1331 -91 842 396 
Q 353 884 353 1716 
Q 353 2575 817 3079 
Q 1281 3584 2069 3584 
Q 2775 3584 3186 3129 
Q 3597 2675 3597 1894 
z
M 3022 2063 
Q 3016 2534 2758 2815 
Q 2500 3097 2075 3097 
Q 1594 3097 1305 2825 
Q 1016 2553 972 2059 
L 3022 2063 
z
" transform="scale(0.015625)"/>
      <path id="DejaVuSans-3d" d="M 678 2906 
L 4684 2906 
L 4684 2381 
L 678 2381 
L 678 2906 
z
M 678 1631 
L 4684 1631 
L 4684 1100 
L 678 1100 
L 678 1631 
z
" transform="scale(0.015625)"/>
      <path id="DejaVuSans-2d" d="M 313 2009 
L 1997 2009 
L 1997 1497 
L 313 1497 
L 313 2009 
z
" transform="scale(0.015625)"/>
     </defs>
     <use xlink:href="#DejaVuSans-4f"/>
     <use xlink:href="#DejaVuSans-76" transform="translate(78.710938 0)"/>
     <use xlink:href="#DejaVuSans-65" transform="translate(137.890625 0)"/>
     <use xlink:href="#DejaVuSans-72" transform="translate(199.414062 0)"/>
     <use xlink:href="#DejaVuSans-61" transform="translate(240.527344 0)"/>
     <use xlink:href="#DejaVuSans-6c" transform="translate(301.806641 0)"/>
     <use xlink:href="#DejaVuSans-6c" transform="translate(329.589844 0)"/>
     <use xlink:href="#DejaVuSans-20" transform="translate(357.373047 0)"/>
     <use xlink:href="#DejaVuSans-70" transform="translate(389.160156 0)"/>
     <use xlink:href="#DejaVuSans-20" transform="translate(452.636719 0)"/>
     <use xlink:href="#DejaVuSans-3d" transform="translate(484.423828 0)"/>
     <use xlink:href="#DejaVuSans-20" transform="translate(568.212891 0)"/>
     <use xlink:href="#DejaVuSans-31" transform="translate(600 0)"/>
     <use xlink:href="#DejaVuSans-2e" transform="translate(663.623047 0)"/>
     <use xlink:href="#DejaVuSans-34" transform="translate(695.410156 0)"/>
     <use xlink:href="#DejaVuSans-30" transform="translate(759.033203 0)"/>
     <use xlink:href="#DejaVuSans-65" transform="translate(822.65625 0)"/>
     <use xlink:href="#DejaVuSans-2d" transform="translate(884.179688 0)"/>
     <use xlink:href="#DejaVuSans-30" transform="translate(920.263672 0)"/>
     <use xlink:href="#DejaVuSans-34" transform="translate(983.886719 0)"/>
    </g>
    <!-- OURS vs BCLC: p=2.68e-05 -->
    <g transform="translate(677.595375 37.647014) scale(0.11 -0.11)">
     <defs>
      <path id="DejaVuSans-55" d="M 556 4666 
L 1191 4666 
L 1191 1831 
Q 1191 1081 1462 751 
Q 1734 422 2344 422 
Q 2950 422 3222 751 
Q 3494 1081 3494 1831 
L 3494 4666 
L 4128 4666 
L 4128 1753 
Q 4128 841 3676 375 
Q 3225 -91 2344 -91 
Q 1459 -91 1007 375 
Q 556 841 556 1753 
L 556 4666 
z
" transform="scale(0.015625)"/>
      <path id="DejaVuSans-52" d="M 2841 2188 
Q 3044 2119 3236 1894 
Q 3428 1669 3622 1275 
L 4263 0 
L 3584 0 
L 2988 1197 
Q 2756 1666 2539 1819 
Q 2322 1972 1947 1972 
L 1259 1972 
L 1259 0 
L 628 0 
L 628 4666 
L 2053 4666 
Q 2853 4666 3247 4331 
Q 3641 3997 3641 3322 
Q 3641 2881 3436 2590 
Q 3231 2300 2841 2188 
z
M 1259 4147 
L 1259 2491 
L 2053 2491 
Q 2509 2491 2742 2702 
Q 2975 2913 2975 3322 
Q 2975 3731 2742 3939 
Q 2509 4147 2053 4147 
L 1259 4147 
z
" transform="scale(0.015625)"/>
      <path id="DejaVuSans-73" d="M 2834 3397 
L 2834 2853 
Q 2591 2978 2328 3040 
Q 2066 3103 1784 3103 
Q 1356 3103 1142 2972 
Q 928 2841 928 2578 
Q 928 2378 1081 2264 
Q 1234 2150 1697 2047 
L 1894 2003 
Q 2506 1872 2764 1633 
Q 3022 1394 3022 966 
Q 3022 478 2636 193 
Q 2250 -91 1575 -91 
Q 1294 -91 989 -36 
Q 684 19 347 128 
L 347 722 
Q 666 556 975 473 
Q 1284 391 1588 391 
Q 1994 391 2212 530 
Q 2431 669 2431 922 
Q 2431 1156 2273 1281 
Q 2116 1406 1581 1522 
L 1381 1569 
Q 847 1681 609 1914 
Q 372 2147 372 2553 
Q 372 3047 722 3315 
Q 1072 3584 1716 3584 
Q 2034 3584 2315 3537 
Q 2597 3491 2834 3397 
z
" transform="scale(0.015625)"/>
      <path id="DejaVuSans-42" d="M 1259 2228 
L 1259 519 
L 2272 519 
Q 2781 519 3026 730 
Q 3272 941 3272 1375 
Q 3272 1813 3026 2020 
Q 2781 2228 2272 2228 
L 1259 2228 
z
M 1259 4147 
L 1259 2741 
L 2194 2741 
Q 2656 2741 2882 2914 
Q 3109 3088 3109 3444 
Q 3109 3797 2882 3972 
Q 2656 4147 2194 4147 
L 1259 4147 
z
M 628 4666 
L 2241 4666 
Q 2963 4666 3353 4366 
Q 3744 4066 3744 3513 
Q 3744 3084 3544 2831 
Q 3344 2578 2956 2516 
Q 3422 2416 3680 2098 
Q 3938 1781 3938 1306 
Q 3938 681 3513 340 
Q 3088 0 2303 0 
L 628 0 
L 628 4666 
z
" transform="scale(0.015625)"/>
      <path id="DejaVuSans-43" d="M 4122 4306 
L 4122 3641 
Q 3803 3938 3442 4084 
Q 3081 4231 2675 4231 
Q 1875 4231 1450 3742 
Q 1025 3253 1025 2328 
Q 1025 1406 1450 917 
Q 1875 428 2675 428 
Q 3081 428 3442 575 
Q 3803 722 4122 1019 
L 4122 359 
Q 3791 134 3420 21 
Q 3050 -91 2638 -91 
Q 1578 -91 968 557 
Q 359 1206 359 2328 
Q 359 3453 968 4101 
Q 1578 4750 2638 4750 
Q 3056 4750 3426 4639 
Q 3797 4528 4122 4306 
z
" transform="scale(0.015625)"/>
      <path id="DejaVuSans-4c" d="M 628 4666 
L 1259 4666 
L 1259 531 
L 3531 531 
L 3531 0 
L 628 0 
L 628 4666 
z
" transform="scale(0.015625)"/>
      <path id="DejaVuSans-3a" d="M 750 794 
L 1409 794 
L 1409 0 
L 750 0 
L 750 794 
z
M 750 3309 
L 1409 3309 
L 1409 2516 
L 750 2516 
L 750 3309 
z
" transform="scale(0.015625)"/>
     </defs>
     <use xlink:href="#DejaVuSans-4f"/>
     <use xlink:href="#DejaVuSans-55" transform="translate(78.710938 0)"/>
     <use xlink:href="#DejaVuSans-52" transform="translate(151.904297 0)"/>
     <use xlink:href="#DejaVuSans-53" transform="translate(221.386719 0)"/>
     <use xlink:href="#DejaVuSans-20" transform="translate(284.863281 0)"/>
     <use xlink:href="#DejaVuSans-76" transform="translate(316.650391 0)"/>
     <use xlink:href="#DejaVuSans-73" transform="translate(375.830078 0)"/>
     <use xlink:href="#DejaVuSans-20" transform="translate(427.929688 0)"/>
     <use xlink:href="#DejaVuSans-42" transform="translate(459.716797 0)"/>
     <use xlink:href="#DejaVuSans-43" transform="translate(526.570312 0)"/>
     <use xlink:href="#DejaVuSans-4c" transform="translate(596.394531 0)"/>
     <use xlink:href="#DejaVuSans-43" transform="translate(652.107422 0)"/>
     <use xlink:href="#DejaVuSans-3a" transform="translate(721.931641 0)"/>
     <use xlink:href="#DejaVuSans-20" transform="translate(755.623047 0)"/>
     <use xlink:href="#DejaVuSans-70" transform="translate(787.410156 0)"/>
     <use xlink:href="#DejaVuSans-3d" transform="translate(850.886719 0)"/>
     <use xlink:href="#DejaVuSans-32" transform="translate(934.675781 0)"/>
     <use xlink:href="#DejaVuSans-2e" transform="translate(998.298828 0)"/>
     <use xlink:href="#DejaVuSans-36" transform="translate(1030.085938 0)"/>
     <use xlink:href="#DejaVuSans-38" transform="translate(1093.708984 0)"/>
     <use xlink:href="#DejaVuSans-65" transform="translate(1157.332031 0)"/>
     <use xlink:href="#DejaVuSans-2d" transform="translate(1218.855469 0)"/>
     <use xlink:href="#DejaVuSans-30" transform="translate(1254.939453 0)"/>
     <use xlink:href="#DejaVuSans-35" transform="translate(1318.5625 0)"/>
    </g>
    <!-- OURS vs CNLC: p=6.57e-03 -->
    <g transform="translate(676.720531 53.30792) scale(0.11 -0.11)">
     <defs>
      <path id="DejaVuSans-4e" d="M 628 4666 
L 1478 4666 
L 3547 763 
L 3547 4666 
L 4159 4666 
L 4159 0 
L 3309 0 
L 1241 3903 
L 1241 0 
L 628 0 
L 628 4666 
z
" transform="scale(0.015625)"/>
     </defs>
     <use xlink:href="#DejaVuSans-4f"/>
     <use xlink:href="#DejaVuSans-55" transform="translate(78.710938 0)"/>
     <use xlink:href="#DejaVuSans-52" transform="translate(151.904297 0)"/>
     <use xlink:href="#DejaVuSans-53" transform="translate(221.386719 0)"/>
     <use xlink:href="#DejaVuSans-20" transform="translate(284.863281 0)"/>
     <use xlink:href="#DejaVuSans-76" transform="translate(316.650391 0)"/>
     <use xlink:href="#DejaVuSans-73" transform="translate(375.830078 0)"/>
     <use xlink:href="#DejaVuSans-20" transform="translate(427.929688 0)"/>
     <use xlink:href="#DejaVuSans-43" transform="translate(459.716797 0)"/>
     <use xlink:href="#DejaVuSans-4e" transform="translate(529.541016 0)"/>
     <use xlink:href="#DejaVuSans-4c" transform="translate(604.345703 0)"/>
     <use xlink:href="#DejaVuSans-43" transform="translate(660.058594 0)"/>
     <use xlink:href="#DejaVuSans-3a" transform="translate(729.882812 0)"/>
     <use xlink:href="#DejaVuSans-20" transform="translate(763.574219 0)"/>
     <use xlink:href="#DejaVuSans-70" transform="translate(795.361328 0)"/>
     <use xlink:href="#DejaVuSans-3d" transform="translate(858.837891 0)"/>
     <use xlink:href="#DejaVuSans-36" transform="translate(942.626953 0)"/>
     <use xlink:href="#DejaVuSans-2e" transform="translate(1006.25 0)"/>
     <use xlink:href="#DejaVuSans-35" transform="translate(1038.037109 0)"/>
     <use xlink:href="#DejaVuSans-37" transform="translate(1101.660156 0)"/>
     <use xlink:href="#DejaVuSans-65" transform="translate(1165.283203 0)"/>
     <use xlink:href="#DejaVuSans-2d" transform="translate(1226.806641 0)"/>
     <use xlink:href="#DejaVuSans-30" transform="translate(1262.890625 0)"/>
     <use xlink:href="#DejaVuSans-33" transform="translate(1326.513672 0)"/>
    </g>
   </g>
   <g id="legend_1">
    <g id="line2d_37">
     <path d="M 78.063438 279.655367 
L 88.063438 279.655367 
L 98.063438 279.655367 
" style="fill: none; stroke: #f27873; stroke-width: 2; stroke-linecap: round"/>
    </g>
    <g id="text_12">
     <!-- OURS -->
     <g transform="translate(106.063438 283.155367) scale(0.1 -0.1)">
      <use xlink:href="#DejaVuSans-4f"/>
      <use xlink:href="#DejaVuSans-55" transform="translate(78.710938 0)"/>
      <use xlink:href="#DejaVuSans-52" transform="translate(151.904297 0)"/>
      <use xlink:href="#DejaVuSans-53" transform="translate(221.386719 0)"/>
     </g>
    </g>
    <g id="line2d_38">
     <path d="M 78.063438 294.333492 
L 88.063438 294.333492 
L 98.063438 294.333492 
" style="fill: none; stroke: #468bca; stroke-width: 2; stroke-linecap: round"/>
    </g>
    <g id="text_13">
     <!-- BCLC -->
     <g transform="translate(106.063438 297.833492) scale(0.1 -0.1)">
      <use xlink:href="#DejaVuSans-42"/>
      <use xlink:href="#DejaVuSans-43" transform="translate(66.853516 0)"/>
      <use xlink:href="#DejaVuSans-4c" transform="translate(136.677734 0)"/>
      <use xlink:href="#DejaVuSans-43" transform="translate(192.390625 0)"/>
     </g>
    </g>
    <g id="line2d_39">
     <path d="M 78.063438 309.011617 
L 88.063438 309.011617 
L 98.063438 309.011617 
" style="fill: none; stroke: #7dd2f6; stroke-width: 2; stroke-linecap: round"/>
    </g>
    <g id="text_14">
     <!-- CNLC -->
     <g transform="translate(106.063438 312.511617) scale(0.1 -0.1)">
      <use xlink:href="#DejaVuSans-43"/>
      <use xlink:href="#DejaVuSans-4e" transform="translate(69.824219 0)"/>
      <use xlink:href="#DejaVuSans-4c" transform="translate(144.628906 0)"/>
      <use xlink:href="#DejaVuSans-43" transform="translate(200.341797 0)"/>
     </g>
    </g>
   </g>
  </g>
  <g id="axes_2">
   <g id="patch_6">
    <path d="M 64.063438 395.28 
L 845.263438 395.28 
L 845.263438 341.714783 
L 64.063438 341.714783 
z
" style="fill: #ffffff"/>
   </g>
   <g id="matplotlib.axis_3">
    <g id="xtick_13">
     <g id="line2d_40">
      <g>
       <use xlink:href="#m6cfa333551" x="99.572528" y="395.28" style="stroke: #000000"/>
      </g>
     </g>
     <g id="text_15">
      <!-- 0 -->
      <g transform="translate(96.391278 406.378437) scale(0.1 -0.1)">
       <use xlink:href="#DejaVuSans-30"/>
      </g>
     </g>
    </g>
    <g id="xtick_14">
     <g id="line2d_41">
      <g>
       <use xlink:href="#m6cfa333551" x="199.130727" y="395.28" style="stroke: #000000"/>
      </g>
     </g>
     <g id="text_16">
      <!-- 15 -->
      <g transform="translate(192.768227 406.378437) scale(0.1 -0.1)">
       <use xlink:href="#DejaVuSans-31"/>
       <use xlink:href="#DejaVuSans-35" transform="translate(63.623047 0)"/>
      </g>
     </g>
    </g>
    <g id="xtick_15">
     <g id="line2d_42">
      <g>
       <use xlink:href="#m6cfa333551" x="298.688926" y="395.28" style="stroke: #000000"/>
      </g>
     </g>
     <g id="text_17">
      <!-- 30 -->
      <g transform="translate(292.326426 406.378437) scale(0.1 -0.1)">
       <use xlink:href="#DejaVuSans-33"/>
       <use xlink:href="#DejaVuSans-30" transform="translate(63.623047 0)"/>
      </g>
     </g>
    </g>
    <g id="xtick_16">
     <g id="line2d_43">
      <g>
       <use xlink:href="#m6cfa333551" x="398.247125" y="395.28" style="stroke: #000000"/>
      </g>
     </g>
     <g id="text_18">
      <!-- 45 -->
      <g transform="translate(391.884625 406.378437) scale(0.1 -0.1)">
       <use xlink:href="#DejaVuSans-34"/>
       <use xlink:href="#DejaVuSans-35" transform="translate(63.623047 0)"/>
      </g>
     </g>
    </g>
    <g id="xtick_17">
     <g id="line2d_44">
      <g>
       <use xlink:href="#m6cfa333551" x="497.805324" y="395.28" style="stroke: #000000"/>
      </g>
     </g>
     <g id="text_19">
      <!-- 60 -->
      <g transform="translate(491.442824 406.378437) scale(0.1 -0.1)">
       <use xlink:href="#DejaVuSans-36"/>
       <use xlink:href="#DejaVuSans-30" transform="translate(63.623047 0)"/>
      </g>
     </g>
    </g>
    <g id="xtick_18">
     <g id="line2d_45">
      <g>
       <use xlink:href="#m6cfa333551" x="597.363522" y="395.28" style="stroke: #000000"/>
      </g>
     </g>
     <g id="text_20">
      <!-- 75 -->
      <g transform="translate(591.001022 406.378437) scale(0.1 -0.1)">
       <use xlink:href="#DejaVuSans-37"/>
       <use xlink:href="#DejaVuSans-35" transform="translate(63.623047 0)"/>
      </g>
     </g>
    </g>
    <g id="xtick_19">
     <g id="line2d_46">
      <g>
       <use xlink:href="#m6cfa333551" x="696.921721" y="395.28" style="stroke: #000000"/>
      </g>
     </g>
     <g id="text_21">
      <!-- 90 -->
      <g transform="translate(690.559221 406.378437) scale(0.1 -0.1)">
       <use xlink:href="#DejaVuSans-39"/>
       <use xlink:href="#DejaVuSans-30" transform="translate(63.623047 0)"/>
      </g>
     </g>
    </g>
    <g id="xtick_20">
     <g id="line2d_47">
      <g>
       <use xlink:href="#m6cfa333551" x="796.47992" y="395.28" style="stroke: #000000"/>
      </g>
     </g>
     <g id="text_22">
      <!-- 105 -->
      <g transform="translate(786.93617 406.378437) scale(0.1 -0.1)">
       <use xlink:href="#DejaVuSans-31"/>
       <use xlink:href="#DejaVuSans-30" transform="translate(63.623047 0)"/>
       <use xlink:href="#DejaVuSans-35" transform="translate(127.246094 0)"/>
      </g>
     </g>
    </g>
    <g id="xtick_21">
     <g id="line2d_48">
      <g>
       <use xlink:href="#m6cfa333551" x="232.316793" y="395.28" style="stroke: #000000"/>
      </g>
     </g>
    </g>
    <g id="xtick_22">
     <g id="line2d_49">
      <g>
       <use xlink:href="#m6cfa333551" x="365.061059" y="395.28" style="stroke: #000000"/>
      </g>
     </g>
    </g>
    <g id="xtick_23">
     <g id="line2d_50">
      <g>
       <use xlink:href="#m6cfa333551" x="630.549589" y="395.28" style="stroke: #000000"/>
      </g>
     </g>
    </g>
    <g id="xtick_24">
     <g id="line2d_51">
      <g>
       <use xlink:href="#m6cfa333551" x="763.293854" y="395.28" style="stroke: #000000"/>
      </g>
     </g>
    </g>
    <g id="text_23">
     <!-- Time (months) -->
     <g transform="translate(410.795938 421.57625) scale(0.12 -0.12)">
      <defs>
       <path id="DejaVuSans-54" d="M -19 4666 
L 3928 4666 
L 3928 4134 
L 2272 4134 
L 2272 0 
L 1638 0 
L 1638 4134 
L -19 4134 
L -19 4666 
z
" transform="scale(0.015625)"/>
       <path id="DejaVuSans-6d" d="M 3328 2828 
Q 3544 3216 3844 3400 
Q 4144 3584 4550 3584 
Q 5097 3584 5394 3201 
Q 5691 2819 5691 2113 
L 5691 0 
L 5113 0 
L 5113 2094 
Q 5113 2597 4934 2840 
Q 4756 3084 4391 3084 
Q 3944 3084 3684 2787 
Q 3425 2491 3425 1978 
L 3425 0 
L 2847 0 
L 2847 2094 
Q 2847 2600 2669 2842 
Q 2491 3084 2119 3084 
Q 1678 3084 1418 2786 
Q 1159 2488 1159 1978 
L 1159 0 
L 581 0 
L 581 3500 
L 1159 3500 
L 1159 2956 
Q 1356 3278 1631 3431 
Q 1906 3584 2284 3584 
Q 2666 3584 2933 3390 
Q 3200 3197 3328 2828 
z
" transform="scale(0.015625)"/>
       <path id="DejaVuSans-28" d="M 1984 4856 
Q 1566 4138 1362 3434 
Q 1159 2731 1159 2009 
Q 1159 1288 1364 580 
Q 1569 -128 1984 -844 
L 1484 -844 
Q 1016 -109 783 600 
Q 550 1309 550 2009 
Q 550 2706 781 3412 
Q 1013 4119 1484 4856 
L 1984 4856 
z
" transform="scale(0.015625)"/>
       <path id="DejaVuSans-6e" d="M 3513 2113 
L 3513 0 
L 2938 0 
L 2938 2094 
Q 2938 2591 2744 2837 
Q 2550 3084 2163 3084 
Q 1697 3084 1428 2787 
Q 1159 2491 1159 1978 
L 1159 0 
L 581 0 
L 581 3500 
L 1159 3500 
L 1159 2956 
Q 1366 3272 1645 3428 
Q 1925 3584 2291 3584 
Q 2894 3584 3203 3211 
Q 3513 2838 3513 2113 
z
" transform="scale(0.015625)"/>
       <path id="DejaVuSans-68" d="M 3513 2113 
L 3513 0 
L 2938 0 
L 2938 2094 
Q 2938 2591 2744 2837 
Q 2550 3084 2163 3084 
Q 1697 3084 1428 2787 
Q 1159 2491 1159 1978 
L 1159 0 
L 581 0 
L 581 4863 
L 1159 4863 
L 1159 2956 
Q 1366 3272 1645 3428 
Q 1925 3584 2291 3584 
Q 2894 3584 3203 3211 
Q 3513 2838 3513 2113 
z
" transform="scale(0.015625)"/>
       <path id="DejaVuSans-29" d="M 513 4856 
L 1013 4856 
Q 1481 4119 1714 3412 
Q 1947 2706 1947 2009 
Q 1947 1309 1714 600 
Q 1481 -109 1013 -844 
L 513 -844 
Q 928 -128 1133 580 
Q 1338 1288 1338 2009 
Q 1338 2731 1133 3434 
Q 928 4138 513 4856 
z
" transform="scale(0.015625)"/>
      </defs>
      <use xlink:href="#DejaVuSans-54"/>
      <use xlink:href="#DejaVuSans-69" transform="translate(57.958984 0)"/>
      <use xlink:href="#DejaVuSans-6d" transform="translate(85.742188 0)"/>
      <use xlink:href="#DejaVuSans-65" transform="translate(183.154297 0)"/>
      <use xlink:href="#DejaVuSans-20" transform="translate(244.677734 0)"/>
      <use xlink:href="#DejaVuSans-28" transform="translate(276.464844 0)"/>
      <use xlink:href="#DejaVuSans-6d" transform="translate(315.478516 0)"/>
      <use xlink:href="#DejaVuSans-6f" transform="translate(412.890625 0)"/>
      <use xlink:href="#DejaVuSans-6e" transform="translate(474.072266 0)"/>
      <use xlink:href="#DejaVuSans-74" transform="translate(537.451172 0)"/>
      <use xlink:href="#DejaVuSans-68" transform="translate(576.660156 0)"/>
      <use xlink:href="#DejaVuSans-73" transform="translate(640.039062 0)"/>
      <use xlink:href="#DejaVuSans-29" transform="translate(692.138672 0)"/>
     </g>
    </g>
   </g>
   <g id="matplotlib.axis_4">
    <g id="ytick_10">
     <g id="line2d_52">
      <g>
       <use xlink:href="#m22d30d756f" x="64.063438" y="348.594719" style="stroke: #000000"/>
      </g>
     </g>
     <g id="text_24">
      <!-- OURS -->
      <g transform="translate(32.075938 352.393938) scale(0.1 -0.1)">
       <use xlink:href="#DejaVuSans-4f"/>
       <use xlink:href="#DejaVuSans-55" transform="translate(78.710938 0)"/>
       <use xlink:href="#DejaVuSans-52" transform="translate(151.904297 0)"/>
       <use xlink:href="#DejaVuSans-53" transform="translate(221.386719 0)"/>
      </g>
     </g>
    </g>
    <g id="ytick_11">
     <g id="line2d_53">
      <g>
       <use xlink:href="#m22d30d756f" x="64.063438" y="365.794559" style="stroke: #000000"/>
      </g>
     </g>
     <g id="text_25">
      <!-- BCLC -->
      <g transform="translate(34.34 369.593778) scale(0.1 -0.1)">
       <use xlink:href="#DejaVuSans-42"/>
       <use xlink:href="#DejaVuSans-43" transform="translate(66.853516 0)"/>
       <use xlink:href="#DejaVuSans-4c" transform="translate(136.677734 0)"/>
       <use xlink:href="#DejaVuSans-43" transform="translate(192.390625 0)"/>
      </g>
     </g>
    </g>
    <g id="ytick_12">
     <g id="line2d_54">
      <g>
       <use xlink:href="#m22d30d756f" x="64.063438" y="382.9944" style="stroke: #000000"/>
      </g>
     </g>
     <g id="text_26">
      <!-- CNLC -->
      <g transform="translate(33.544688 386.793618) scale(0.1 -0.1)">
       <use xlink:href="#DejaVuSans-43"/>
       <use xlink:href="#DejaVuSans-4e" transform="translate(69.824219 0)"/>
       <use xlink:href="#DejaVuSans-4c" transform="translate(144.628906 0)"/>
       <use xlink:href="#DejaVuSans-43" transform="translate(200.341797 0)"/>
      </g>
     </g>
    </g>
    <g id="text_27">
     <!-- Number -->
     <g transform="translate(14.798438 388.583329) rotate(-90) scale(0.1 -0.1)">
      <use xlink:href="#DejaVuSans-4e"/>
      <use xlink:href="#DejaVuSans-75" transform="translate(74.804688 0)"/>
      <use xlink:href="#DejaVuSans-6d" transform="translate(138.183594 0)"/>
      <use xlink:href="#DejaVuSans-62" transform="translate(235.595703 0)"/>
      <use xlink:href="#DejaVuSans-65" transform="translate(299.072266 0)"/>
      <use xlink:href="#DejaVuSans-72" transform="translate(360.595703 0)"/>
     </g>
     <!-- at risk -->
     <g transform="translate(25.99625 384.055204) rotate(-90) scale(0.1 -0.1)">
      <defs>
       <path id="DejaVuSans-6b" d="M 581 4863 
L 1159 4863 
L 1159 1991 
L 2875 3500 
L 3609 3500 
L 1753 1863 
L 3688 0 
L 2938 0 
L 1159 1709 
L 1159 0 
L 581 0 
L 581 4863 
z
" transform="scale(0.015625)"/>
      </defs>
      <use xlink:href="#DejaVuSans-61"/>
      <use xlink:href="#DejaVuSans-74" transform="translate(61.279297 0)"/>
      <use xlink:href="#DejaVuSans-20" transform="translate(100.488281 0)"/>
      <use xlink:href="#DejaVuSans-72" transform="translate(132.275391 0)"/>
      <use xlink:href="#DejaVuSans-69" transform="translate(173.388672 0)"/>
      <use xlink:href="#DejaVuSans-73" transform="translate(201.171875 0)"/>
      <use xlink:href="#DejaVuSans-6b" transform="translate(253.271484 0)"/>
     </g>
    </g>
   </g>
   <g id="patch_7">
    <path d="M 64.063438 395.28 
L 64.063438 341.714783 
" style="fill: none; stroke: #000000; stroke-width: 1.2; stroke-linejoin: miter; stroke-linecap: square"/>
   </g>
   <g id="patch_8">
    <path d="M 64.063438 395.28 
L 845.263438 395.28 
" style="fill: none; stroke: #000000; stroke-width: 1.2; stroke-linejoin: miter; stroke-linecap: square"/>
   </g>
   <g id="text_28">
    <!-- 624 -->
    <g style="fill: #f27873" transform="translate(90.028778 351.354094) scale(0.1 -0.1)">
     <use xlink:href="#DejaVuSans-36"/>
     <use xlink:href="#DejaVuSans-32" transform="translate(63.623047 0)"/>
     <use xlink:href="#DejaVuSans-34" transform="translate(127.246094 0)"/>
    </g>
   </g>
   <g id="text_29">
    <!-- 430 -->
    <g style="fill: #f27873" transform="translate(169.675337 351.354094) scale(0.1 -0.1)">
     <use xlink:href="#DejaVuSans-34"/>
     <use xlink:href="#DejaVuSans-33" transform="translate(63.623047 0)"/>
     <use xlink:href="#DejaVuSans-30" transform="translate(127.246094 0)"/>
    </g>
   </g>
   <g id="text_30">
    <!-- 259 -->
    <g style="fill: #f27873" transform="translate(249.321897 351.354094) scale(0.1 -0.1)">
     <use xlink:href="#DejaVuSans-32"/>
     <use xlink:href="#DejaVuSans-35" transform="translate(63.623047 0)"/>
     <use xlink:href="#DejaVuSans-39" transform="translate(127.246094 0)"/>
    </g>
   </g>
   <g id="text_31">
    <!-- 166 -->
    <g style="fill: #f27873" transform="translate(328.968456 351.354094) scale(0.1 -0.1)">
     <use xlink:href="#DejaVuSans-31"/>
     <use xlink:href="#DejaVuSans-36" transform="translate(63.623047 0)"/>
     <use xlink:href="#DejaVuSans-36" transform="translate(127.246094 0)"/>
    </g>
   </g>
   <g id="text_32">
    <!-- 114 -->
    <g style="fill: #f27873" transform="translate(408.615015 351.354094) scale(0.1 -0.1)">
     <use xlink:href="#DejaVuSans-31"/>
     <use xlink:href="#DejaVuSans-31" transform="translate(63.623047 0)"/>
     <use xlink:href="#DejaVuSans-34" transform="translate(127.246094 0)"/>
    </g>
   </g>
   <g id="text_33">
    <!-- 80 -->
    <g style="fill: #f27873" transform="translate(491.442824 351.354094) scale(0.1 -0.1)">
     <use xlink:href="#DejaVuSans-38"/>
     <use xlink:href="#DejaVuSans-30" transform="translate(63.623047 0)"/>
    </g>
   </g>
   <g id="text_34">
    <!-- 48 -->
    <g style="fill: #f27873" transform="translate(571.089383 351.354094) scale(0.1 -0.1)">
     <use xlink:href="#DejaVuSans-34"/>
     <use xlink:href="#DejaVuSans-38" transform="translate(63.623047 0)"/>
    </g>
   </g>
   <g id="text_35">
    <!-- 22 -->
    <g style="fill: #f27873" transform="translate(650.735942 351.354094) scale(0.1 -0.1)">
     <use xlink:href="#DejaVuSans-32"/>
     <use xlink:href="#DejaVuSans-32" transform="translate(63.623047 0)"/>
    </g>
   </g>
   <g id="text_36">
    <!-- 6 -->
    <g style="fill: #f27873" transform="translate(733.563751 351.354094) scale(0.1 -0.1)">
     <use xlink:href="#DejaVuSans-36"/>
    </g>
   </g>
   <g id="text_37">
    <!-- 1 -->
    <g style="fill: #f27873" transform="translate(806.573097 351.354094) scale(0.1 -0.1)">
     <use xlink:href="#DejaVuSans-31"/>
    </g>
   </g>
   <g id="text_38">
    <!-- 624 -->
    <g style="fill: #468bca" transform="translate(90.028778 368.553934) scale(0.1 -0.1)">
     <use xlink:href="#DejaVuSans-36"/>
     <use xlink:href="#DejaVuSans-32" transform="translate(63.623047 0)"/>
     <use xlink:href="#DejaVuSans-34" transform="translate(127.246094 0)"/>
    </g>
   </g>
   <g id="text_39">
    <!-- 404 -->
    <g style="fill: #468bca" transform="translate(169.675337 368.553934) scale(0.1 -0.1)">
     <use xlink:href="#DejaVuSans-34"/>
     <use xlink:href="#DejaVuSans-30" transform="translate(63.623047 0)"/>
     <use xlink:href="#DejaVuSans-34" transform="translate(127.246094 0)"/>
    </g>
   </g>
   <g id="text_40">
    <!-- 238 -->
    <g style="fill: #468bca" transform="translate(249.321897 368.553934) scale(0.1 -0.1)">
     <use xlink:href="#DejaVuSans-32"/>
     <use xlink:href="#DejaVuSans-33" transform="translate(63.623047 0)"/>
     <use xlink:href="#DejaVuSans-38" transform="translate(127.246094 0)"/>
    </g>
   </g>
   <g id="text_41">
    <!-- 157 -->
    <g style="fill: #468bca" transform="translate(328.968456 368.553934) scale(0.1 -0.1)">
     <use xlink:href="#DejaVuSans-31"/>
     <use xlink:href="#DejaVuSans-35" transform="translate(63.623047 0)"/>
     <use xlink:href="#DejaVuSans-37" transform="translate(127.246094 0)"/>
    </g>
   </g>
   <g id="text_42">
    <!-- 101 -->
    <g style="fill: #468bca" transform="translate(408.615015 368.553934) scale(0.1 -0.1)">
     <use xlink:href="#DejaVuSans-31"/>
     <use xlink:href="#DejaVuSans-30" transform="translate(63.623047 0)"/>
     <use xlink:href="#DejaVuSans-31" transform="translate(127.246094 0)"/>
    </g>
   </g>
   <g id="text_43">
    <!-- 57 -->
    <g style="fill: #468bca" transform="translate(491.442824 368.553934) scale(0.1 -0.1)">
     <use xlink:href="#DejaVuSans-35"/>
     <use xlink:href="#DejaVuSans-37" transform="translate(63.623047 0)"/>
    </g>
   </g>
   <g id="text_44">
    <!-- 30 -->
    <g style="fill: #468bca" transform="translate(571.089383 368.553934) scale(0.1 -0.1)">
     <use xlink:href="#DejaVuSans-33"/>
     <use xlink:href="#DejaVuSans-30" transform="translate(63.623047 0)"/>
    </g>
   </g>
   <g id="text_45">
    <!-- 12 -->
    <g style="fill: #468bca" transform="translate(650.735942 368.553934) scale(0.1 -0.1)">
     <use xlink:href="#DejaVuSans-31"/>
     <use xlink:href="#DejaVuSans-32" transform="translate(63.623047 0)"/>
    </g>
   </g>
   <g id="text_46">
    <!-- 7 -->
    <g style="fill: #468bca" transform="translate(733.563751 368.553934) scale(0.1 -0.1)">
     <use xlink:href="#DejaVuSans-37"/>
    </g>
   </g>
   <g id="text_47">
    <!-- 1 -->
    <g style="fill: #468bca" transform="translate(806.573097 368.553934) scale(0.1 -0.1)">
     <use xlink:href="#DejaVuSans-31"/>
    </g>
   </g>
   <g id="text_48">
    <!-- 624 -->
    <g style="fill: #7dd2f6" transform="translate(90.028778 385.753775) scale(0.1 -0.1)">
     <use xlink:href="#DejaVuSans-36"/>
     <use xlink:href="#DejaVuSans-32" transform="translate(63.623047 0)"/>
     <use xlink:href="#DejaVuSans-34" transform="translate(127.246094 0)"/>
    </g>
   </g>
   <g id="text_49">
    <!-- 417 -->
    <g style="fill: #7dd2f6" transform="translate(169.675337 385.753775) scale(0.1 -0.1)">
     <use xlink:href="#DejaVuSans-34"/>
     <use xlink:href="#DejaVuSans-31" transform="translate(63.623047 0)"/>
     <use xlink:href="#DejaVuSans-37" transform="translate(127.246094 0)"/>
    </g>
   </g>
   <g id="text_50">
    <!-- 236 -->
    <g style="fill: #7dd2f6" transform="translate(249.321897 385.753775) scale(0.1 -0.1)">
     <use xlink:href="#DejaVuSans-32"/>
     <use xlink:href="#DejaVuSans-33" transform="translate(63.623047 0)"/>
     <use xlink:href="#DejaVuSans-36" transform="translate(127.246094 0)"/>
    </g>
   </g>
   <g id="text_51">
    <!-- 155 -->
    <g style="fill: #7dd2f6" transform="translate(328.968456 385.753775) scale(0.1 -0.1)">
     <use xlink:href="#DejaVuSans-31"/>
     <use xlink:href="#DejaVuSans-35" transform="translate(63.623047 0)"/>
     <use xlink:href="#DejaVuSans-35" transform="translate(127.246094 0)"/>
    </g>
   </g>
   <g id="text_52">
    <!-- 103 -->
    <g style="fill: #7dd2f6" transform="translate(408.615015 385.753775) scale(0.1 -0.1)">
     <use xlink:href="#DejaVuSans-31"/>
     <use xlink:href="#DejaVuSans-30" transform="translate(63.623047 0)"/>
     <use xlink:href="#DejaVuSans-33" transform="translate(127.246094 0)"/>
    </g>
   </g>
   <g id="text_53">
    <!-- 73 -->
    <g style="fill: #7dd2f6" transform="translate(491.442824 385.753775) scale(0.1 -0.1)">
     <use xlink:href="#DejaVuSans-37"/>
     <use xlink:href="#DejaVuSans-33" transform="translate(63.623047 0)"/>
    </g>
   </g>
   <g id="text_54">
    <!-- 44 -->
    <g style="fill: #7dd2f6" transform="translate(571.089383 385.753775) scale(0.1 -0.1)">
     <use xlink:href="#DejaVuSans-34"/>
     <use xlink:href="#DejaVuSans-34" transform="translate(63.623047 0)"/>
    </g>
   </g>
   <g id="text_55">
    <!-- 19 -->
    <g style="fill: #7dd2f6" transform="translate(650.735942 385.753775) scale(0.1 -0.1)">
     <use xlink:href="#DejaVuSans-31"/>
     <use xlink:href="#DejaVuSans-39" transform="translate(63.623047 0)"/>
    </g>
   </g>
   <g id="text_56">
    <!-- 6 -->
    <g style="fill: #7dd2f6" transform="translate(733.563751 385.753775) scale(0.1 -0.1)">
     <use xlink:href="#DejaVuSans-36"/>
    </g>
   </g>
   <g id="text_57">
    <!-- 1 -->
    <g style="fill: #7dd2f6" transform="translate(806.573097 385.753775) scale(0.1 -0.1)">
     <use xlink:href="#DejaVuSans-31"/>
    </g>
   </g>
  </g>
 </g>
 <defs>
  <clipPath id="p7cf0f22fc5">
   <rect x="64.063438" y="7.2" width="781.2" height="321.391304"/>
  </clipPath>
 </defs>
</svg>
