<?xml version="1.0" encoding="utf-8" standalone="no"?>
<!DOCTYPE svg PUBLIC "-//W3C//DTD SVG 1.1//EN"
  "http://www.w3.org/Graphics/SVG/1.1/DTD/svg11.dtd">
<svg xmlns:xlink="http://www.w3.org/1999/xlink" width="527.207187pt" height="375.831875pt" viewBox="0 0 527.207187 375.831875" xmlns="http://www.w3.org/2000/svg" version="1.1">
 <metadata>
  <rdf:RDF xmlns:dc="http://purl.org/dc/elements/1.1/" xmlns:cc="http://creativecommons.org/ns#" xmlns:rdf="http://www.w3.org/1999/02/22-rdf-syntax-ns#">
   <cc:Work>
    <dc:type rdf:resource="http://purl.org/dc/dcmitype/StillImage"/>
    <dc:date>2025-11-16T22:46:39.051865</dc:date>
    <dc:format>image/svg+xml</dc:format>
    <dc:creator>
     <cc:Agent>
      <dc:title>Matplotlib v3.10.6, https://matplotlib.org/</dc:title>
     </cc:Agent>
    </dc:creator>
   </cc:Work>
  </rdf:RDF>
 </metadata>
 <defs>
  <style type="text/css">*{stroke-linejoin: round; stroke-linecap: butt}</style>
 </defs>
 <g id="figure_1">
  <g id="patch_1">
   <path d="M 0 375.831875 
L 527.207187 375.831875 
L 527.207187 0 
L 0 0 
z
" style="fill: #ffffff"/>
  </g>
  <g id="axes_1">
   <g id="patch_2">
    <path d="M 64.063437 282.678261 
L 510.463437 282.678261 
L 510.463437 7.2 
L 64.063437 7.2 
z
" style="fill: #ffffff"/>
   </g>
   <g id="matplotlib.axis_1">
    <g id="xtick_1">
     <g id="line2d_1">
      <defs>
       <path id="m25a3b37e2a" d="M 0 0 
L 0 -4 
" style="stroke: #000000"/>
      </defs>
      <g>
       <use xlink:href="#m25a3b37e2a" x="84.354347" y="282.678261" style="stroke: #000000"/>
      </g>
     </g>
    </g>
    <g id="xtick_2">
     <g id="line2d_2">
      <g>
       <use xlink:href="#m25a3b37e2a" x="145.227074" y="282.678261" style="stroke: #000000"/>
      </g>
     </g>
    </g>
    <g id="xtick_3">
     <g id="line2d_3">
      <g>
       <use xlink:href="#m25a3b37e2a" x="206.099801" y="282.678261" style="stroke: #000000"/>
      </g>
     </g>
    </g>
    <g id="xtick_4">
     <g id="line2d_4">
      <g>
       <use xlink:href="#m25a3b37e2a" x="266.972528" y="282.678261" style="stroke: #000000"/>
      </g>
     </g>
    </g>
    <g id="xtick_5">
     <g id="line2d_5">
      <g>
       <use xlink:href="#m25a3b37e2a" x="327.845256" y="282.678261" style="stroke: #000000"/>
      </g>
     </g>
    </g>
    <g id="xtick_6">
     <g id="line2d_6">
      <g>
       <use xlink:href="#m25a3b37e2a" x="388.717983" y="282.678261" style="stroke: #000000"/>
      </g>
     </g>
    </g>
    <g id="xtick_7">
     <g id="line2d_7">
      <g>
       <use xlink:href="#m25a3b37e2a" x="449.59071" y="282.678261" style="stroke: #000000"/>
      </g>
     </g>
    </g>
    <g id="xtick_8">
     <g id="line2d_8">
      <g>
       <use xlink:href="#m25a3b37e2a" x="510.463437" y="282.678261" style="stroke: #000000"/>
      </g>
     </g>
    </g>
    <g id="xtick_9">
     <g id="line2d_9">
      <g>
       <use xlink:href="#m25a3b37e2a" x="165.517983" y="282.678261" style="stroke: #000000"/>
      </g>
     </g>
    </g>
    <g id="xtick_10">
     <g id="line2d_10">
      <g>
       <use xlink:href="#m25a3b37e2a" x="246.681619" y="282.678261" style="stroke: #000000"/>
      </g>
     </g>
    </g>
    <g id="xtick_11">
     <g id="line2d_11">
      <g>
       <use xlink:href="#m25a3b37e2a" x="409.008892" y="282.678261" style="stroke: #000000"/>
      </g>
     </g>
    </g>
    <g id="xtick_12">
     <g id="line2d_12">
      <g>
       <use xlink:href="#m25a3b37e2a" x="490.172528" y="282.678261" style="stroke: #000000"/>
      </g>
     </g>
    </g>
   </g>
   <g id="matplotlib.axis_2">
    <g id="ytick_1">
     <g id="line2d_13">
      <path d="M 64.063437 253.680549 
L 510.463437 253.680549 
" clip-path="url(#p3117e44205)" style="fill: none; stroke-dasharray: 2.22,0.96; stroke-dashoffset: 0; stroke: #b0b0b0; stroke-opacity: 0.5; stroke-width: 0.6"/>
     </g>
     <g id="line2d_14">
      <defs>
       <path id="ma7bd83e13f" d="M 0 0 
L 4 0 
" style="stroke: #000000"/>
      </defs>
      <g>
       <use xlink:href="#ma7bd83e13f" x="64.063437" y="253.680549" style="stroke: #000000"/>
      </g>
     </g>
     <g id="text_1">
      <!-- 0.2 -->
      <g transform="translate(44.660312 257.479768) scale(0.1 -0.1)">
       <defs>
        <path id="DejaVuSans-30" d="M 2034 4250 
Q 1547 4250 1301 3770 
Q 1056 3291 1056 2328 
Q 1056 1369 1301 889 
Q 1547 409 2034 409 
Q 2525 409 2770 889 
Q 3016 1369 3016 2328 
Q 3016 3291 2770 3770 
Q 2525 4250 2034 4250 
z
M 2034 4750 
Q 2819 4750 3233 4129 
Q 3647 3509 3647 2328 
Q 3647 1150 3233 529 
Q 2819 -91 2034 -91 
Q 1250 -91 836 529 
Q 422 1150 422 2328 
Q 422 3509 836 4129 
Q 1250 4750 2034 4750 
z
" transform="scale(0.015625)"/>
        <path id="DejaVuSans-2e" d="M 684 794 
L 1344 794 
L 1344 0 
L 684 0 
L 684 794 
z
" transform="scale(0.015625)"/>
        <path id="DejaVuSans-32" d="M 1228 531 
L 3431 531 
L 3431 0 
L 469 0 
L 469 531 
Q 828 903 1448 1529 
Q 2069 2156 2228 2338 
Q 2531 2678 2651 2914 
Q 2772 3150 2772 3378 
Q 2772 3750 2511 3984 
Q 2250 4219 1831 4219 
Q 1534 4219 1204 4116 
Q 875 4013 500 3803 
L 500 4441 
Q 881 4594 1212 4672 
Q 1544 4750 1819 4750 
Q 2544 4750 2975 4387 
Q 3406 4025 3406 3419 
Q 3406 3131 3298 2873 
Q 3191 2616 2906 2266 
Q 2828 2175 2409 1742 
Q 1991 1309 1228 531 
z
" transform="scale(0.015625)"/>
       </defs>
       <use xlink:href="#DejaVuSans-30"/>
       <use xlink:href="#DejaVuSans-2e" transform="translate(63.623047 0)"/>
       <use xlink:href="#DejaVuSans-32" transform="translate(95.410156 0)"/>
      </g>
     </g>
    </g>
    <g id="ytick_2">
     <g id="line2d_15">
      <path d="M 64.063437 195.685126 
L 510.463437 195.685126 
" clip-path="url(#p3117e44205)" style="fill: none; stroke-dasharray: 2.22,0.96; stroke-dashoffset: 0; stroke: #b0b0b0; stroke-opacity: 0.5; stroke-width: 0.6"/>
     </g>
     <g id="line2d_16">
      <g>
       <use xlink:href="#ma7bd83e13f" x="64.063437" y="195.685126" style="stroke: #000000"/>
      </g>
     </g>
     <g id="text_2">
      <!-- 0.4 -->
      <g transform="translate(44.660312 199.484345) scale(0.1 -0.1)">
       <defs>
        <path id="DejaVuSans-34" d="M 2419 4116 
L 825 1625 
L 2419 1625 
L 2419 4116 
z
M 2253 4666 
L 3047 4666 
L 3047 1625 
L 3713 1625 
L 3713 1100 
L 3047 1100 
L 3047 0 
L 2419 0 
L 2419 1100 
L 313 1100 
L 313 1709 
L 2253 4666 
z
" transform="scale(0.015625)"/>
       </defs>
       <use xlink:href="#DejaVuSans-30"/>
       <use xlink:href="#DejaVuSans-2e" transform="translate(63.623047 0)"/>
       <use xlink:href="#DejaVuSans-34" transform="translate(95.410156 0)"/>
      </g>
     </g>
    </g>
    <g id="ytick_3">
     <g id="line2d_17">
      <path d="M 64.063437 137.689703 
L 510.463437 137.689703 
" clip-path="url(#p3117e44205)" style="fill: none; stroke-dasharray: 2.22,0.96; stroke-dashoffset: 0; stroke: #b0b0b0; stroke-opacity: 0.5; stroke-width: 0.6"/>
     </g>
     <g id="line2d_18">
      <g>
       <use xlink:href="#ma7bd83e13f" x="64.063437" y="137.689703" style="stroke: #000000"/>
      </g>
     </g>
     <g id="text_3">
      <!-- 0.6 -->
      <g transform="translate(44.660312 141.488921) scale(0.1 -0.1)">
       <defs>
        <path id="DejaVuSans-36" d="M 2113 2584 
Q 1688 2584 1439 2293 
Q 1191 2003 1191 1497 
Q 1191 994 1439 701 
Q 1688 409 2113 409 
Q 2538 409 2786 701 
Q 3034 994 3034 1497 
Q 3034 2003 2786 2293 
Q 2538 2584 2113 2584 
z
M 3366 4563 
L 3366 3988 
Q 3128 4100 2886 4159 
Q 2644 4219 2406 4219 
Q 1781 4219 1451 3797 
Q 1122 3375 1075 2522 
Q 1259 2794 1537 2939 
Q 1816 3084 2150 3084 
Q 2853 3084 3261 2657 
Q 3669 2231 3669 1497 
Q 3669 778 3244 343 
Q 2819 -91 2113 -91 
Q 1303 -91 875 529 
Q 447 1150 447 2328 
Q 447 3434 972 4092 
Q 1497 4750 2381 4750 
Q 2619 4750 2861 4703 
Q 3103 4656 3366 4563 
z
" transform="scale(0.015625)"/>
       </defs>
       <use xlink:href="#DejaVuSans-30"/>
       <use xlink:href="#DejaVuSans-2e" transform="translate(63.623047 0)"/>
       <use xlink:href="#DejaVuSans-36" transform="translate(95.410156 0)"/>
      </g>
     </g>
    </g>
    <g id="ytick_4">
     <g id="line2d_19">
      <path d="M 64.063437 79.694279 
L 510.463437 79.694279 
" clip-path="url(#p3117e44205)" style="fill: none; stroke-dasharray: 2.22,0.96; stroke-dashoffset: 0; stroke: #b0b0b0; stroke-opacity: 0.5; stroke-width: 0.6"/>
     </g>
     <g id="line2d_20">
      <g>
       <use xlink:href="#ma7bd83e13f" x="64.063437" y="79.694279" style="stroke: #000000"/>
      </g>
     </g>
     <g id="text_4">
      <!-- 0.8 -->
      <g transform="translate(44.660312 83.493498) scale(0.1 -0.1)">
       <defs>
        <path id="DejaVuSans-38" d="M 2034 2216 
Q 1584 2216 1326 1975 
Q 1069 1734 1069 1313 
Q 1069 891 1326 650 
Q 1584 409 2034 409 
Q 2484 409 2743 651 
Q 3003 894 3003 1313 
Q 3003 1734 2745 1975 
Q 2488 2216 2034 2216 
z
M 1403 2484 
Q 997 2584 770 2862 
Q 544 3141 544 3541 
Q 544 4100 942 4425 
Q 1341 4750 2034 4750 
Q 2731 4750 3128 4425 
Q 3525 4100 3525 3541 
Q 3525 3141 3298 2862 
Q 3072 2584 2669 2484 
Q 3125 2378 3379 2068 
Q 3634 1759 3634 1313 
Q 3634 634 3220 271 
Q 2806 -91 2034 -91 
Q 1263 -91 848 271 
Q 434 634 434 1313 
Q 434 1759 690 2068 
Q 947 2378 1403 2484 
z
M 1172 3481 
Q 1172 3119 1398 2916 
Q 1625 2713 2034 2713 
Q 2441 2713 2670 2916 
Q 2900 3119 2900 3481 
Q 2900 3844 2670 4047 
Q 2441 4250 2034 4250 
Q 1625 4250 1398 4047 
Q 1172 3844 1172 3481 
z
" transform="scale(0.015625)"/>
       </defs>
       <use xlink:href="#DejaVuSans-30"/>
       <use xlink:href="#DejaVuSans-2e" transform="translate(63.623047 0)"/>
       <use xlink:href="#DejaVuSans-38" transform="translate(95.410156 0)"/>
      </g>
     </g>
    </g>
    <g id="ytick_5">
     <g id="line2d_21">
      <path d="M 64.063437 21.698856 
L 510.463437 21.698856 
" clip-path="url(#p3117e44205)" style="fill: none; stroke-dasharray: 2.22,0.96; stroke-dashoffset: 0; stroke: #b0b0b0; stroke-opacity: 0.5; stroke-width: 0.6"/>
     </g>
     <g id="line2d_22">
      <g>
       <use xlink:href="#ma7bd83e13f" x="64.063437" y="21.698856" style="stroke: #000000"/>
      </g>
     </g>
     <g id="text_5">
      <!-- 1.0 -->
      <g transform="translate(44.660312 25.498075) scale(0.1 -0.1)">
       <defs>
        <path id="DejaVuSans-31" d="M 794 531 
L 1825 531 
L 1825 4091 
L 703 3866 
L 703 4441 
L 1819 4666 
L 2450 4666 
L 2450 531 
L 3481 531 
L 3481 0 
L 794 0 
L 794 531 
z
" transform="scale(0.015625)"/>
       </defs>
       <use xlink:href="#DejaVuSans-31"/>
       <use xlink:href="#DejaVuSans-2e" transform="translate(63.623047 0)"/>
       <use xlink:href="#DejaVuSans-30" transform="translate(95.410156 0)"/>
      </g>
     </g>
    </g>
    <g id="text_6">
     <!-- Survival probability -->
     <g transform="translate(38.164687 203.048193) rotate(-90) scale(0.12 -0.12)">
      <defs>
       <path id="DejaVuSans-53" d="M 3425 4513 
L 3425 3897 
Q 3066 4069 2747 4153 
Q 2428 4238 2131 4238 
Q 1616 4238 1336 4038 
Q 1056 3838 1056 3469 
Q 1056 3159 1242 3001 
Q 1428 2844 1947 2747 
L 2328 2669 
Q 3034 2534 3370 2195 
Q 3706 1856 3706 1288 
Q 3706 609 3251 259 
Q 2797 -91 1919 -91 
Q 1588 -91 1214 -16 
Q 841 59 441 206 
L 441 856 
Q 825 641 1194 531 
Q 1563 422 1919 422 
Q 2459 422 2753 634 
Q 3047 847 3047 1241 
Q 3047 1584 2836 1778 
Q 2625 1972 2144 2069 
L 1759 2144 
Q 1053 2284 737 2584 
Q 422 2884 422 3419 
Q 422 4038 858 4394 
Q 1294 4750 2059 4750 
Q 2388 4750 2728 4690 
Q 3069 4631 3425 4513 
z
" transform="scale(0.015625)"/>
       <path id="DejaVuSans-75" d="M 544 1381 
L 544 3500 
L 1119 3500 
L 1119 1403 
Q 1119 906 1312 657 
Q 1506 409 1894 409 
Q 2359 409 2629 706 
Q 2900 1003 2900 1516 
L 2900 3500 
L 3475 3500 
L 3475 0 
L 2900 0 
L 2900 538 
Q 2691 219 2414 64 
Q 2138 -91 1772 -91 
Q 1169 -91 856 284 
Q 544 659 544 1381 
z
M 1991 3584 
L 1991 3584 
z
" transform="scale(0.015625)"/>
       <path id="DejaVuSans-72" d="M 2631 2963 
Q 2534 3019 2420 3045 
Q 2306 3072 2169 3072 
Q 1681 3072 1420 2755 
Q 1159 2438 1159 1844 
L 1159 0 
L 581 0 
L 581 3500 
L 1159 3500 
L 1159 2956 
Q 1341 3275 1631 3429 
Q 1922 3584 2338 3584 
Q 2397 3584 2469 3576 
Q 2541 3569 2628 3553 
L 2631 2963 
z
" transform="scale(0.015625)"/>
       <path id="DejaVuSans-76" d="M 191 3500 
L 800 3500 
L 1894 563 
L 2988 3500 
L 3597 3500 
L 2284 0 
L 1503 0 
L 191 3500 
z
" transform="scale(0.015625)"/>
       <path id="DejaVuSans-69" d="M 603 3500 
L 1178 3500 
L 1178 0 
L 603 0 
L 603 3500 
z
M 603 4863 
L 1178 4863 
L 1178 4134 
L 603 4134 
L 603 4863 
z
" transform="scale(0.015625)"/>
       <path id="DejaVuSans-61" d="M 2194 1759 
Q 1497 1759 1228 1600 
Q 959 1441 959 1056 
Q 959 750 1161 570 
Q 1363 391 1709 391 
Q 2188 391 2477 730 
Q 2766 1069 2766 1631 
L 2766 1759 
L 2194 1759 
z
M 3341 1997 
L 3341 0 
L 2766 0 
L 2766 531 
Q 2569 213 2275 61 
Q 1981 -91 1556 -91 
Q 1019 -91 701 211 
Q 384 513 384 1019 
Q 384 1609 779 1909 
Q 1175 2209 1959 2209 
L 2766 2209 
L 2766 2266 
Q 2766 2663 2505 2880 
Q 2244 3097 1772 3097 
Q 1472 3097 1187 3025 
Q 903 2953 641 2809 
L 641 3341 
Q 956 3463 1253 3523 
Q 1550 3584 1831 3584 
Q 2591 3584 2966 3190 
Q 3341 2797 3341 1997 
z
" transform="scale(0.015625)"/>
       <path id="DejaVuSans-6c" d="M 603 4863 
L 1178 4863 
L 1178 0 
L 603 0 
L 603 4863 
z
" transform="scale(0.015625)"/>
       <path id="DejaVuSans-20" transform="scale(0.015625)"/>
       <path id="DejaVuSans-70" d="M 1159 525 
L 1159 -1331 
L 581 -1331 
L 581 3500 
L 1159 3500 
L 1159 2969 
Q 1341 3281 1617 3432 
Q 1894 3584 2278 3584 
Q 2916 3584 3314 3078 
Q 3713 2572 3713 1747 
Q 3713 922 3314 415 
Q 2916 -91 2278 -91 
Q 1894 -91 1617 61 
Q 1341 213 1159 525 
z
M 3116 1747 
Q 3116 2381 2855 2742 
Q 2594 3103 2138 3103 
Q 1681 3103 1420 2742 
Q 1159 2381 1159 1747 
Q 1159 1113 1420 752 
Q 1681 391 2138 391 
Q 2594 391 2855 752 
Q 3116 1113 3116 1747 
z
" transform="scale(0.015625)"/>
       <path id="DejaVuSans-6f" d="M 1959 3097 
Q 1497 3097 1228 2736 
Q 959 2375 959 1747 
Q 959 1119 1226 758 
Q 1494 397 1959 397 
Q 2419 397 2687 759 
Q 2956 1122 2956 1747 
Q 2956 2369 2687 2733 
Q 2419 3097 1959 3097 
z
M 1959 3584 
Q 2709 3584 3137 3096 
Q 3566 2609 3566 1747 
Q 3566 888 3137 398 
Q 2709 -91 1959 -91 
Q 1206 -91 779 398 
Q 353 888 353 1747 
Q 353 2609 779 3096 
Q 1206 3584 1959 3584 
z
" transform="scale(0.015625)"/>
       <path id="DejaVuSans-62" d="M 3116 1747 
Q 3116 2381 2855 2742 
Q 2594 3103 2138 3103 
Q 1681 3103 1420 2742 
Q 1159 2381 1159 1747 
Q 1159 1113 1420 752 
Q 1681 391 2138 391 
Q 2594 391 2855 752 
Q 3116 1113 3116 1747 
z
M 1159 2969 
Q 1341 3281 1617 3432 
Q 1894 3584 2278 3584 
Q 2916 3584 3314 3078 
Q 3713 2572 3713 1747 
Q 3713 922 3314 415 
Q 2916 -91 2278 -91 
Q 1894 -91 1617 61 
Q 1341 213 1159 525 
L 1159 0 
L 581 0 
L 581 4863 
L 1159 4863 
L 1159 2969 
z
" transform="scale(0.015625)"/>
       <path id="DejaVuSans-74" d="M 1172 4494 
L 1172 3500 
L 2356 3500 
L 2356 3053 
L 1172 3053 
L 1172 1153 
Q 1172 725 1289 603 
Q 1406 481 1766 481 
L 2356 481 
L 2356 0 
L 1766 0 
Q 1100 0 847 248 
Q 594 497 594 1153 
L 594 3053 
L 172 3053 
L 172 3500 
L 594 3500 
L 594 4494 
L 1172 4494 
z
" transform="scale(0.015625)"/>
       <path id="DejaVuSans-79" d="M 2059 -325 
Q 1816 -950 1584 -1140 
Q 1353 -1331 966 -1331 
L 506 -1331 
L 506 -850 
L 844 -850 
Q 1081 -850 1212 -737 
Q 1344 -625 1503 -206 
L 1606 56 
L 191 3500 
L 800 3500 
L 1894 763 
L 2988 3500 
L 3597 3500 
L 2059 -325 
z
" transform="scale(0.015625)"/>
      </defs>
      <use xlink:href="#DejaVuSans-53"/>
      <use xlink:href="#DejaVuSans-75" transform="translate(63.476562 0)"/>
      <use xlink:href="#DejaVuSans-72" transform="translate(126.855469 0)"/>
      <use xlink:href="#DejaVuSans-76" transform="translate(167.96875 0)"/>
      <use xlink:href="#DejaVuSans-69" transform="translate(227.148438 0)"/>
      <use xlink:href="#DejaVuSans-76" transform="translate(254.931641 0)"/>
      <use xlink:href="#DejaVuSans-61" transform="translate(314.111328 0)"/>
      <use xlink:href="#DejaVuSans-6c" transform="translate(375.390625 0)"/>
      <use xlink:href="#DejaVuSans-20" transform="translate(403.173828 0)"/>
      <use xlink:href="#DejaVuSans-70" transform="translate(434.960938 0)"/>
      <use xlink:href="#DejaVuSans-72" transform="translate(498.4375 0)"/>
      <use xlink:href="#DejaVuSans-6f" transform="translate(537.300781 0)"/>
      <use xlink:href="#DejaVuSans-62" transform="translate(598.482422 0)"/>
      <use xlink:href="#DejaVuSans-61" transform="translate(661.958984 0)"/>
      <use xlink:href="#DejaVuSans-62" transform="translate(723.238281 0)"/>
      <use xlink:href="#DejaVuSans-69" transform="translate(786.714844 0)"/>
      <use xlink:href="#DejaVuSans-6c" transform="translate(814.498047 0)"/>
      <use xlink:href="#DejaVuSans-69" transform="translate(842.28125 0)"/>
      <use xlink:href="#DejaVuSans-74" transform="translate(870.064453 0)"/>
      <use xlink:href="#DejaVuSans-79" transform="translate(909.273438 0)"/>
     </g>
    </g>
   </g>
   <g id="line2d_23">
    <defs>
     <path id="m5172a58492" d="M -5 0 
L 5 0 
M 0 5 
L 0 -5 
" style="stroke: #f27873"/>
    </defs>
    <g clip-path="url(#p3117e44205)">
     <use xlink:href="#m5172a58492" x="88.412528" y="27.214725" style="fill: #f27873; stroke: #f27873"/>
     <use xlink:href="#m5172a58492" x="92.47071" y="32.808064" style="fill: #f27873; stroke: #f27873"/>
     <use xlink:href="#m5172a58492" x="96.528892" y="39.218821" style="fill: #f27873; stroke: #f27873"/>
     <use xlink:href="#m5172a58492" x="100.587074" y="46.452196" style="fill: #f27873; stroke: #f27873"/>
     <use xlink:href="#m5172a58492" x="104.645256" y="51.303851" style="fill: #f27873; stroke: #f27873"/>
     <use xlink:href="#m5172a58492" x="108.703437" y="54.558502" style="fill: #f27873; stroke: #f27873"/>
     <use xlink:href="#m5172a58492" x="112.761619" y="65.203493" style="fill: #f27873; stroke: #f27873"/>
     <use xlink:href="#m5172a58492" x="116.819801" y="73.419242" style="fill: #f27873; stroke: #f27873"/>
     <use xlink:href="#m5172a58492" x="120.877983" y="75.927208" style="fill: #f27873; stroke: #f27873"/>
     <use xlink:href="#m5172a58492" x="124.936165" y="88.511662" style="fill: #f27873; stroke: #f27873"/>
     <use xlink:href="#m5172a58492" x="128.994347" y="94.428897" style="fill: #f27873; stroke: #f27873"/>
     <use xlink:href="#m5172a58492" x="133.052528" y="103.153679" style="fill: #f27873; stroke: #f27873"/>
     <use xlink:href="#m5172a58492" x="137.11071" y="109.312566" style="fill: #f27873; stroke: #f27873"/>
     <use xlink:href="#m5172a58492" x="141.168892" y="114.637918" style="fill: #f27873; stroke: #f27873"/>
     <use xlink:href="#m5172a58492" x="145.227074" y="123.718013" style="fill: #f27873; stroke: #f27873"/>
     <use xlink:href="#m5172a58492" x="149.285256" y="132.886694" style="fill: #f27873; stroke: #f27873"/>
     <use xlink:href="#m5172a58492" x="153.343437" y="138.44491" style="fill: #f27873; stroke: #f27873"/>
     <use xlink:href="#m5172a58492" x="157.401619" y="145.895708" style="fill: #f27873; stroke: #f27873"/>
     <use xlink:href="#m5172a58492" x="161.459801" y="149.642155" style="fill: #f27873; stroke: #f27873"/>
     <use xlink:href="#m5172a58492" x="165.517983" y="157.546244" style="fill: #f27873; stroke: #f27873"/>
     <use xlink:href="#m5172a58492" x="169.576165" y="161.602289" style="fill: #f27873; stroke: #f27873"/>
     <use xlink:href="#m5172a58492" x="173.634347" y="167.812235" style="fill: #f27873; stroke: #f27873"/>
     <use xlink:href="#m5172a58492" x="181.75071" y="180.413438" style="fill: #f27873; stroke: #f27873"/>
     <use xlink:href="#m5172a58492" x="185.808892" y="180.413438" style="fill: #f27873; stroke: #f27873"/>
     <use xlink:href="#m5172a58492" x="189.867074" y="183.929399" style="fill: #f27873; stroke: #f27873"/>
     <use xlink:href="#m5172a58492" x="193.925256" y="183.929399" style="fill: #f27873; stroke: #f27873"/>
     <use xlink:href="#m5172a58492" x="197.983437" y="192.286651" style="fill: #f27873; stroke: #f27873"/>
     <use xlink:href="#m5172a58492" x="202.041619" y="194.698557" style="fill: #f27873; stroke: #f27873"/>
     <use xlink:href="#m5172a58492" x="206.099801" y="194.698557" style="fill: #f27873; stroke: #f27873"/>
     <use xlink:href="#m5172a58492" x="210.157983" y="195.97005" style="fill: #f27873; stroke: #f27873"/>
     <use xlink:href="#m5172a58492" x="214.216165" y="197.255672" style="fill: #f27873; stroke: #f27873"/>
     <use xlink:href="#m5172a58492" x="218.274347" y="198.617818" style="fill: #f27873; stroke: #f27873"/>
     <use xlink:href="#m5172a58492" x="222.332528" y="202.754092" style="fill: #f27873; stroke: #f27873"/>
     <use xlink:href="#m5172a58492" x="226.39071" y="204.206384" style="fill: #f27873; stroke: #f27873"/>
     <use xlink:href="#m5172a58492" x="230.448892" y="208.622942" style="fill: #f27873; stroke: #f27873"/>
     <use xlink:href="#m5172a58492" x="234.507074" y="210.116464" style="fill: #f27873; stroke: #f27873"/>
     <use xlink:href="#m5172a58492" x="238.565256" y="210.116464" style="fill: #f27873; stroke: #f27873"/>
     <use xlink:href="#m5172a58492" x="258.856165" y="217.928734" style="fill: #f27873; stroke: #f27873"/>
     <use xlink:href="#m5172a58492" x="295.379801" y="232.47572" style="fill: #f27873; stroke: #f27873"/>
     <use xlink:href="#m5172a58492" x="307.554347" y="235.77573" style="fill: #f27873; stroke: #f27873"/>
     <use xlink:href="#m5172a58492" x="327.845256" y="241.071096" style="fill: #f27873; stroke: #f27873"/>
     <use xlink:href="#m5172a58492" x="335.961619" y="245.224324" style="fill: #f27873; stroke: #f27873"/>
     <use xlink:href="#m5172a58492" x="368.427074" y="249.654434" style="fill: #f27873; stroke: #f27873"/>
     <use xlink:href="#m5172a58492" x="380.601619" y="249.654434" style="fill: #f27873; stroke: #f27873"/>
     <use xlink:href="#m5172a58492" x="384.659801" y="249.654434" style="fill: #f27873; stroke: #f27873"/>
     <use xlink:href="#m5172a58492" x="453.648892" y="249.654434" style="fill: #f27873; stroke: #f27873"/>
     <use xlink:href="#m5172a58492" x="486.114347" y="249.654434" style="fill: #f27873; stroke: #f27873"/>
    </g>
   </g>
   <g id="line2d_24">
    <path d="M 84.354347 21.698856 
L 88.412528 21.698856 
L 88.412528 27.214725 
L 92.47071 27.214725 
L 92.47071 32.808064 
L 96.528892 32.808064 
L 96.528892 39.218821 
L 100.587074 39.218821 
L 100.587074 46.452196 
L 104.645256 46.452196 
L 104.645256 51.303851 
L 108.703437 51.303851 
L 108.703437 54.558502 
L 112.761619 54.558502 
L 112.761619 65.203493 
L 116.819801 65.203493 
L 116.819801 73.419242 
L 120.877983 73.419242 
L 120.877983 75.927208 
L 124.936165 75.927208 
L 124.936165 88.511662 
L 128.994347 88.511662 
L 128.994347 94.428897 
L 133.052528 94.428897 
L 133.052528 103.153679 
L 137.11071 103.153679 
L 137.11071 109.312566 
L 141.168892 109.312566 
L 141.168892 114.637918 
L 145.227074 114.637918 
L 145.227074 123.718013 
L 149.285256 123.718013 
L 149.285256 132.886694 
L 153.343437 132.886694 
L 153.343437 138.44491 
L 157.401619 138.44491 
L 157.401619 145.895708 
L 161.459801 145.895708 
L 161.459801 149.642155 
L 165.517983 149.642155 
L 165.517983 157.546244 
L 169.576165 157.546244 
L 169.576165 161.602289 
L 173.634347 161.602289 
L 173.634347 167.812235 
L 177.692528 167.812235 
L 177.692528 175.162937 
L 181.75071 175.162937 
L 181.75071 180.413438 
L 185.808892 180.413438 
L 185.808892 180.413438 
L 189.867074 180.413438 
L 189.867074 183.929399 
L 193.925256 183.929399 
L 193.925256 183.929399 
L 197.983437 183.929399 
L 197.983437 192.286651 
L 202.041619 192.286651 
L 202.041619 194.698557 
L 206.099801 194.698557 
L 206.099801 194.698557 
L 210.157983 194.698557 
L 210.157983 195.97005 
L 214.216165 195.97005 
L 214.216165 197.255672 
L 218.274347 197.255672 
L 218.274347 198.617818 
L 222.332528 198.617818 
L 222.332528 202.754092 
L 226.39071 202.754092 
L 226.39071 204.206384 
L 230.448892 204.206384 
L 230.448892 208.622942 
L 234.507074 208.622942 
L 234.507074 210.116464 
L 238.565256 210.116464 
L 238.565256 210.116464 
L 242.623437 210.116464 
L 242.623437 214.803826 
L 254.797983 214.803826 
L 254.797983 216.36628 
L 258.856165 216.36628 
L 258.856165 217.928734 
L 262.914347 217.928734 
L 262.914347 219.545066 
L 266.972528 219.545066 
L 266.972528 221.161398 
L 275.088892 221.161398 
L 275.088892 224.394061 
L 279.147074 224.394061 
L 279.147074 227.626724 
L 291.321619 227.626724 
L 291.321619 230.859388 
L 295.379801 230.859388 
L 295.379801 232.47572 
L 299.437983 232.47572 
L 299.437983 235.77573 
L 307.554347 235.77573 
L 307.554347 235.77573 
L 311.612528 235.77573 
L 311.612528 237.540852 
L 319.728892 237.540852 
L 319.728892 241.071096 
L 327.845256 241.071096 
L 327.845256 241.071096 
L 331.903437 241.071096 
L 331.903437 245.224324 
L 335.961619 245.224324 
L 335.961619 245.224324 
L 348.136165 245.224324 
L 348.136165 249.654434 
L 368.427074 249.654434 
L 368.427074 249.654434 
L 380.601619 249.654434 
L 380.601619 249.654434 
L 384.659801 249.654434 
L 384.659801 249.654434 
L 453.648892 249.654434 
L 453.648892 249.654434 
L 486.114347 249.654434 
L 486.114347 249.654434 
" clip-path="url(#p3117e44205)" style="fill: none; stroke: #f27873; stroke-width: 2; stroke-linecap: square"/>
   </g>
   <g id="line2d_25">
    <defs>
     <path id="m6cb303fddf" d="M -5 0 
L 5 0 
M 0 5 
L 0 -5 
" style="stroke: #468bca"/>
    </defs>
    <g clip-path="url(#p3117e44205)">
     <use xlink:href="#m6cb303fddf" x="88.412528" y="28.002706" style="fill: #468bca; stroke: #468bca"/>
     <use xlink:href="#m6cb303fddf" x="92.47071" y="37.618749" style="fill: #468bca; stroke: #468bca"/>
     <use xlink:href="#m6cb303fddf" x="96.528892" y="42.455053" style="fill: #468bca; stroke: #468bca"/>
     <use xlink:href="#m6cb303fddf" x="100.587074" y="49.819759" style="fill: #468bca; stroke: #468bca"/>
     <use xlink:href="#m6cb303fddf" x="104.645256" y="58.935007" style="fill: #468bca; stroke: #468bca"/>
     <use xlink:href="#m6cb303fddf" x="108.703437" y="62.293691" style="fill: #468bca; stroke: #468bca"/>
     <use xlink:href="#m6cb303fddf" x="116.819801" y="75.017277" style="fill: #468bca; stroke: #468bca"/>
     <use xlink:href="#m6cb303fddf" x="120.877983" y="75.017277" style="fill: #468bca; stroke: #468bca"/>
     <use xlink:href="#m6cb303fddf" x="124.936165" y="92.228818" style="fill: #468bca; stroke: #468bca"/>
     <use xlink:href="#m6cb303fddf" x="128.994347" y="98.276574" style="fill: #468bca; stroke: #468bca"/>
     <use xlink:href="#m6cb303fddf" x="133.052528" y="106.147864" style="fill: #468bca; stroke: #468bca"/>
     <use xlink:href="#m6cb303fddf" x="137.11071" y="109.722266" style="fill: #468bca; stroke: #468bca"/>
     <use xlink:href="#m6cb303fddf" x="141.168892" y="109.722266" style="fill: #468bca; stroke: #468bca"/>
     <use xlink:href="#m6cb303fddf" x="145.227074" y="123.491837" style="fill: #468bca; stroke: #468bca"/>
     <use xlink:href="#m6cb303fddf" x="157.401619" y="163.209091" style="fill: #468bca; stroke: #468bca"/>
     <use xlink:href="#m6cb303fddf" x="161.459801" y="167.998346" style="fill: #468bca; stroke: #468bca"/>
     <use xlink:href="#m6cb303fddf" x="165.517983" y="174.069231" style="fill: #468bca; stroke: #468bca"/>
     <use xlink:href="#m6cb303fddf" x="169.576165" y="178.336107" style="fill: #468bca; stroke: #468bca"/>
     <use xlink:href="#m6cb303fddf" x="181.75071" y="196.264156" style="fill: #468bca; stroke: #468bca"/>
     <use xlink:href="#m6cb303fddf" x="185.808892" y="196.264156" style="fill: #468bca; stroke: #468bca"/>
     <use xlink:href="#m6cb303fddf" x="189.867074" y="196.264156" style="fill: #468bca; stroke: #468bca"/>
     <use xlink:href="#m6cb303fddf" x="193.925256" y="197.518632" style="fill: #468bca; stroke: #468bca"/>
     <use xlink:href="#m6cb303fddf" x="202.041619" y="210.3453" style="fill: #468bca; stroke: #468bca"/>
     <use xlink:href="#m6cb303fddf" x="214.216165" y="215.541745" style="fill: #468bca; stroke: #468bca"/>
     <use xlink:href="#m6cb303fddf" x="230.448892" y="226.687742" style="fill: #468bca; stroke: #468bca"/>
     <use xlink:href="#m6cb303fddf" x="234.507074" y="228.104213" style="fill: #468bca; stroke: #468bca"/>
     <use xlink:href="#m6cb303fddf" x="258.856165" y="237.221132" style="fill: #468bca; stroke: #468bca"/>
     <use xlink:href="#m6cb303fddf" x="295.379801" y="263.693964" style="fill: #468bca; stroke: #468bca"/>
     <use xlink:href="#m6cb303fddf" x="303.496165" y="265.471075" style="fill: #468bca; stroke: #468bca"/>
     <use xlink:href="#m6cb303fddf" x="307.554347" y="265.471075" style="fill: #468bca; stroke: #468bca"/>
     <use xlink:href="#m6cb303fddf" x="311.612528" y="275.097096" style="fill: #468bca; stroke: #468bca"/>
     <use xlink:href="#m6cb303fddf" x="327.845256" y="275.097096" style="fill: #468bca; stroke: #468bca"/>
     <use xlink:href="#m6cb303fddf" x="335.961619" y="275.097096" style="fill: #468bca; stroke: #468bca"/>
     <use xlink:href="#m6cb303fddf" x="368.427074" y="275.097096" style="fill: #468bca; stroke: #468bca"/>
     <use xlink:href="#m6cb303fddf" x="380.601619" y="275.097096" style="fill: #468bca; stroke: #468bca"/>
     <use xlink:href="#m6cb303fddf" x="384.659801" y="275.097096" style="fill: #468bca; stroke: #468bca"/>
     <use xlink:href="#m6cb303fddf" x="409.008892" y="275.097096" style="fill: #468bca; stroke: #468bca"/>
     <use xlink:href="#m6cb303fddf" x="429.299801" y="275.097096" style="fill: #468bca; stroke: #468bca"/>
     <use xlink:href="#m6cb303fddf" x="469.881619" y="275.097096" style="fill: #468bca; stroke: #468bca"/>
     <use xlink:href="#m6cb303fddf" x="477.997983" y="275.097096" style="fill: #468bca; stroke: #468bca"/>
     <use xlink:href="#m6cb303fddf" x="486.114347" y="275.097096" style="fill: #468bca; stroke: #468bca"/>
     <use xlink:href="#m6cb303fddf" x="490.172528" y="275.097096" style="fill: #468bca; stroke: #468bca"/>
    </g>
   </g>
   <g id="line2d_26">
    <path d="M 84.354347 21.698856 
L 88.412528 21.698856 
L 88.412528 28.002706 
L 92.47071 28.002706 
L 92.47071 37.618749 
L 96.528892 37.618749 
L 96.528892 42.455053 
L 100.587074 42.455053 
L 100.587074 49.819759 
L 104.645256 49.819759 
L 104.645256 58.935007 
L 108.703437 58.935007 
L 108.703437 62.293691 
L 112.761619 62.293691 
L 112.761619 75.017277 
L 116.819801 75.017277 
L 116.819801 75.017277 
L 120.877983 75.017277 
L 120.877983 75.017277 
L 124.936165 75.017277 
L 124.936165 92.228818 
L 128.994347 92.228818 
L 128.994347 98.276574 
L 133.052528 98.276574 
L 133.052528 106.147864 
L 137.11071 106.147864 
L 137.11071 109.722266 
L 141.168892 109.722266 
L 141.168892 109.722266 
L 145.227074 109.722266 
L 145.227074 123.491837 
L 149.285256 123.491837 
L 149.285256 139.567868 
L 153.343437 139.567868 
L 153.343437 149.024358 
L 157.401619 149.024358 
L 157.401619 163.209091 
L 161.459801 163.209091 
L 161.459801 167.998346 
L 165.517983 167.998346 
L 165.517983 174.069231 
L 169.576165 174.069231 
L 169.576165 178.336107 
L 173.634347 178.336107 
L 173.634347 188.420635 
L 177.692528 188.420635 
L 177.692528 192.902647 
L 181.75071 192.902647 
L 181.75071 196.264156 
L 185.808892 196.264156 
L 185.808892 196.264156 
L 189.867074 196.264156 
L 189.867074 196.264156 
L 193.925256 196.264156 
L 193.925256 197.518632 
L 197.983437 197.518632 
L 197.983437 201.366633 
L 202.041619 201.366633 
L 202.041619 210.3453 
L 210.157983 210.3453 
L 210.157983 212.943522 
L 214.216165 212.943522 
L 214.216165 215.541745 
L 218.274347 215.541745 
L 218.274347 218.328244 
L 226.39071 218.328244 
L 226.39071 222.507993 
L 230.448892 222.507993 
L 230.448892 226.687742 
L 234.507074 226.687742 
L 234.507074 228.104213 
L 242.623437 228.104213 
L 242.623437 232.662672 
L 258.856165 232.662672 
L 258.856165 237.221132 
L 266.972528 237.221132 
L 266.972528 240.530236 
L 275.088892 240.530236 
L 275.088892 248.802996 
L 279.147074 248.802996 
L 279.147074 252.1121 
L 283.205256 252.1121 
L 283.205256 255.421204 
L 291.321619 255.421204 
L 291.321619 262.039412 
L 295.379801 262.039412 
L 295.379801 263.693964 
L 299.437983 263.693964 
L 299.437983 265.471075 
L 303.496165 265.471075 
L 303.496165 265.471075 
L 307.554347 265.471075 
L 307.554347 265.471075 
L 311.612528 265.471075 
L 311.612528 275.097096 
L 327.845256 275.097096 
L 327.845256 275.097096 
L 335.961619 275.097096 
L 335.961619 275.097096 
L 368.427074 275.097096 
L 368.427074 275.097096 
L 380.601619 275.097096 
L 380.601619 275.097096 
L 384.659801 275.097096 
L 384.659801 275.097096 
L 409.008892 275.097096 
L 409.008892 275.097096 
L 429.299801 275.097096 
L 429.299801 275.097096 
L 469.881619 275.097096 
L 469.881619 275.097096 
L 477.997983 275.097096 
L 477.997983 275.097096 
L 486.114347 275.097096 
L 486.114347 275.097096 
L 490.172528 275.097096 
L 490.172528 275.097096 
" clip-path="url(#p3117e44205)" style="fill: none; stroke: #468bca; stroke-width: 2; stroke-linecap: square"/>
   </g>
   <g id="line2d_27">
    <defs>
     <path id="mb6605f5a52" d="M -5 0 
L 5 0 
M 0 5 
L 0 -5 
" style="stroke: #7dd2f6"/>
    </defs>
    <g clip-path="url(#p3117e44205)">
     <use xlink:href="#mb6605f5a52" x="88.412528" y="24.850781" style="fill: #7dd2f6; stroke: #7dd2f6"/>
     <use xlink:href="#mb6605f5a52" x="92.47071" y="32.976141" style="fill: #7dd2f6; stroke: #7dd2f6"/>
     <use xlink:href="#mb6605f5a52" x="96.528892" y="42.812605" style="fill: #7dd2f6; stroke: #7dd2f6"/>
     <use xlink:href="#mb6605f5a52" x="104.645256" y="56.790211" style="fill: #7dd2f6; stroke: #7dd2f6"/>
     <use xlink:href="#mb6605f5a52" x="108.703437" y="64.262432" style="fill: #7dd2f6; stroke: #7dd2f6"/>
     <use xlink:href="#mb6605f5a52" x="116.819801" y="77.773069" style="fill: #7dd2f6; stroke: #7dd2f6"/>
     <use xlink:href="#mb6605f5a52" x="120.877983" y="79.474181" style="fill: #7dd2f6; stroke: #7dd2f6"/>
     <use xlink:href="#mb6605f5a52" x="124.936165" y="88.011012" style="fill: #7dd2f6; stroke: #7dd2f6"/>
     <use xlink:href="#mb6605f5a52" x="128.994347" y="89.731512" style="fill: #7dd2f6; stroke: #7dd2f6"/>
     <use xlink:href="#mb6605f5a52" x="133.052528" y="93.2267" style="fill: #7dd2f6; stroke: #7dd2f6"/>
     <use xlink:href="#mb6605f5a52" x="137.11071" y="107.320202" style="fill: #7dd2f6; stroke: #7dd2f6"/>
     <use xlink:href="#mb6605f5a52" x="141.168892" y="116.166772" style="fill: #7dd2f6; stroke: #7dd2f6"/>
     <use xlink:href="#mb6605f5a52" x="145.227074" y="125.218124" style="fill: #7dd2f6; stroke: #7dd2f6"/>
     <use xlink:href="#mb6605f5a52" x="149.285256" y="128.856326" style="fill: #7dd2f6; stroke: #7dd2f6"/>
     <use xlink:href="#mb6605f5a52" x="153.343437" y="140.982118" style="fill: #7dd2f6; stroke: #7dd2f6"/>
     <use xlink:href="#mb6605f5a52" x="157.401619" y="154.332476" style="fill: #7dd2f6; stroke: #7dd2f6"/>
     <use xlink:href="#mb6605f5a52" x="161.459801" y="156.251299" style="fill: #7dd2f6; stroke: #7dd2f6"/>
     <use xlink:href="#mb6605f5a52" x="165.517983" y="166.612944" style="fill: #7dd2f6; stroke: #7dd2f6"/>
     <use xlink:href="#mb6605f5a52" x="169.576165" y="170.787419" style="fill: #7dd2f6; stroke: #7dd2f6"/>
     <use xlink:href="#mb6605f5a52" x="173.634347" y="177.191445" style="fill: #7dd2f6; stroke: #7dd2f6"/>
     <use xlink:href="#mb6605f5a52" x="181.75071" y="189.121524" style="fill: #7dd2f6; stroke: #7dd2f6"/>
     <use xlink:href="#mb6605f5a52" x="185.808892" y="189.121524" style="fill: #7dd2f6; stroke: #7dd2f6"/>
     <use xlink:href="#mb6605f5a52" x="189.867074" y="192.433806" style="fill: #7dd2f6; stroke: #7dd2f6"/>
     <use xlink:href="#mb6605f5a52" x="202.041619" y="210.320131" style="fill: #7dd2f6; stroke: #7dd2f6"/>
     <use xlink:href="#mb6605f5a52" x="210.157983" y="215.20475" style="fill: #7dd2f6; stroke: #7dd2f6"/>
     <use xlink:href="#mb6605f5a52" x="214.216165" y="218.963369" style="fill: #7dd2f6; stroke: #7dd2f6"/>
     <use xlink:href="#mb6605f5a52" x="222.332528" y="224.49845" style="fill: #7dd2f6; stroke: #7dd2f6"/>
     <use xlink:href="#mb6605f5a52" x="226.39071" y="227.310628" style="fill: #7dd2f6; stroke: #7dd2f6"/>
     <use xlink:href="#mb6605f5a52" x="230.448892" y="233.030312" style="fill: #7dd2f6; stroke: #7dd2f6"/>
     <use xlink:href="#mb6605f5a52" x="234.507074" y="237.399516" style="fill: #7dd2f6; stroke: #7dd2f6"/>
     <use xlink:href="#mb6605f5a52" x="258.856165" y="242.041794" style="fill: #7dd2f6; stroke: #7dd2f6"/>
     <use xlink:href="#mb6605f5a52" x="303.496165" y="259.450339" style="fill: #7dd2f6; stroke: #7dd2f6"/>
     <use xlink:href="#mb6605f5a52" x="307.554347" y="259.450339" style="fill: #7dd2f6; stroke: #7dd2f6"/>
     <use xlink:href="#mb6605f5a52" x="311.612528" y="259.450339" style="fill: #7dd2f6; stroke: #7dd2f6"/>
     <use xlink:href="#mb6605f5a52" x="323.787074" y="259.450339" style="fill: #7dd2f6; stroke: #7dd2f6"/>
     <use xlink:href="#mb6605f5a52" x="327.845256" y="259.450339" style="fill: #7dd2f6; stroke: #7dd2f6"/>
     <use xlink:href="#mb6605f5a52" x="335.961619" y="259.450339" style="fill: #7dd2f6; stroke: #7dd2f6"/>
     <use xlink:href="#mb6605f5a52" x="368.427074" y="267.696491" style="fill: #7dd2f6; stroke: #7dd2f6"/>
     <use xlink:href="#mb6605f5a52" x="380.601619" y="267.696491" style="fill: #7dd2f6; stroke: #7dd2f6"/>
     <use xlink:href="#mb6605f5a52" x="384.659801" y="267.696491" style="fill: #7dd2f6; stroke: #7dd2f6"/>
     <use xlink:href="#mb6605f5a52" x="409.008892" y="267.696491" style="fill: #7dd2f6; stroke: #7dd2f6"/>
     <use xlink:href="#mb6605f5a52" x="429.299801" y="267.696491" style="fill: #7dd2f6; stroke: #7dd2f6"/>
     <use xlink:href="#mb6605f5a52" x="453.648892" y="267.696491" style="fill: #7dd2f6; stroke: #7dd2f6"/>
     <use xlink:href="#mb6605f5a52" x="469.881619" y="267.696491" style="fill: #7dd2f6; stroke: #7dd2f6"/>
     <use xlink:href="#mb6605f5a52" x="477.997983" y="267.696491" style="fill: #7dd2f6; stroke: #7dd2f6"/>
     <use xlink:href="#mb6605f5a52" x="486.114347" y="267.696491" style="fill: #7dd2f6; stroke: #7dd2f6"/>
     <use xlink:href="#mb6605f5a52" x="490.172528" y="267.696491" style="fill: #7dd2f6; stroke: #7dd2f6"/>
    </g>
   </g>
   <g id="line2d_28">
    <path d="M 84.354347 21.698856 
L 88.412528 21.698856 
L 88.412528 24.850781 
L 92.47071 24.850781 
L 92.47071 32.976141 
L 96.528892 32.976141 
L 96.528892 42.812605 
L 100.587074 42.812605 
L 100.587074 49.390302 
L 104.645256 49.390302 
L 104.645256 56.790211 
L 108.703437 56.790211 
L 108.703437 64.262432 
L 112.761619 64.262432 
L 112.761619 71.862166 
L 116.819801 71.862166 
L 116.819801 77.773069 
L 120.877983 77.773069 
L 120.877983 79.474181 
L 124.936165 79.474181 
L 124.936165 88.011012 
L 128.994347 88.011012 
L 128.994347 89.731512 
L 133.052528 89.731512 
L 133.052528 93.2267 
L 137.11071 93.2267 
L 137.11071 107.320202 
L 141.168892 107.320202 
L 141.168892 116.166772 
L 145.227074 116.166772 
L 145.227074 125.218124 
L 149.285256 125.218124 
L 149.285256 128.856326 
L 153.343437 128.856326 
L 153.343437 140.982118 
L 157.401619 140.982118 
L 157.401619 154.332476 
L 161.459801 154.332476 
L 161.459801 156.251299 
L 165.517983 156.251299 
L 165.517983 166.612944 
L 169.576165 166.612944 
L 169.576165 170.787419 
L 173.634347 170.787419 
L 173.634347 177.191445 
L 177.692528 177.191445 
L 177.692528 185.867866 
L 181.75071 185.867866 
L 181.75071 189.121524 
L 185.808892 189.121524 
L 185.808892 189.121524 
L 189.867074 189.121524 
L 189.867074 192.433806 
L 193.925256 192.433806 
L 193.925256 193.626228 
L 197.983437 193.626228 
L 197.983437 201.973179 
L 202.041619 201.973179 
L 202.041619 210.320131 
L 210.157983 210.320131 
L 210.157983 215.20475 
L 214.216165 215.20475 
L 214.216165 218.963369 
L 218.274347 218.963369 
L 218.274347 220.347139 
L 222.332528 220.347139 
L 222.332528 224.49845 
L 226.39071 224.49845 
L 226.39071 227.310628 
L 230.448892 227.310628 
L 230.448892 233.030312 
L 234.507074 233.030312 
L 234.507074 237.399516 
L 242.623437 237.399516 
L 242.623437 242.041794 
L 258.856165 242.041794 
L 258.856165 242.041794 
L 275.088892 242.041794 
L 275.088892 249.005212 
L 279.147074 249.005212 
L 279.147074 254.227775 
L 283.205256 254.227775 
L 283.205256 255.96863 
L 291.321619 255.96863 
L 291.321619 257.709484 
L 295.379801 257.709484 
L 295.379801 259.450339 
L 303.496165 259.450339 
L 303.496165 259.450339 
L 307.554347 259.450339 
L 307.554347 259.450339 
L 311.612528 259.450339 
L 311.612528 259.450339 
L 323.787074 259.450339 
L 323.787074 259.450339 
L 327.845256 259.450339 
L 327.845256 259.450339 
L 335.961619 259.450339 
L 335.961619 259.450339 
L 348.136165 259.450339 
L 348.136165 267.696491 
L 368.427074 267.696491 
L 368.427074 267.696491 
L 380.601619 267.696491 
L 380.601619 267.696491 
L 384.659801 267.696491 
L 384.659801 267.696491 
L 409.008892 267.696491 
L 409.008892 267.696491 
L 429.299801 267.696491 
L 429.299801 267.696491 
L 453.648892 267.696491 
L 453.648892 267.696491 
L 469.881619 267.696491 
L 469.881619 267.696491 
L 477.997983 267.696491 
L 477.997983 267.696491 
L 486.114347 267.696491 
L 486.114347 267.696491 
L 490.172528 267.696491 
L 490.172528 267.696491 
" clip-path="url(#p3117e44205)" style="fill: none; stroke: #7dd2f6; stroke-width: 2; stroke-linecap: square"/>
   </g>
   <g id="patch_3">
    <path d="M 64.063437 282.678261 
L 64.063437 7.2 
" style="fill: none; stroke: #000000; stroke-width: 1.2; stroke-linejoin: miter; stroke-linecap: square"/>
   </g>
   <g id="patch_4">
    <path d="M 64.063437 282.678261 
L 510.463437 282.678261 
" style="fill: none; stroke: #000000; stroke-width: 1.2; stroke-linejoin: miter; stroke-linecap: square"/>
   </g>
   <g id="text_7">
    <g id="patch_5">
     <path d="M 348.616531 57.977315 
L 501.535437 57.977315 
Q 504.835437 57.977315 504.835437 54.677315 
L 504.835437 12.709565 
Q 504.835437 9.409565 501.535437 9.409565 
L 348.616531 9.409565 
Q 345.316531 9.409565 345.316531 12.709565 
L 345.316531 54.677315 
Q 345.316531 57.977315 348.616531 57.977315 
z
" style="fill: #ffffff; opacity: 0.7"/>
    </g>
    <!-- Overall p = 1.03e-01 -->
    <g transform="translate(386.307 21.067846) scale(0.11 -0.11)">
     <defs>
      <path id="DejaVuSans-4f" d="M 2522 4238 
Q 1834 4238 1429 3725 
Q 1025 3213 1025 2328 
Q 1025 1447 1429 934 
Q 1834 422 2522 422 
Q 3209 422 3611 934 
Q 4013 1447 4013 2328 
Q 4013 3213 3611 3725 
Q 3209 4238 2522 4238 
z
M 2522 4750 
Q 3503 4750 4090 4092 
Q 4678 3434 4678 2328 
Q 4678 1225 4090 567 
Q 3503 -91 2522 -91 
Q 1538 -91 948 565 
Q 359 1222 359 2328 
Q 359 3434 948 4092 
Q 1538 4750 2522 4750 
z
" transform="scale(0.015625)"/>
      <path id="DejaVuSans-65" d="M 3597 1894 
L 3597 1613 
L 953 1613 
Q 991 1019 1311 708 
Q 1631 397 2203 397 
Q 2534 397 2845 478 
Q 3156 559 3463 722 
L 3463 178 
Q 3153 47 2828 -22 
Q 2503 -91 2169 -91 
Q 1331 -91 842 396 
Q 353 884 353 1716 
Q 353 2575 817 3079 
Q 1281 3584 2069 3584 
Q 2775 3584 3186 3129 
Q 3597 2675 3597 1894 
z
M 3022 2063 
Q 3016 2534 2758 2815 
Q 2500 3097 2075 3097 
Q 1594 3097 1305 2825 
Q 1016 2553 972 2059 
L 3022 2063 
z
" transform="scale(0.015625)"/>
      <path id="DejaVuSans-3d" d="M 678 2906 
L 4684 2906 
L 4684 2381 
L 678 2381 
L 678 2906 
z
M 678 1631 
L 4684 1631 
L 4684 1100 
L 678 1100 
L 678 1631 
z
" transform="scale(0.015625)"/>
      <path id="DejaVuSans-33" d="M 2597 2516 
Q 3050 2419 3304 2112 
Q 3559 1806 3559 1356 
Q 3559 666 3084 287 
Q 2609 -91 1734 -91 
Q 1441 -91 1130 -33 
Q 819 25 488 141 
L 488 750 
Q 750 597 1062 519 
Q 1375 441 1716 441 
Q 2309 441 2620 675 
Q 2931 909 2931 1356 
Q 2931 1769 2642 2001 
Q 2353 2234 1838 2234 
L 1294 2234 
L 1294 2753 
L 1863 2753 
Q 2328 2753 2575 2939 
Q 2822 3125 2822 3475 
Q 2822 3834 2567 4026 
Q 2313 4219 1838 4219 
Q 1578 4219 1281 4162 
Q 984 4106 628 3988 
L 628 4550 
Q 988 4650 1302 4700 
Q 1616 4750 1894 4750 
Q 2613 4750 3031 4423 
Q 3450 4097 3450 3541 
Q 3450 3153 3228 2886 
Q 3006 2619 2597 2516 
z
" transform="scale(0.015625)"/>
      <path id="DejaVuSans-2d" d="M 313 2009 
L 1997 2009 
L 1997 1497 
L 313 1497 
L 313 2009 
z
" transform="scale(0.015625)"/>
     </defs>
     <use xlink:href="#DejaVuSans-4f"/>
     <use xlink:href="#DejaVuSans-76" transform="translate(78.710938 0)"/>
     <use xlink:href="#DejaVuSans-65" transform="translate(137.890625 0)"/>
     <use xlink:href="#DejaVuSans-72" transform="translate(199.414062 0)"/>
     <use xlink:href="#DejaVuSans-61" transform="translate(240.527344 0)"/>
     <use xlink:href="#DejaVuSans-6c" transform="translate(301.806641 0)"/>
     <use xlink:href="#DejaVuSans-6c" transform="translate(329.589844 0)"/>
     <use xlink:href="#DejaVuSans-20" transform="translate(357.373047 0)"/>
     <use xlink:href="#DejaVuSans-70" transform="translate(389.160156 0)"/>
     <use xlink:href="#DejaVuSans-20" transform="translate(452.636719 0)"/>
     <use xlink:href="#DejaVuSans-3d" transform="translate(484.423828 0)"/>
     <use xlink:href="#DejaVuSans-20" transform="translate(568.212891 0)"/>
     <use xlink:href="#DejaVuSans-31" transform="translate(600 0)"/>
     <use xlink:href="#DejaVuSans-2e" transform="translate(663.623047 0)"/>
     <use xlink:href="#DejaVuSans-30" transform="translate(695.410156 0)"/>
     <use xlink:href="#DejaVuSans-33" transform="translate(759.033203 0)"/>
     <use xlink:href="#DejaVuSans-65" transform="translate(822.65625 0)"/>
     <use xlink:href="#DejaVuSans-2d" transform="translate(884.179688 0)"/>
     <use xlink:href="#DejaVuSans-30" transform="translate(920.263672 0)"/>
     <use xlink:href="#DejaVuSans-31" transform="translate(983.886719 0)"/>
    </g>
    <!-- OURS vs BCLC: p=3.92e-02 -->
    <g transform="translate(349.491375 36.728753) scale(0.11 -0.11)">
     <defs>
      <path id="DejaVuSans-55" d="M 556 4666 
L 1191 4666 
L 1191 1831 
Q 1191 1081 1462 751 
Q 1734 422 2344 422 
Q 2950 422 3222 751 
Q 3494 1081 3494 1831 
L 3494 4666 
L 4128 4666 
L 4128 1753 
Q 4128 841 3676 375 
Q 3225 -91 2344 -91 
Q 1459 -91 1007 375 
Q 556 841 556 1753 
L 556 4666 
z
" transform="scale(0.015625)"/>
      <path id="DejaVuSans-52" d="M 2841 2188 
Q 3044 2119 3236 1894 
Q 3428 1669 3622 1275 
L 4263 0 
L 3584 0 
L 2988 1197 
Q 2756 1666 2539 1819 
Q 2322 1972 1947 1972 
L 1259 1972 
L 1259 0 
L 628 0 
L 628 4666 
L 2053 4666 
Q 2853 4666 3247 4331 
Q 3641 3997 3641 3322 
Q 3641 2881 3436 2590 
Q 3231 2300 2841 2188 
z
M 1259 4147 
L 1259 2491 
L 2053 2491 
Q 2509 2491 2742 2702 
Q 2975 2913 2975 3322 
Q 2975 3731 2742 3939 
Q 2509 4147 2053 4147 
L 1259 4147 
z
" transform="scale(0.015625)"/>
      <path id="DejaVuSans-73" d="M 2834 3397 
L 2834 2853 
Q 2591 2978 2328 3040 
Q 2066 3103 1784 3103 
Q 1356 3103 1142 2972 
Q 928 2841 928 2578 
Q 928 2378 1081 2264 
Q 1234 2150 1697 2047 
L 1894 2003 
Q 2506 1872 2764 1633 
Q 3022 1394 3022 966 
Q 3022 478 2636 193 
Q 2250 -91 1575 -91 
Q 1294 -91 989 -36 
Q 684 19 347 128 
L 347 722 
Q 666 556 975 473 
Q 1284 391 1588 391 
Q 1994 391 2212 530 
Q 2431 669 2431 922 
Q 2431 1156 2273 1281 
Q 2116 1406 1581 1522 
L 1381 1569 
Q 847 1681 609 1914 
Q 372 2147 372 2553 
Q 372 3047 722 3315 
Q 1072 3584 1716 3584 
Q 2034 3584 2315 3537 
Q 2597 3491 2834 3397 
z
" transform="scale(0.015625)"/>
      <path id="DejaVuSans-42" d="M 1259 2228 
L 1259 519 
L 2272 519 
Q 2781 519 3026 730 
Q 3272 941 3272 1375 
Q 3272 1813 3026 2020 
Q 2781 2228 2272 2228 
L 1259 2228 
z
M 1259 4147 
L 1259 2741 
L 2194 2741 
Q 2656 2741 2882 2914 
Q 3109 3088 3109 3444 
Q 3109 3797 2882 3972 
Q 2656 4147 2194 4147 
L 1259 4147 
z
M 628 4666 
L 2241 4666 
Q 2963 4666 3353 4366 
Q 3744 4066 3744 3513 
Q 3744 3084 3544 2831 
Q 3344 2578 2956 2516 
Q 3422 2416 3680 2098 
Q 3938 1781 3938 1306 
Q 3938 681 3513 340 
Q 3088 0 2303 0 
L 628 0 
L 628 4666 
z
" transform="scale(0.015625)"/>
      <path id="DejaVuSans-43" d="M 4122 4306 
L 4122 3641 
Q 3803 3938 3442 4084 
Q 3081 4231 2675 4231 
Q 1875 4231 1450 3742 
Q 1025 3253 1025 2328 
Q 1025 1406 1450 917 
Q 1875 428 2675 428 
Q 3081 428 3442 575 
Q 3803 722 4122 1019 
L 4122 359 
Q 3791 134 3420 21 
Q 3050 -91 2638 -91 
Q 1578 -91 968 557 
Q 359 1206 359 2328 
Q 359 3453 968 4101 
Q 1578 4750 2638 4750 
Q 3056 4750 3426 4639 
Q 3797 4528 4122 4306 
z
" transform="scale(0.015625)"/>
      <path id="DejaVuSans-4c" d="M 628 4666 
L 1259 4666 
L 1259 531 
L 3531 531 
L 3531 0 
L 628 0 
L 628 4666 
z
" transform="scale(0.015625)"/>
      <path id="DejaVuSans-3a" d="M 750 794 
L 1409 794 
L 1409 0 
L 750 0 
L 750 794 
z
M 750 3309 
L 1409 3309 
L 1409 2516 
L 750 2516 
L 750 3309 
z
" transform="scale(0.015625)"/>
      <path id="DejaVuSans-39" d="M 703 97 
L 703 672 
Q 941 559 1184 500 
Q 1428 441 1663 441 
Q 2288 441 2617 861 
Q 2947 1281 2994 2138 
Q 2813 1869 2534 1725 
Q 2256 1581 1919 1581 
Q 1219 1581 811 2004 
Q 403 2428 403 3163 
Q 403 3881 828 4315 
Q 1253 4750 1959 4750 
Q 2769 4750 3195 4129 
Q 3622 3509 3622 2328 
Q 3622 1225 3098 567 
Q 2575 -91 1691 -91 
Q 1453 -91 1209 -44 
Q 966 3 703 97 
z
M 1959 2075 
Q 2384 2075 2632 2365 
Q 2881 2656 2881 3163 
Q 2881 3666 2632 3958 
Q 2384 4250 1959 4250 
Q 1534 4250 1286 3958 
Q 1038 3666 1038 3163 
Q 1038 2656 1286 2365 
Q 1534 2075 1959 2075 
z
" transform="scale(0.015625)"/>
     </defs>
     <use xlink:href="#DejaVuSans-4f"/>
     <use xlink:href="#DejaVuSans-55" transform="translate(78.710938 0)"/>
     <use xlink:href="#DejaVuSans-52" transform="translate(151.904297 0)"/>
     <use xlink:href="#DejaVuSans-53" transform="translate(221.386719 0)"/>
     <use xlink:href="#DejaVuSans-20" transform="translate(284.863281 0)"/>
     <use xlink:href="#DejaVuSans-76" transform="translate(316.650391 0)"/>
     <use xlink:href="#DejaVuSans-73" transform="translate(375.830078 0)"/>
     <use xlink:href="#DejaVuSans-20" transform="translate(427.929688 0)"/>
     <use xlink:href="#DejaVuSans-42" transform="translate(459.716797 0)"/>
     <use xlink:href="#DejaVuSans-43" transform="translate(526.570312 0)"/>
     <use xlink:href="#DejaVuSans-4c" transform="translate(596.394531 0)"/>
     <use xlink:href="#DejaVuSans-43" transform="translate(652.107422 0)"/>
     <use xlink:href="#DejaVuSans-3a" transform="translate(721.931641 0)"/>
     <use xlink:href="#DejaVuSans-20" transform="translate(755.623047 0)"/>
     <use xlink:href="#DejaVuSans-70" transform="translate(787.410156 0)"/>
     <use xlink:href="#DejaVuSans-3d" transform="translate(850.886719 0)"/>
     <use xlink:href="#DejaVuSans-33" transform="translate(934.675781 0)"/>
     <use xlink:href="#DejaVuSans-2e" transform="translate(998.298828 0)"/>
     <use xlink:href="#DejaVuSans-39" transform="translate(1030.085938 0)"/>
     <use xlink:href="#DejaVuSans-32" transform="translate(1093.708984 0)"/>
     <use xlink:href="#DejaVuSans-65" transform="translate(1157.332031 0)"/>
     <use xlink:href="#DejaVuSans-2d" transform="translate(1218.855469 0)"/>
     <use xlink:href="#DejaVuSans-30" transform="translate(1254.939453 0)"/>
     <use xlink:href="#DejaVuSans-32" transform="translate(1318.5625 0)"/>
    </g>
    <!-- OURS vs CNLC: p=1.39e-01 -->
    <g transform="translate(348.616531 52.389659) scale(0.11 -0.11)">
     <defs>
      <path id="DejaVuSans-4e" d="M 628 4666 
L 1478 4666 
L 3547 763 
L 3547 4666 
L 4159 4666 
L 4159 0 
L 3309 0 
L 1241 3903 
L 1241 0 
L 628 0 
L 628 4666 
z
" transform="scale(0.015625)"/>
     </defs>
     <use xlink:href="#DejaVuSans-4f"/>
     <use xlink:href="#DejaVuSans-55" transform="translate(78.710938 0)"/>
     <use xlink:href="#DejaVuSans-52" transform="translate(151.904297 0)"/>
     <use xlink:href="#DejaVuSans-53" transform="translate(221.386719 0)"/>
     <use xlink:href="#DejaVuSans-20" transform="translate(284.863281 0)"/>
     <use xlink:href="#DejaVuSans-76" transform="translate(316.650391 0)"/>
     <use xlink:href="#DejaVuSans-73" transform="translate(375.830078 0)"/>
     <use xlink:href="#DejaVuSans-20" transform="translate(427.929688 0)"/>
     <use xlink:href="#DejaVuSans-43" transform="translate(459.716797 0)"/>
     <use xlink:href="#DejaVuSans-4e" transform="translate(529.541016 0)"/>
     <use xlink:href="#DejaVuSans-4c" transform="translate(604.345703 0)"/>
     <use xlink:href="#DejaVuSans-43" transform="translate(660.058594 0)"/>
     <use xlink:href="#DejaVuSans-3a" transform="translate(729.882812 0)"/>
     <use xlink:href="#DejaVuSans-20" transform="translate(763.574219 0)"/>
     <use xlink:href="#DejaVuSans-70" transform="translate(795.361328 0)"/>
     <use xlink:href="#DejaVuSans-3d" transform="translate(858.837891 0)"/>
     <use xlink:href="#DejaVuSans-31" transform="translate(942.626953 0)"/>
     <use xlink:href="#DejaVuSans-2e" transform="translate(1006.25 0)"/>
     <use xlink:href="#DejaVuSans-33" transform="translate(1038.037109 0)"/>
     <use xlink:href="#DejaVuSans-39" transform="translate(1101.660156 0)"/>
     <use xlink:href="#DejaVuSans-65" transform="translate(1165.283203 0)"/>
     <use xlink:href="#DejaVuSans-2d" transform="translate(1226.806641 0)"/>
     <use xlink:href="#DejaVuSans-30" transform="translate(1262.890625 0)"/>
     <use xlink:href="#DejaVuSans-31" transform="translate(1326.513672 0)"/>
    </g>
   </g>
   <g id="legend_1">
    <g id="line2d_29">
     <path d="M 78.063437 233.742323 
L 88.063437 233.742323 
L 98.063437 233.742323 
" style="fill: none; stroke: #f27873; stroke-width: 2; stroke-linecap: round"/>
    </g>
    <g id="text_8">
     <!-- OURS -->
     <g transform="translate(106.063437 237.242323) scale(0.1 -0.1)">
      <use xlink:href="#DejaVuSans-4f"/>
      <use xlink:href="#DejaVuSans-55" transform="translate(78.710938 0)"/>
      <use xlink:href="#DejaVuSans-52" transform="translate(151.904297 0)"/>
      <use xlink:href="#DejaVuSans-53" transform="translate(221.386719 0)"/>
     </g>
    </g>
    <g id="line2d_30">
     <path d="M 78.063437 248.420448 
L 88.063437 248.420448 
L 98.063437 248.420448 
" style="fill: none; stroke: #468bca; stroke-width: 2; stroke-linecap: round"/>
    </g>
    <g id="text_9">
     <!-- BCLC -->
     <g transform="translate(106.063437 251.920448) scale(0.1 -0.1)">
      <use xlink:href="#DejaVuSans-42"/>
      <use xlink:href="#DejaVuSans-43" transform="translate(66.853516 0)"/>
      <use xlink:href="#DejaVuSans-4c" transform="translate(136.677734 0)"/>
      <use xlink:href="#DejaVuSans-43" transform="translate(192.390625 0)"/>
     </g>
    </g>
    <g id="line2d_31">
     <path d="M 78.063437 263.098573 
L 88.063437 263.098573 
L 98.063437 263.098573 
" style="fill: none; stroke: #7dd2f6; stroke-width: 2; stroke-linecap: round"/>
    </g>
    <g id="text_10">
     <!-- CNLC -->
     <g transform="translate(106.063437 266.598573) scale(0.1 -0.1)">
      <use xlink:href="#DejaVuSans-43"/>
      <use xlink:href="#DejaVuSans-4e" transform="translate(69.824219 0)"/>
      <use xlink:href="#DejaVuSans-4c" transform="translate(144.628906 0)"/>
      <use xlink:href="#DejaVuSans-43" transform="translate(200.341797 0)"/>
     </g>
    </g>
   </g>
  </g>
  <g id="axes_2">
   <g id="patch_6">
    <path d="M 64.063437 339.84 
L 510.463437 339.84 
L 510.463437 293.926957 
L 64.063437 293.926957 
z
" style="fill: #ffffff"/>
   </g>
   <g id="matplotlib.axis_3">
    <g id="xtick_13">
     <g id="line2d_32">
      <g>
       <use xlink:href="#m25a3b37e2a" x="84.354347" y="339.84" style="stroke: #000000"/>
      </g>
     </g>
     <g id="text_11">
      <!-- 0 -->
      <g transform="translate(81.173097 350.938438) scale(0.1 -0.1)">
       <use xlink:href="#DejaVuSans-30"/>
      </g>
     </g>
    </g>
    <g id="xtick_14">
     <g id="line2d_33">
      <g>
       <use xlink:href="#m25a3b37e2a" x="145.227074" y="339.84" style="stroke: #000000"/>
      </g>
     </g>
     <g id="text_12">
      <!-- 15 -->
      <g transform="translate(138.864574 350.938438) scale(0.1 -0.1)">
       <defs>
        <path id="DejaVuSans-35" d="M 691 4666 
L 3169 4666 
L 3169 4134 
L 1269 4134 
L 1269 2991 
Q 1406 3038 1543 3061 
Q 1681 3084 1819 3084 
Q 2600 3084 3056 2656 
Q 3513 2228 3513 1497 
Q 3513 744 3044 326 
Q 2575 -91 1722 -91 
Q 1428 -91 1123 -41 
Q 819 9 494 109 
L 494 744 
Q 775 591 1075 516 
Q 1375 441 1709 441 
Q 2250 441 2565 725 
Q 2881 1009 2881 1497 
Q 2881 1984 2565 2268 
Q 2250 2553 1709 2553 
Q 1456 2553 1204 2497 
Q 953 2441 691 2322 
L 691 4666 
z
" transform="scale(0.015625)"/>
       </defs>
       <use xlink:href="#DejaVuSans-31"/>
       <use xlink:href="#DejaVuSans-35" transform="translate(63.623047 0)"/>
      </g>
     </g>
    </g>
    <g id="xtick_15">
     <g id="line2d_34">
      <g>
       <use xlink:href="#m25a3b37e2a" x="206.099801" y="339.84" style="stroke: #000000"/>
      </g>
     </g>
     <g id="text_13">
      <!-- 30 -->
      <g transform="translate(199.737301 350.938438) scale(0.1 -0.1)">
       <use xlink:href="#DejaVuSans-33"/>
       <use xlink:href="#DejaVuSans-30" transform="translate(63.623047 0)"/>
      </g>
     </g>
    </g>
    <g id="xtick_16">
     <g id="line2d_35">
      <g>
       <use xlink:href="#m25a3b37e2a" x="266.972528" y="339.84" style="stroke: #000000"/>
      </g>
     </g>
     <g id="text_14">
      <!-- 45 -->
      <g transform="translate(260.610028 350.938438) scale(0.1 -0.1)">
       <use xlink:href="#DejaVuSans-34"/>
       <use xlink:href="#DejaVuSans-35" transform="translate(63.623047 0)"/>
      </g>
     </g>
    </g>
    <g id="xtick_17">
     <g id="line2d_36">
      <g>
       <use xlink:href="#m25a3b37e2a" x="327.845256" y="339.84" style="stroke: #000000"/>
      </g>
     </g>
     <g id="text_15">
      <!-- 60 -->
      <g transform="translate(321.482756 350.938438) scale(0.1 -0.1)">
       <use xlink:href="#DejaVuSans-36"/>
       <use xlink:href="#DejaVuSans-30" transform="translate(63.623047 0)"/>
      </g>
     </g>
    </g>
    <g id="xtick_18">
     <g id="line2d_37">
      <g>
       <use xlink:href="#m25a3b37e2a" x="388.717983" y="339.84" style="stroke: #000000"/>
      </g>
     </g>
     <g id="text_16">
      <!-- 75 -->
      <g transform="translate(382.355483 350.938438) scale(0.1 -0.1)">
       <defs>
        <path id="DejaVuSans-37" d="M 525 4666 
L 3525 4666 
L 3525 4397 
L 1831 0 
L 1172 0 
L 2766 4134 
L 525 4134 
L 525 4666 
z
" transform="scale(0.015625)"/>
       </defs>
       <use xlink:href="#DejaVuSans-37"/>
       <use xlink:href="#DejaVuSans-35" transform="translate(63.623047 0)"/>
      </g>
     </g>
    </g>
    <g id="xtick_19">
     <g id="line2d_38">
      <g>
       <use xlink:href="#m25a3b37e2a" x="449.59071" y="339.84" style="stroke: #000000"/>
      </g>
     </g>
     <g id="text_17">
      <!-- 90 -->
      <g transform="translate(443.22821 350.938438) scale(0.1 -0.1)">
       <use xlink:href="#DejaVuSans-39"/>
       <use xlink:href="#DejaVuSans-30" transform="translate(63.623047 0)"/>
      </g>
     </g>
    </g>
    <g id="xtick_20">
     <g id="line2d_39">
      <g>
       <use xlink:href="#m25a3b37e2a" x="510.463437" y="339.84" style="stroke: #000000"/>
      </g>
     </g>
     <g id="text_18">
      <!-- 105 -->
      <g transform="translate(500.919687 350.938438) scale(0.1 -0.1)">
       <use xlink:href="#DejaVuSans-31"/>
       <use xlink:href="#DejaVuSans-30" transform="translate(63.623047 0)"/>
       <use xlink:href="#DejaVuSans-35" transform="translate(127.246094 0)"/>
      </g>
     </g>
    </g>
    <g id="xtick_21">
     <g id="line2d_40">
      <g>
       <use xlink:href="#m25a3b37e2a" x="165.517983" y="339.84" style="stroke: #000000"/>
      </g>
     </g>
    </g>
    <g id="xtick_22">
     <g id="line2d_41">
      <g>
       <use xlink:href="#m25a3b37e2a" x="246.681619" y="339.84" style="stroke: #000000"/>
      </g>
     </g>
    </g>
    <g id="xtick_23">
     <g id="line2d_42">
      <g>
       <use xlink:href="#m25a3b37e2a" x="409.008892" y="339.84" style="stroke: #000000"/>
      </g>
     </g>
    </g>
    <g id="xtick_24">
     <g id="line2d_43">
      <g>
       <use xlink:href="#m25a3b37e2a" x="490.172528" y="339.84" style="stroke: #000000"/>
      </g>
     </g>
    </g>
    <g id="text_19">
     <!-- Time (months) -->
     <g transform="translate(243.395938 366.13625) scale(0.12 -0.12)">
      <defs>
       <path id="DejaVuSans-54" d="M -19 4666 
L 3928 4666 
L 3928 4134 
L 2272 4134 
L 2272 0 
L 1638 0 
L 1638 4134 
L -19 4134 
L -19 4666 
z
" transform="scale(0.015625)"/>
       <path id="DejaVuSans-6d" d="M 3328 2828 
Q 3544 3216 3844 3400 
Q 4144 3584 4550 3584 
Q 5097 3584 5394 3201 
Q 5691 2819 5691 2113 
L 5691 0 
L 5113 0 
L 5113 2094 
Q 5113 2597 4934 2840 
Q 4756 3084 4391 3084 
Q 3944 3084 3684 2787 
Q 3425 2491 3425 1978 
L 3425 0 
L 2847 0 
L 2847 2094 
Q 2847 2600 2669 2842 
Q 2491 3084 2119 3084 
Q 1678 3084 1418 2786 
Q 1159 2488 1159 1978 
L 1159 0 
L 581 0 
L 581 3500 
L 1159 3500 
L 1159 2956 
Q 1356 3278 1631 3431 
Q 1906 3584 2284 3584 
Q 2666 3584 2933 3390 
Q 3200 3197 3328 2828 
z
" transform="scale(0.015625)"/>
       <path id="DejaVuSans-28" d="M 1984 4856 
Q 1566 4138 1362 3434 
Q 1159 2731 1159 2009 
Q 1159 1288 1364 580 
Q 1569 -128 1984 -844 
L 1484 -844 
Q 1016 -109 783 600 
Q 550 1309 550 2009 
Q 550 2706 781 3412 
Q 1013 4119 1484 4856 
L 1984 4856 
z
" transform="scale(0.015625)"/>
       <path id="DejaVuSans-6e" d="M 3513 2113 
L 3513 0 
L 2938 0 
L 2938 2094 
Q 2938 2591 2744 2837 
Q 2550 3084 2163 3084 
Q 1697 3084 1428 2787 
Q 1159 2491 1159 1978 
L 1159 0 
L 581 0 
L 581 3500 
L 1159 3500 
L 1159 2956 
Q 1366 3272 1645 3428 
Q 1925 3584 2291 3584 
Q 2894 3584 3203 3211 
Q 3513 2838 3513 2113 
z
" transform="scale(0.015625)"/>
       <path id="DejaVuSans-68" d="M 3513 2113 
L 3513 0 
L 2938 0 
L 2938 2094 
Q 2938 2591 2744 2837 
Q 2550 3084 2163 3084 
Q 1697 3084 1428 2787 
Q 1159 2491 1159 1978 
L 1159 0 
L 581 0 
L 581 4863 
L 1159 4863 
L 1159 2956 
Q 1366 3272 1645 3428 
Q 1925 3584 2291 3584 
Q 2894 3584 3203 3211 
Q 3513 2838 3513 2113 
z
" transform="scale(0.015625)"/>
       <path id="DejaVuSans-29" d="M 513 4856 
L 1013 4856 
Q 1481 4119 1714 3412 
Q 1947 2706 1947 2009 
Q 1947 1309 1714 600 
Q 1481 -109 1013 -844 
L 513 -844 
Q 928 -128 1133 580 
Q 1338 1288 1338 2009 
Q 1338 2731 1133 3434 
Q 928 4138 513 4856 
z
" transform="scale(0.015625)"/>
      </defs>
      <use xlink:href="#DejaVuSans-54"/>
      <use xlink:href="#DejaVuSans-69" transform="translate(57.958984 0)"/>
      <use xlink:href="#DejaVuSans-6d" transform="translate(85.742188 0)"/>
      <use xlink:href="#DejaVuSans-65" transform="translate(183.154297 0)"/>
      <use xlink:href="#DejaVuSans-20" transform="translate(244.677734 0)"/>
      <use xlink:href="#DejaVuSans-28" transform="translate(276.464844 0)"/>
      <use xlink:href="#DejaVuSans-6d" transform="translate(315.478516 0)"/>
      <use xlink:href="#DejaVuSans-6f" transform="translate(412.890625 0)"/>
      <use xlink:href="#DejaVuSans-6e" transform="translate(474.072266 0)"/>
      <use xlink:href="#DejaVuSans-74" transform="translate(537.451172 0)"/>
      <use xlink:href="#DejaVuSans-68" transform="translate(576.660156 0)"/>
      <use xlink:href="#DejaVuSans-73" transform="translate(640.039062 0)"/>
      <use xlink:href="#DejaVuSans-29" transform="translate(692.138672 0)"/>
     </g>
    </g>
   </g>
   <g id="matplotlib.axis_4">
    <g id="ytick_6">
     <g id="line2d_44">
      <g>
       <use xlink:href="#ma7bd83e13f" x="64.063437" y="299.824045" style="stroke: #000000"/>
      </g>
     </g>
     <g id="text_20">
      <!-- OURS -->
      <g transform="translate(32.075937 303.623263) scale(0.1 -0.1)">
       <use xlink:href="#DejaVuSans-4f"/>
       <use xlink:href="#DejaVuSans-55" transform="translate(78.710938 0)"/>
       <use xlink:href="#DejaVuSans-52" transform="translate(151.904297 0)"/>
       <use xlink:href="#DejaVuSans-53" transform="translate(221.386719 0)"/>
      </g>
     </g>
    </g>
    <g id="ytick_7">
     <g id="line2d_45">
      <g>
       <use xlink:href="#ma7bd83e13f" x="64.063437" y="314.566765" style="stroke: #000000"/>
      </g>
     </g>
     <g id="text_21">
      <!-- BCLC -->
      <g transform="translate(34.34 318.365984) scale(0.1 -0.1)">
       <use xlink:href="#DejaVuSans-42"/>
       <use xlink:href="#DejaVuSans-43" transform="translate(66.853516 0)"/>
       <use xlink:href="#DejaVuSans-4c" transform="translate(136.677734 0)"/>
       <use xlink:href="#DejaVuSans-43" transform="translate(192.390625 0)"/>
      </g>
     </g>
    </g>
    <g id="ytick_8">
     <g id="line2d_46">
      <g>
       <use xlink:href="#ma7bd83e13f" x="64.063437" y="329.309485" style="stroke: #000000"/>
      </g>
     </g>
     <g id="text_22">
      <!-- CNLC -->
      <g transform="translate(33.544687 333.108704) scale(0.1 -0.1)">
       <use xlink:href="#DejaVuSans-43"/>
       <use xlink:href="#DejaVuSans-4e" transform="translate(69.824219 0)"/>
       <use xlink:href="#DejaVuSans-4c" transform="translate(144.628906 0)"/>
       <use xlink:href="#DejaVuSans-43" transform="translate(200.341797 0)"/>
      </g>
     </g>
    </g>
    <g id="text_23">
     <!-- Number -->
     <g transform="translate(14.798437 336.969416) rotate(-90) scale(0.1 -0.1)">
      <use xlink:href="#DejaVuSans-4e"/>
      <use xlink:href="#DejaVuSans-75" transform="translate(74.804688 0)"/>
      <use xlink:href="#DejaVuSans-6d" transform="translate(138.183594 0)"/>
      <use xlink:href="#DejaVuSans-62" transform="translate(235.595703 0)"/>
      <use xlink:href="#DejaVuSans-65" transform="translate(299.072266 0)"/>
      <use xlink:href="#DejaVuSans-72" transform="translate(360.595703 0)"/>
     </g>
     <!-- at risk -->
     <g transform="translate(25.99625 332.441291) rotate(-90) scale(0.1 -0.1)">
      <defs>
       <path id="DejaVuSans-6b" d="M 581 4863 
L 1159 4863 
L 1159 1991 
L 2875 3500 
L 3609 3500 
L 1753 1863 
L 3688 0 
L 2938 0 
L 1159 1709 
L 1159 0 
L 581 0 
L 581 4863 
z
" transform="scale(0.015625)"/>
      </defs>
      <use xlink:href="#DejaVuSans-61"/>
      <use xlink:href="#DejaVuSans-74" transform="translate(61.279297 0)"/>
      <use xlink:href="#DejaVuSans-20" transform="translate(100.488281 0)"/>
      <use xlink:href="#DejaVuSans-72" transform="translate(132.275391 0)"/>
      <use xlink:href="#DejaVuSans-69" transform="translate(173.388672 0)"/>
      <use xlink:href="#DejaVuSans-73" transform="translate(201.171875 0)"/>
      <use xlink:href="#DejaVuSans-6b" transform="translate(253.271484 0)"/>
     </g>
    </g>
   </g>
   <g id="patch_7">
    <path d="M 64.063437 339.84 
L 64.063437 293.926957 
" style="fill: none; stroke: #000000; stroke-width: 1.2; stroke-linejoin: miter; stroke-linecap: square"/>
   </g>
   <g id="patch_8">
    <path d="M 64.063437 339.84 
L 510.463437 339.84 
" style="fill: none; stroke: #000000; stroke-width: 1.2; stroke-linejoin: miter; stroke-linecap: square"/>
   </g>
   <g id="text_24">
    <!-- 368 -->
    <g style="fill: #f27873" transform="translate(74.810597 302.58342) scale(0.1 -0.1)">
     <use xlink:href="#DejaVuSans-33"/>
     <use xlink:href="#DejaVuSans-36" transform="translate(63.623047 0)"/>
     <use xlink:href="#DejaVuSans-38" transform="translate(127.246094 0)"/>
    </g>
   </g>
   <g id="text_25">
    <!-- 249 -->
    <g style="fill: #f27873" transform="translate(123.508778 302.58342) scale(0.1 -0.1)">
     <use xlink:href="#DejaVuSans-32"/>
     <use xlink:href="#DejaVuSans-34" transform="translate(63.623047 0)"/>
     <use xlink:href="#DejaVuSans-39" transform="translate(127.246094 0)"/>
    </g>
   </g>
   <g id="text_26">
    <!-- 130 -->
    <g style="fill: #f27873" transform="translate(172.20696 302.58342) scale(0.1 -0.1)">
     <use xlink:href="#DejaVuSans-31"/>
     <use xlink:href="#DejaVuSans-33" transform="translate(63.623047 0)"/>
     <use xlink:href="#DejaVuSans-30" transform="translate(127.246094 0)"/>
    </g>
   </g>
   <g id="text_27">
    <!-- 73 -->
    <g style="fill: #f27873" transform="translate(224.086392 302.58342) scale(0.1 -0.1)">
     <use xlink:href="#DejaVuSans-37"/>
     <use xlink:href="#DejaVuSans-33" transform="translate(63.623047 0)"/>
    </g>
   </g>
   <g id="text_28">
    <!-- 54 -->
    <g style="fill: #f27873" transform="translate(272.784574 302.58342) scale(0.1 -0.1)">
     <use xlink:href="#DejaVuSans-35"/>
     <use xlink:href="#DejaVuSans-34" transform="translate(63.623047 0)"/>
    </g>
   </g>
   <g id="text_29">
    <!-- 40 -->
    <g style="fill: #f27873" transform="translate(321.482756 302.58342) scale(0.1 -0.1)">
     <use xlink:href="#DejaVuSans-34"/>
     <use xlink:href="#DejaVuSans-30" transform="translate(63.623047 0)"/>
    </g>
   </g>
   <g id="text_30">
    <!-- 15 -->
    <g style="fill: #f27873" transform="translate(370.180937 302.58342) scale(0.1 -0.1)">
     <use xlink:href="#DejaVuSans-31"/>
     <use xlink:href="#DejaVuSans-35" transform="translate(63.623047 0)"/>
    </g>
   </g>
   <g id="text_31">
    <!-- 3 -->
    <g style="fill: #f27873" transform="translate(422.060369 302.58342) scale(0.1 -0.1)">
     <use xlink:href="#DejaVuSans-33"/>
    </g>
   </g>
   <g id="text_32">
    <!-- 2 -->
    <g style="fill: #f27873" transform="translate(470.758551 302.58342) scale(0.1 -0.1)">
     <use xlink:href="#DejaVuSans-32"/>
    </g>
   </g>
   <g id="text_33">
    <!-- 0 -->
    <g style="fill: #f27873" transform="translate(486.991278 302.58342) scale(0.1 -0.1)">
     <use xlink:href="#DejaVuSans-30"/>
    </g>
   </g>
   <g id="text_34">
    <!-- 368 -->
    <g style="fill: #468bca" transform="translate(74.810597 317.32614) scale(0.1 -0.1)">
     <use xlink:href="#DejaVuSans-33"/>
     <use xlink:href="#DejaVuSans-36" transform="translate(63.623047 0)"/>
     <use xlink:href="#DejaVuSans-38" transform="translate(127.246094 0)"/>
    </g>
   </g>
   <g id="text_35">
    <!-- 244 -->
    <g style="fill: #468bca" transform="translate(123.508778 317.32614) scale(0.1 -0.1)">
     <use xlink:href="#DejaVuSans-32"/>
     <use xlink:href="#DejaVuSans-34" transform="translate(63.623047 0)"/>
     <use xlink:href="#DejaVuSans-34" transform="translate(127.246094 0)"/>
    </g>
   </g>
   <g id="text_36">
    <!-- 106 -->
    <g style="fill: #468bca" transform="translate(172.20696 317.32614) scale(0.1 -0.1)">
     <use xlink:href="#DejaVuSans-31"/>
     <use xlink:href="#DejaVuSans-30" transform="translate(63.623047 0)"/>
     <use xlink:href="#DejaVuSans-36" transform="translate(127.246094 0)"/>
    </g>
   </g>
   <g id="text_37">
    <!-- 64 -->
    <g style="fill: #468bca" transform="translate(224.086392 317.32614) scale(0.1 -0.1)">
     <use xlink:href="#DejaVuSans-36"/>
     <use xlink:href="#DejaVuSans-34" transform="translate(63.623047 0)"/>
    </g>
   </g>
   <g id="text_38">
    <!-- 38 -->
    <g style="fill: #468bca" transform="translate(272.784574 317.32614) scale(0.1 -0.1)">
     <use xlink:href="#DejaVuSans-33"/>
     <use xlink:href="#DejaVuSans-38" transform="translate(63.623047 0)"/>
    </g>
   </g>
   <g id="text_39">
    <!-- 18 -->
    <g style="fill: #468bca" transform="translate(321.482756 317.32614) scale(0.1 -0.1)">
     <use xlink:href="#DejaVuSans-31"/>
     <use xlink:href="#DejaVuSans-38" transform="translate(63.623047 0)"/>
    </g>
   </g>
   <g id="text_40">
    <!-- 11 -->
    <g style="fill: #468bca" transform="translate(370.180937 317.32614) scale(0.1 -0.1)">
     <use xlink:href="#DejaVuSans-31"/>
     <use xlink:href="#DejaVuSans-31" transform="translate(63.623047 0)"/>
    </g>
   </g>
   <g id="text_41">
    <!-- 5 -->
    <g style="fill: #468bca" transform="translate(422.060369 317.32614) scale(0.1 -0.1)">
     <use xlink:href="#DejaVuSans-35"/>
    </g>
   </g>
   <g id="text_42">
    <!-- 3 -->
    <g style="fill: #468bca" transform="translate(470.758551 317.32614) scale(0.1 -0.1)">
     <use xlink:href="#DejaVuSans-33"/>
    </g>
   </g>
   <g id="text_43">
    <!-- 1 -->
    <g style="fill: #468bca" transform="translate(486.991278 317.32614) scale(0.1 -0.1)">
     <use xlink:href="#DejaVuSans-31"/>
    </g>
   </g>
   <g id="text_44">
    <!-- 368 -->
    <g style="fill: #7dd2f6" transform="translate(74.810597 332.06886) scale(0.1 -0.1)">
     <use xlink:href="#DejaVuSans-33"/>
     <use xlink:href="#DejaVuSans-36" transform="translate(63.623047 0)"/>
     <use xlink:href="#DejaVuSans-38" transform="translate(127.246094 0)"/>
    </g>
   </g>
   <g id="text_45">
    <!-- 254 -->
    <g style="fill: #7dd2f6" transform="translate(123.508778 332.06886) scale(0.1 -0.1)">
     <use xlink:href="#DejaVuSans-32"/>
     <use xlink:href="#DejaVuSans-35" transform="translate(63.623047 0)"/>
     <use xlink:href="#DejaVuSans-34" transform="translate(127.246094 0)"/>
    </g>
   </g>
   <g id="text_46">
    <!-- 116 -->
    <g style="fill: #7dd2f6" transform="translate(172.20696 332.06886) scale(0.1 -0.1)">
     <use xlink:href="#DejaVuSans-31"/>
     <use xlink:href="#DejaVuSans-31" transform="translate(63.623047 0)"/>
     <use xlink:href="#DejaVuSans-36" transform="translate(127.246094 0)"/>
    </g>
   </g>
   <g id="text_47">
    <!-- 59 -->
    <g style="fill: #7dd2f6" transform="translate(224.086392 332.06886) scale(0.1 -0.1)">
     <use xlink:href="#DejaVuSans-35"/>
     <use xlink:href="#DejaVuSans-39" transform="translate(63.623047 0)"/>
    </g>
   </g>
   <g id="text_48">
    <!-- 36 -->
    <g style="fill: #7dd2f6" transform="translate(272.784574 332.06886) scale(0.1 -0.1)">
     <use xlink:href="#DejaVuSans-33"/>
     <use xlink:href="#DejaVuSans-36" transform="translate(63.623047 0)"/>
    </g>
   </g>
   <g id="text_49">
    <!-- 25 -->
    <g style="fill: #7dd2f6" transform="translate(321.482756 332.06886) scale(0.1 -0.1)">
     <use xlink:href="#DejaVuSans-32"/>
     <use xlink:href="#DejaVuSans-35" transform="translate(63.623047 0)"/>
    </g>
   </g>
   <g id="text_50">
    <!-- 15 -->
    <g style="fill: #7dd2f6" transform="translate(370.180937 332.06886) scale(0.1 -0.1)">
     <use xlink:href="#DejaVuSans-31"/>
     <use xlink:href="#DejaVuSans-35" transform="translate(63.623047 0)"/>
    </g>
   </g>
   <g id="text_51">
    <!-- 6 -->
    <g style="fill: #7dd2f6" transform="translate(422.060369 332.06886) scale(0.1 -0.1)">
     <use xlink:href="#DejaVuSans-36"/>
    </g>
   </g>
   <g id="text_52">
    <!-- 3 -->
    <g style="fill: #7dd2f6" transform="translate(470.758551 332.06886) scale(0.1 -0.1)">
     <use xlink:href="#DejaVuSans-33"/>
    </g>
   </g>
   <g id="text_53">
    <!-- 1 -->
    <g style="fill: #7dd2f6" transform="translate(486.991278 332.06886) scale(0.1 -0.1)">
     <use xlink:href="#DejaVuSans-31"/>
    </g>
   </g>
  </g>
 </g>
 <defs>
  <clipPath id="p3117e44205">
   <rect x="64.063437" y="7.2" width="446.4" height="275.478261"/>
  </clipPath>
 </defs>
</svg>
