<?xml version="1.0" encoding="utf-8" standalone="no"?>
<!DOCTYPE svg PUBLIC "-//W3C//DTD SVG 1.1//EN"
  "http://www.w3.org/Graphics/SVG/1.1/DTD/svg11.dtd">
<svg xmlns:xlink="http://www.w3.org/1999/xlink" width="475.2pt" height="403.2pt" viewBox="0 0 475.2 403.2" xmlns="http://www.w3.org/2000/svg" version="1.1">
 <metadata>
  <rdf:RDF xmlns:dc="http://purl.org/dc/elements/1.1/" xmlns:cc="http://creativecommons.org/ns#" xmlns:rdf="http://www.w3.org/1999/02/22-rdf-syntax-ns#">
   <cc:Work>
    <dc:type rdf:resource="http://purl.org/dc/dcmitype/StillImage"/>
    <dc:date>2025-10-22T17:30:33.921190</dc:date>
    <dc:format>image/svg+xml</dc:format>
    <dc:creator>
     <cc:Agent>
      <dc:title>Matplotlib v3.10.6, https://matplotlib.org/</dc:title>
     </cc:Agent>
    </dc:creator>
   </cc:Work>
  </rdf:RDF>
 </metadata>
 <defs>
  <style type="text/css">*{stroke-linejoin: round; stroke-linecap: butt}</style>
 </defs>
 <g id="figure_1">
  <g id="patch_1">
   <path d="M 0 403.2 
L 475.2 403.2 
L 475.2 0 
L 0 0 
z
" style="fill: #ffffff"/>
  </g>
  <g id="axes_1">
   <g id="patch_2">
    <path d="M 47.72 361.24 
L 464.4 361.24 
L 464.4 10.8 
L 47.72 10.8 
z
" style="fill: #ffffff"/>
   </g>
   <g id="matplotlib.axis_1">
    <g id="xtick_1">
     <g id="line2d_1">
      <defs>
       <path id="m691998e7c8" d="M 0 0 
L 0 3.5 
" style="stroke: #000000; stroke-width: 0.8"/>
      </defs>
      <g>
       <use xlink:href="#m691998e7c8" x="66.66" y="361.24" style="stroke: #000000; stroke-width: 0.8"/>
      </g>
     </g>
     <g id="text_1">
      <!-- 0.0 -->
      <g transform="translate(58.708437 375.838437) scale(0.1 -0.1)">
       <defs>
        <path id="DejaVuSans-30" d="M 2034 4250 
Q 1547 4250 1301 3770 
Q 1056 3291 1056 2328 
Q 1056 1369 1301 889 
Q 1547 409 2034 409 
Q 2525 409 2770 889 
Q 3016 1369 3016 2328 
Q 3016 3291 2770 3770 
Q 2525 4250 2034 4250 
z
M 2034 4750 
Q 2819 4750 3233 4129 
Q 3647 3509 3647 2328 
Q 3647 1150 3233 529 
Q 2819 -91 2034 -91 
Q 1250 -91 836 529 
Q 422 1150 422 2328 
Q 422 3509 836 4129 
Q 1250 4750 2034 4750 
z
" transform="scale(0.015625)"/>
        <path id="DejaVuSans-2e" d="M 684 794 
L 1344 794 
L 1344 0 
L 684 0 
L 684 794 
z
" transform="scale(0.015625)"/>
       </defs>
       <use xlink:href="#DejaVuSans-30"/>
       <use xlink:href="#DejaVuSans-2e" transform="translate(63.623047 0)"/>
       <use xlink:href="#DejaVuSans-30" transform="translate(95.410156 0)"/>
      </g>
     </g>
    </g>
    <g id="xtick_2">
     <g id="line2d_2">
      <g>
       <use xlink:href="#m691998e7c8" x="142.42" y="361.24" style="stroke: #000000; stroke-width: 0.8"/>
      </g>
     </g>
     <g id="text_2">
      <!-- 0.2 -->
      <g transform="translate(134.468437 375.838437) scale(0.1 -0.1)">
       <defs>
        <path id="DejaVuSans-32" d="M 1228 531 
L 3431 531 
L 3431 0 
L 469 0 
L 469 531 
Q 828 903 1448 1529 
Q 2069 2156 2228 2338 
Q 2531 2678 2651 2914 
Q 2772 3150 2772 3378 
Q 2772 3750 2511 3984 
Q 2250 4219 1831 4219 
Q 1534 4219 1204 4116 
Q 875 4013 500 3803 
L 500 4441 
Q 881 4594 1212 4672 
Q 1544 4750 1819 4750 
Q 2544 4750 2975 4387 
Q 3406 4025 3406 3419 
Q 3406 3131 3298 2873 
Q 3191 2616 2906 2266 
Q 2828 2175 2409 1742 
Q 1991 1309 1228 531 
z
" transform="scale(0.015625)"/>
       </defs>
       <use xlink:href="#DejaVuSans-30"/>
       <use xlink:href="#DejaVuSans-2e" transform="translate(63.623047 0)"/>
       <use xlink:href="#DejaVuSans-32" transform="translate(95.410156 0)"/>
      </g>
     </g>
    </g>
    <g id="xtick_3">
     <g id="line2d_3">
      <g>
       <use xlink:href="#m691998e7c8" x="218.18" y="361.24" style="stroke: #000000; stroke-width: 0.8"/>
      </g>
     </g>
     <g id="text_3">
      <!-- 0.4 -->
      <g transform="translate(210.228438 375.838437) scale(0.1 -0.1)">
       <defs>
        <path id="DejaVuSans-34" d="M 2419 4116 
L 825 1625 
L 2419 1625 
L 2419 4116 
z
M 2253 4666 
L 3047 4666 
L 3047 1625 
L 3713 1625 
L 3713 1100 
L 3047 1100 
L 3047 0 
L 2419 0 
L 2419 1100 
L 313 1100 
L 313 1709 
L 2253 4666 
z
" transform="scale(0.015625)"/>
       </defs>
       <use xlink:href="#DejaVuSans-30"/>
       <use xlink:href="#DejaVuSans-2e" transform="translate(63.623047 0)"/>
       <use xlink:href="#DejaVuSans-34" transform="translate(95.410156 0)"/>
      </g>
     </g>
    </g>
    <g id="xtick_4">
     <g id="line2d_4">
      <g>
       <use xlink:href="#m691998e7c8" x="293.94" y="361.24" style="stroke: #000000; stroke-width: 0.8"/>
      </g>
     </g>
     <g id="text_4">
      <!-- 0.6 -->
      <g transform="translate(285.988437 375.838437) scale(0.1 -0.1)">
       <defs>
        <path id="DejaVuSans-36" d="M 2113 2584 
Q 1688 2584 1439 2293 
Q 1191 2003 1191 1497 
Q 1191 994 1439 701 
Q 1688 409 2113 409 
Q 2538 409 2786 701 
Q 3034 994 3034 1497 
Q 3034 2003 2786 2293 
Q 2538 2584 2113 2584 
z
M 3366 4563 
L 3366 3988 
Q 3128 4100 2886 4159 
Q 2644 4219 2406 4219 
Q 1781 4219 1451 3797 
Q 1122 3375 1075 2522 
Q 1259 2794 1537 2939 
Q 1816 3084 2150 3084 
Q 2853 3084 3261 2657 
Q 3669 2231 3669 1497 
Q 3669 778 3244 343 
Q 2819 -91 2113 -91 
Q 1303 -91 875 529 
Q 447 1150 447 2328 
Q 447 3434 972 4092 
Q 1497 4750 2381 4750 
Q 2619 4750 2861 4703 
Q 3103 4656 3366 4563 
z
" transform="scale(0.015625)"/>
       </defs>
       <use xlink:href="#DejaVuSans-30"/>
       <use xlink:href="#DejaVuSans-2e" transform="translate(63.623047 0)"/>
       <use xlink:href="#DejaVuSans-36" transform="translate(95.410156 0)"/>
      </g>
     </g>
    </g>
    <g id="xtick_5">
     <g id="line2d_5">
      <g>
       <use xlink:href="#m691998e7c8" x="369.7" y="361.24" style="stroke: #000000; stroke-width: 0.8"/>
      </g>
     </g>
     <g id="text_5">
      <!-- 0.8 -->
      <g transform="translate(361.748437 375.838437) scale(0.1 -0.1)">
       <defs>
        <path id="DejaVuSans-38" d="M 2034 2216 
Q 1584 2216 1326 1975 
Q 1069 1734 1069 1313 
Q 1069 891 1326 650 
Q 1584 409 2034 409 
Q 2484 409 2743 651 
Q 3003 894 3003 1313 
Q 3003 1734 2745 1975 
Q 2488 2216 2034 2216 
z
M 1403 2484 
Q 997 2584 770 2862 
Q 544 3141 544 3541 
Q 544 4100 942 4425 
Q 1341 4750 2034 4750 
Q 2731 4750 3128 4425 
Q 3525 4100 3525 3541 
Q 3525 3141 3298 2862 
Q 3072 2584 2669 2484 
Q 3125 2378 3379 2068 
Q 3634 1759 3634 1313 
Q 3634 634 3220 271 
Q 2806 -91 2034 -91 
Q 1263 -91 848 271 
Q 434 634 434 1313 
Q 434 1759 690 2068 
Q 947 2378 1403 2484 
z
M 1172 3481 
Q 1172 3119 1398 2916 
Q 1625 2713 2034 2713 
Q 2441 2713 2670 2916 
Q 2900 3119 2900 3481 
Q 2900 3844 2670 4047 
Q 2441 4250 2034 4250 
Q 1625 4250 1398 4047 
Q 1172 3844 1172 3481 
z
" transform="scale(0.015625)"/>
       </defs>
       <use xlink:href="#DejaVuSans-30"/>
       <use xlink:href="#DejaVuSans-2e" transform="translate(63.623047 0)"/>
       <use xlink:href="#DejaVuSans-38" transform="translate(95.410156 0)"/>
      </g>
     </g>
    </g>
    <g id="xtick_6">
     <g id="line2d_6">
      <g>
       <use xlink:href="#m691998e7c8" x="445.46" y="361.24" style="stroke: #000000; stroke-width: 0.8"/>
      </g>
     </g>
     <g id="text_6">
      <!-- 1.0 -->
      <g transform="translate(437.508438 375.838437) scale(0.1 -0.1)">
       <defs>
        <path id="DejaVuSans-31" d="M 794 531 
L 1825 531 
L 1825 4091 
L 703 3866 
L 703 4441 
L 1819 4666 
L 2450 4666 
L 2450 531 
L 3481 531 
L 3481 0 
L 794 0 
L 794 531 
z
" transform="scale(0.015625)"/>
       </defs>
       <use xlink:href="#DejaVuSans-31"/>
       <use xlink:href="#DejaVuSans-2e" transform="translate(63.623047 0)"/>
       <use xlink:href="#DejaVuSans-30" transform="translate(95.410156 0)"/>
      </g>
     </g>
    </g>
    <g id="text_7">
     <!-- 1 - Specificity -->
     <g transform="translate(222.126406 389.516563) scale(0.1 -0.1)">
      <defs>
       <path id="DejaVuSans-20" transform="scale(0.015625)"/>
       <path id="DejaVuSans-2d" d="M 313 2009 
L 1997 2009 
L 1997 1497 
L 313 1497 
L 313 2009 
z
" transform="scale(0.015625)"/>
       <path id="DejaVuSans-53" d="M 3425 4513 
L 3425 3897 
Q 3066 4069 2747 4153 
Q 2428 4238 2131 4238 
Q 1616 4238 1336 4038 
Q 1056 3838 1056 3469 
Q 1056 3159 1242 3001 
Q 1428 2844 1947 2747 
L 2328 2669 
Q 3034 2534 3370 2195 
Q 3706 1856 3706 1288 
Q 3706 609 3251 259 
Q 2797 -91 1919 -91 
Q 1588 -91 1214 -16 
Q 841 59 441 206 
L 441 856 
Q 825 641 1194 531 
Q 1563 422 1919 422 
Q 2459 422 2753 634 
Q 3047 847 3047 1241 
Q 3047 1584 2836 1778 
Q 2625 1972 2144 2069 
L 1759 2144 
Q 1053 2284 737 2584 
Q 422 2884 422 3419 
Q 422 4038 858 4394 
Q 1294 4750 2059 4750 
Q 2388 4750 2728 4690 
Q 3069 4631 3425 4513 
z
" transform="scale(0.015625)"/>
       <path id="DejaVuSans-70" d="M 1159 525 
L 1159 -1331 
L 581 -1331 
L 581 3500 
L 1159 3500 
L 1159 2969 
Q 1341 3281 1617 3432 
Q 1894 3584 2278 3584 
Q 2916 3584 3314 3078 
Q 3713 2572 3713 1747 
Q 3713 922 3314 415 
Q 2916 -91 2278 -91 
Q 1894 -91 1617 61 
Q 1341 213 1159 525 
z
M 3116 1747 
Q 3116 2381 2855 2742 
Q 2594 3103 2138 3103 
Q 1681 3103 1420 2742 
Q 1159 2381 1159 1747 
Q 1159 1113 1420 752 
Q 1681 391 2138 391 
Q 2594 391 2855 752 
Q 3116 1113 3116 1747 
z
" transform="scale(0.015625)"/>
       <path id="DejaVuSans-65" d="M 3597 1894 
L 3597 1613 
L 953 1613 
Q 991 1019 1311 708 
Q 1631 397 2203 397 
Q 2534 397 2845 478 
Q 3156 559 3463 722 
L 3463 178 
Q 3153 47 2828 -22 
Q 2503 -91 2169 -91 
Q 1331 -91 842 396 
Q 353 884 353 1716 
Q 353 2575 817 3079 
Q 1281 3584 2069 3584 
Q 2775 3584 3186 3129 
Q 3597 2675 3597 1894 
z
M 3022 2063 
Q 3016 2534 2758 2815 
Q 2500 3097 2075 3097 
Q 1594 3097 1305 2825 
Q 1016 2553 972 2059 
L 3022 2063 
z
" transform="scale(0.015625)"/>
       <path id="DejaVuSans-63" d="M 3122 3366 
L 3122 2828 
Q 2878 2963 2633 3030 
Q 2388 3097 2138 3097 
Q 1578 3097 1268 2742 
Q 959 2388 959 1747 
Q 959 1106 1268 751 
Q 1578 397 2138 397 
Q 2388 397 2633 464 
Q 2878 531 3122 666 
L 3122 134 
Q 2881 22 2623 -34 
Q 2366 -91 2075 -91 
Q 1284 -91 818 406 
Q 353 903 353 1747 
Q 353 2603 823 3093 
Q 1294 3584 2113 3584 
Q 2378 3584 2631 3529 
Q 2884 3475 3122 3366 
z
" transform="scale(0.015625)"/>
       <path id="DejaVuSans-69" d="M 603 3500 
L 1178 3500 
L 1178 0 
L 603 0 
L 603 3500 
z
M 603 4863 
L 1178 4863 
L 1178 4134 
L 603 4134 
L 603 4863 
z
" transform="scale(0.015625)"/>
       <path id="DejaVuSans-66" d="M 2375 4863 
L 2375 4384 
L 1825 4384 
Q 1516 4384 1395 4259 
Q 1275 4134 1275 3809 
L 1275 3500 
L 2222 3500 
L 2222 3053 
L 1275 3053 
L 1275 0 
L 697 0 
L 697 3053 
L 147 3053 
L 147 3500 
L 697 3500 
L 697 3744 
Q 697 4328 969 4595 
Q 1241 4863 1831 4863 
L 2375 4863 
z
" transform="scale(0.015625)"/>
       <path id="DejaVuSans-74" d="M 1172 4494 
L 1172 3500 
L 2356 3500 
L 2356 3053 
L 1172 3053 
L 1172 1153 
Q 1172 725 1289 603 
Q 1406 481 1766 481 
L 2356 481 
L 2356 0 
L 1766 0 
Q 1100 0 847 248 
Q 594 497 594 1153 
L 594 3053 
L 172 3053 
L 172 3500 
L 594 3500 
L 594 4494 
L 1172 4494 
z
" transform="scale(0.015625)"/>
       <path id="DejaVuSans-79" d="M 2059 -325 
Q 1816 -950 1584 -1140 
Q 1353 -1331 966 -1331 
L 506 -1331 
L 506 -850 
L 844 -850 
Q 1081 -850 1212 -737 
Q 1344 -625 1503 -206 
L 1606 56 
L 191 3500 
L 800 3500 
L 1894 763 
L 2988 3500 
L 3597 3500 
L 2059 -325 
z
" transform="scale(0.015625)"/>
      </defs>
      <use xlink:href="#DejaVuSans-31"/>
      <use xlink:href="#DejaVuSans-20" transform="translate(63.623047 0)"/>
      <use xlink:href="#DejaVuSans-2d" transform="translate(95.410156 0)"/>
      <use xlink:href="#DejaVuSans-20" transform="translate(131.494141 0)"/>
      <use xlink:href="#DejaVuSans-53" transform="translate(163.28125 0)"/>
      <use xlink:href="#DejaVuSans-70" transform="translate(226.757812 0)"/>
      <use xlink:href="#DejaVuSans-65" transform="translate(290.234375 0)"/>
      <use xlink:href="#DejaVuSans-63" transform="translate(351.757812 0)"/>
      <use xlink:href="#DejaVuSans-69" transform="translate(406.738281 0)"/>
      <use xlink:href="#DejaVuSans-66" transform="translate(434.521484 0)"/>
      <use xlink:href="#DejaVuSans-69" transform="translate(469.726562 0)"/>
      <use xlink:href="#DejaVuSans-63" transform="translate(497.509766 0)"/>
      <use xlink:href="#DejaVuSans-69" transform="translate(552.490234 0)"/>
      <use xlink:href="#DejaVuSans-74" transform="translate(580.273438 0)"/>
      <use xlink:href="#DejaVuSans-79" transform="translate(619.482422 0)"/>
     </g>
    </g>
   </g>
   <g id="matplotlib.axis_2">
    <g id="ytick_1">
     <g id="line2d_7">
      <defs>
       <path id="m8c7239dbec" d="M 0 0 
L -3.5 0 
" style="stroke: #000000; stroke-width: 0.8"/>
      </defs>
      <g>
       <use xlink:href="#m8c7239dbec" x="47.72" y="345.310909" style="stroke: #000000; stroke-width: 0.8"/>
      </g>
     </g>
     <g id="text_8">
      <!-- 0.0 -->
      <g transform="translate(24.816875 349.110128) scale(0.1 -0.1)">
       <use xlink:href="#DejaVuSans-30"/>
       <use xlink:href="#DejaVuSans-2e" transform="translate(63.623047 0)"/>
       <use xlink:href="#DejaVuSans-30" transform="translate(95.410156 0)"/>
      </g>
     </g>
    </g>
    <g id="ytick_2">
     <g id="line2d_8">
      <g>
       <use xlink:href="#m8c7239dbec" x="47.72" y="281.594545" style="stroke: #000000; stroke-width: 0.8"/>
      </g>
     </g>
     <g id="text_9">
      <!-- 0.2 -->
      <g transform="translate(24.816875 285.393764) scale(0.1 -0.1)">
       <use xlink:href="#DejaVuSans-30"/>
       <use xlink:href="#DejaVuSans-2e" transform="translate(63.623047 0)"/>
       <use xlink:href="#DejaVuSans-32" transform="translate(95.410156 0)"/>
      </g>
     </g>
    </g>
    <g id="ytick_3">
     <g id="line2d_9">
      <g>
       <use xlink:href="#m8c7239dbec" x="47.72" y="217.878182" style="stroke: #000000; stroke-width: 0.8"/>
      </g>
     </g>
     <g id="text_10">
      <!-- 0.4 -->
      <g transform="translate(24.816875 221.677401) scale(0.1 -0.1)">
       <use xlink:href="#DejaVuSans-30"/>
       <use xlink:href="#DejaVuSans-2e" transform="translate(63.623047 0)"/>
       <use xlink:href="#DejaVuSans-34" transform="translate(95.410156 0)"/>
      </g>
     </g>
    </g>
    <g id="ytick_4">
     <g id="line2d_10">
      <g>
       <use xlink:href="#m8c7239dbec" x="47.72" y="154.161818" style="stroke: #000000; stroke-width: 0.8"/>
      </g>
     </g>
     <g id="text_11">
      <!-- 0.6 -->
      <g transform="translate(24.816875 157.961037) scale(0.1 -0.1)">
       <use xlink:href="#DejaVuSans-30"/>
       <use xlink:href="#DejaVuSans-2e" transform="translate(63.623047 0)"/>
       <use xlink:href="#DejaVuSans-36" transform="translate(95.410156 0)"/>
      </g>
     </g>
    </g>
    <g id="ytick_5">
     <g id="line2d_11">
      <g>
       <use xlink:href="#m8c7239dbec" x="47.72" y="90.445455" style="stroke: #000000; stroke-width: 0.8"/>
      </g>
     </g>
     <g id="text_12">
      <!-- 0.8 -->
      <g transform="translate(24.816875 94.244673) scale(0.1 -0.1)">
       <use xlink:href="#DejaVuSans-30"/>
       <use xlink:href="#DejaVuSans-2e" transform="translate(63.623047 0)"/>
       <use xlink:href="#DejaVuSans-38" transform="translate(95.410156 0)"/>
      </g>
     </g>
    </g>
    <g id="ytick_6">
     <g id="line2d_12">
      <g>
       <use xlink:href="#m8c7239dbec" x="47.72" y="26.729091" style="stroke: #000000; stroke-width: 0.8"/>
      </g>
     </g>
     <g id="text_13">
      <!-- 1.0 -->
      <g transform="translate(24.816875 30.52831) scale(0.1 -0.1)">
       <use xlink:href="#DejaVuSans-31"/>
       <use xlink:href="#DejaVuSans-2e" transform="translate(63.623047 0)"/>
       <use xlink:href="#DejaVuSans-30" transform="translate(95.410156 0)"/>
      </g>
     </g>
    </g>
    <g id="text_14">
     <!-- Sensitivity -->
     <g transform="translate(18.737188 212.050469) rotate(-90) scale(0.1 -0.1)">
      <defs>
       <path id="DejaVuSans-6e" d="M 3513 2113 
L 3513 0 
L 2938 0 
L 2938 2094 
Q 2938 2591 2744 2837 
Q 2550 3084 2163 3084 
Q 1697 3084 1428 2787 
Q 1159 2491 1159 1978 
L 1159 0 
L 581 0 
L 581 3500 
L 1159 3500 
L 1159 2956 
Q 1366 3272 1645 3428 
Q 1925 3584 2291 3584 
Q 2894 3584 3203 3211 
Q 3513 2838 3513 2113 
z
" transform="scale(0.015625)"/>
       <path id="DejaVuSans-73" d="M 2834 3397 
L 2834 2853 
Q 2591 2978 2328 3040 
Q 2066 3103 1784 3103 
Q 1356 3103 1142 2972 
Q 928 2841 928 2578 
Q 928 2378 1081 2264 
Q 1234 2150 1697 2047 
L 1894 2003 
Q 2506 1872 2764 1633 
Q 3022 1394 3022 966 
Q 3022 478 2636 193 
Q 2250 -91 1575 -91 
Q 1294 -91 989 -36 
Q 684 19 347 128 
L 347 722 
Q 666 556 975 473 
Q 1284 391 1588 391 
Q 1994 391 2212 530 
Q 2431 669 2431 922 
Q 2431 1156 2273 1281 
Q 2116 1406 1581 1522 
L 1381 1569 
Q 847 1681 609 1914 
Q 372 2147 372 2553 
Q 372 3047 722 3315 
Q 1072 3584 1716 3584 
Q 2034 3584 2315 3537 
Q 2597 3491 2834 3397 
z
" transform="scale(0.015625)"/>
       <path id="DejaVuSans-76" d="M 191 3500 
L 800 3500 
L 1894 563 
L 2988 3500 
L 3597 3500 
L 2284 0 
L 1503 0 
L 191 3500 
z
" transform="scale(0.015625)"/>
      </defs>
      <use xlink:href="#DejaVuSans-53"/>
      <use xlink:href="#DejaVuSans-65" transform="translate(63.476562 0)"/>
      <use xlink:href="#DejaVuSans-6e" transform="translate(125 0)"/>
      <use xlink:href="#DejaVuSans-73" transform="translate(188.378906 0)"/>
      <use xlink:href="#DejaVuSans-69" transform="translate(240.478516 0)"/>
      <use xlink:href="#DejaVuSans-74" transform="translate(268.261719 0)"/>
      <use xlink:href="#DejaVuSans-69" transform="translate(307.470703 0)"/>
      <use xlink:href="#DejaVuSans-76" transform="translate(335.253906 0)"/>
      <use xlink:href="#DejaVuSans-69" transform="translate(394.433594 0)"/>
      <use xlink:href="#DejaVuSans-74" transform="translate(422.216797 0)"/>
      <use xlink:href="#DejaVuSans-79" transform="translate(461.425781 0)"/>
     </g>
    </g>
   </g>
   <g id="line2d_13">
    <path d="M 66.66 345.310909 
L 66.66 344.216285 
L 66.831869 343.861888 
L 67.003739 343.861888 
L 78.003376 312.383988 
L 78.347114 312.034261 
L 78.518984 311.217178 
L 78.862722 311.217178 
L 78.862722 310.862781 
L 79.722069 305.744262 
L 80.409546 304.580504 
L 82.12824 300.289748 
L 82.300109 300.289748 
L 82.987586 299.476659 
L 83.159456 297.417383 
L 84.190672 293.725147 
L 84.190672 293.268843 
L 90.206098 273.759349 
L 90.377967 273.759349 
L 90.377967 272.593845 
L 91.752922 269.970468 
L 92.26853 269.258307 
L 92.440399 269.258307 
L 94.674701 264.273755 
L 94.84657 264.273755 
L 95.190309 263.519967 
L 96.565263 257.421298 
L 96.737132 257.421298 
L 98.112087 252.53974 
L 98.455826 252.124043 
L 98.971434 251.061256 
L 100.346388 248.675001 
L 101.721343 243.473693 
L 102.236951 241.493127 
L 103.440036 237.266158 
L 104.643122 233.867873 
L 105.15873 233.867873 
L 105.502468 233.06806 
L 105.674338 233.06806 
L 105.846207 232.716678 
L 106.018076 232.716678 
L 130.939129 174.228905 
L 131.110998 174.228905 
L 131.282868 173.330545 
L 131.626606 172.987521 
L 132.314083 172.121592 
L 132.485953 172.121592 
L 132.485953 170.946688 
L 132.829691 170.585909 
L 133.517169 170.239406 
L 133.517169 169.888024 
L 134.032777 169.888024 
L 134.548385 168.752076 
L 134.720254 168.752076 
L 135.063993 168.391297 
L 135.579601 167.078435 
L 137.126425 167.078435 
L 137.985771 165.980761 
L 138.157641 165.980761 
L 138.157641 165.136353 
L 138.845118 164.781955 
L 140.563811 163.281173 
L 140.90755 163.281173 
L 144.688675 158.149433 
L 145.032414 156.296303 
L 147.266715 152.417228 
L 147.266715 152.028977 
L 147.438584 152.028977 
L 148.985408 150.477139 
L 151.735318 146.368693 
L 151.735318 145.227723 
L 152.250926 145.227723 
L 162.563085 131.19552 
L 163.250563 131.19552 
L 163.766171 130.013478 
L 164.281779 130.013478 
L 164.281779 129.614512 
L 165.484864 129.614512 
L 165.656733 128.886672 
L 166.344211 128.886672 
L 166.344211 128.470976 
L 166.51608 128.470976 
L 166.859819 128.047965 
L 166.859819 127.698237 
L 167.375426 127.698237 
L 167.375426 126.831463 
L 167.719165 125.974357 
L 167.719165 125.62463 
L 167.891034 125.62463 
L 168.234773 125.138741 
L 169.09412 125.138741 
L 169.09412 124.421968 
L 169.265989 124.421968 
L 169.437858 124.013266 
L 169.437858 123.6143 
L 170.812813 123.6143 
L 170.812813 123.205598 
L 171.156552 123.205598 
L 171.156552 122.452235 
L 172.187768 120.808503 
L 172.531506 120.808503 
L 173.906461 119.948866 
L 174.2502 119.948866 
L 174.2502 119.540164 
L 174.765808 119.540164 
L 175.281416 118.781735 
L 175.281416 118.427338 
L 175.625154 118.028371 
L 176.312632 117.619669 
L 176.484501 117.258891 
L 176.484501 116.907509 
L 177.687586 116.907509 
L 177.687586 116.553112 
L 177.859456 116.553112 
L 178.031325 116.14441 
L 178.031325 115.728713 
L 178.546933 115.728713 
L 178.546933 114.89787 
L 178.890672 114.89787 
L 182.156189 112.869479 
L 182.156189 112.435383 
L 183.359274 112.435383 
L 183.531143 112.047132 
L 185.765445 112.047132 
L 185.765445 111.673383 
L 185.937314 111.673383 
L 185.937314 111.21708 
L 186.109183 111.21708 
L 186.109183 110.427682 
L 186.96853 110.427682 
L 187.140399 110.084658 
L 187.140399 109.733276 
L 187.484138 109.733276 
L 187.484138 109.299181 
L 188.859093 109.299181 
L 188.859093 108.87617 
L 190.062178 108.87617 
L 190.062178 108.076357 
L 190.577786 108.076357 
L 191.265263 107.23802 
L 191.437132 106.767955 
L 192.468348 106.767955 
L 194.187042 105.86415 
L 194.358911 105.490401 
L 196.077604 105.490401 
L 196.593212 105.116653 
L 196.593212 104.688358 
L 196.936951 104.688358 
L 197.28069 104.006023 
L 197.452559 104.006023 
L 198.827514 103.662998 
L 208.280327 97.757015 
L 208.280327 97.354609 
L 208.452196 97.354609 
L 208.452196 97.000212 
L 208.624065 97.000212 
L 208.624065 96.210624 
L 210.342759 96.210624 
L 210.342759 95.35885 
L 210.858367 95.35885 
L 210.858367 94.918567 
L 211.373975 93.764351 
L 211.373975 93.314266 
L 211.545844 93.314266 
L 212.061452 92.850743 
L 212.233321 92.850743 
L 212.233321 91.96421 
L 213.952015 91.96421 
L 214.811361 91.561804 
L 216.530054 91.561804 
L 216.701924 90.754136 
L 217.045662 90.754136 
L 217.045662 90.320041 
L 217.389401 90.320041 
L 217.73314 89.904344 
L 217.905009 89.904344 
L 217.905009 89.476049 
L 218.420617 89.476049 
L 218.420617 89.060353 
L 218.764356 89.060353 
L 218.764356 88.574464 
L 219.279964 88.574464 
L 219.623702 88.200716 
L 219.795572 88.200716 
L 219.795572 87.850988 
L 221.342396 87.850988 
L 221.342396 87.048154 
L 222.201742 87.048154 
L 222.201742 86.614059 
L 222.71735 86.614059 
L 223.061089 86.143994 
L 223.576697 86.143994 
L 223.920436 85.741588 
L 224.264174 85.741588 
L 224.264174 85.313294 
L 224.607913 84.946233 
L 224.779782 84.594851 
L 225.123521 84.594851 
L 225.123521 84.144765 
L 227.014083 84.144765 
L 227.014083 83.281472 
L 227.87343 83.281472 
L 227.87343 82.847377 
L 228.045299 82.847377 
L 228.045299 82.419083 
L 234.404465 80.790833 
L 234.748203 80.391867 
L 235.091942 80.391867 
L 235.779419 80.040485 
L 240.419891 80.040485 
L 240.419891 79.243532 
L 240.76363 79.243532 
L 241.107368 78.803249 
L 243.513539 77.600767 
L 244.888494 77.600767 
L 244.888494 77.201801 
L 245.232232 76.841022 
L 245.575971 76.841022 
L 246.779056 76.030996 
L 247.122795 76.030996 
L 247.294664 75.676599 
L 249.700835 75.676599 
L 249.700835 75.325217 
L 253.48196 75.325217 
L 253.48196 74.50324 
L 255.888131 73.594341 
L 255.888131 73.130818 
L 256.403739 73.130818 
L 256.747477 72.707807 
L 257.091216 72.707807 
L 261.21608 71.059098 
L 261.903557 71.059098 
L 264.653466 70.180331 
L 266.028421 68.544888 
L 266.37216 68.116594 
L 273.418802 64.588296 
L 273.418802 63.733026 
L 363.306461 39.842184 
L 365.025154 39.842184 
L 365.025154 39.475123 
L 365.197024 39.475123 
L 365.197024 39.046829 
L 366.915717 39.046829 
L 368.63441 38.583306 
L 370.868711 38.583306 
L 373.274882 38.097417 
L 373.962359 38.097417 
L 375.165445 37.295374 
L 375.852922 37.295374 
L 377.399746 36.861279 
L 378.602831 36.861279 
L 378.602831 36.487531 
L 380.149655 36.487531 
L 382.899564 36.017466 
L 383.071434 35.643717 
L 384.10265 35.643717 
L 384.790127 35.28932 
L 384.961996 35.28932 
L 384.961996 34.855225 
L 385.649474 34.855225 
L 386.852559 33.657793 
L 387.883775 33.217511 
L 387.883775 32.7945 
L 388.055644 32.7945 
L 388.227514 32.443118 
L 390.977423 32.443118 
L 392.008639 32.020108 
L 392.008639 31.653047 
L 394.24294 31.653047 
L 397.164719 31.189524 
L 400.258367 31.189524 
L 400.258367 30.719459 
L 404.039492 30.719459 
L 404.38323 30.358681 
L 404.5551 30.358681 
L 404.5551 29.908595 
L 404.898838 29.908595 
L 404.898838 29.547817 
L 408.336225 29.547817 
L 408.336225 29.061928 
L 408.508094 29.061928 
L 409.367441 28.653226 
L 410.054918 28.653226 
L 413.492305 28.286165 
L 414.523521 28.286165 
L 414.523521 27.800276 
L 415.039129 27.800276 
L 415.039129 27.450549 
L 421.742033 27.450549 
L 421.913902 27.096152 
L 428.101198 27.096152 
L 428.101198 26.729091 
L 445.46 26.729091 
L 445.46 26.729091 
" clip-path="url(#p59f7486c74)" style="fill: none; stroke: #4b3f72; stroke-opacity: 0.95; stroke-width: 2.2; stroke-linecap: square"/>
   </g>
   <g id="line2d_14">
    <path d="M 66.66 345.310909 
L 66.66 345.310909 
L 101.377604 280.540915 
L 101.377604 280.138509 
L 130.76726 182.843808 
L 157.407005 149.509226 
L 205.530417 124.716045 
L 445.46 26.729091 
" clip-path="url(#p59f7486c74)" style="fill: none; stroke: #ffd373; stroke-opacity: 0.95; stroke-width: 2.2; stroke-linecap: square"/>
   </g>
   <g id="line2d_15">
    <path d="M 66.66 345.310909 
L 66.66 345.310909 
L 67.347477 344.922657 
L 132.142214 180.099432 
L 183.531143 133.662428 
L 387.711906 38.680793 
L 445.46 26.729091 
" clip-path="url(#p59f7486c74)" style="fill: none; stroke: #80c5a2; stroke-opacity: 0.95; stroke-width: 2.2; stroke-linecap: square"/>
   </g>
   <g id="line2d_16">
    <path d="M 66.66 345.310909 
L 66.66 345.310909 
L 67.347477 345.310909 
L 102.065082 279.608984 
L 132.142214 181.950993 
L 151.907187 157.532685 
L 182.843666 134.358659 
L 266.028421 76.85923 
L 445.46 26.729091 
" clip-path="url(#p59f7486c74)" style="fill: none; stroke: #c0392b; stroke-opacity: 0.95; stroke-width: 2.2; stroke-linecap: square"/>
   </g>
   <g id="line2d_17">
    <path d="M 66.66 345.310909 
L 445.46 26.729091 
" clip-path="url(#p59f7486c74)" style="fill: none; stroke-dasharray: 4.44,1.92; stroke-dashoffset: 0; stroke: #9ca3af; stroke-opacity: 0.8; stroke-width: 1.2"/>
   </g>
   <g id="patch_3">
    <path d="M 47.72 361.24 
L 47.72 10.8 
" style="fill: none; stroke: #000000; stroke-width: 0.8; stroke-linejoin: miter; stroke-linecap: square"/>
   </g>
   <g id="patch_4">
    <path d="M 464.4 361.24 
L 464.4 10.8 
" style="fill: none; stroke: #000000; stroke-width: 0.8; stroke-linejoin: miter; stroke-linecap: square"/>
   </g>
   <g id="patch_5">
    <path d="M 47.72 361.24 
L 464.4 361.24 
" style="fill: none; stroke: #000000; stroke-width: 0.8; stroke-linejoin: miter; stroke-linecap: square"/>
   </g>
   <g id="patch_6">
    <path d="M 47.72 10.8 
L 464.4 10.8 
" style="fill: none; stroke: #000000; stroke-width: 0.8; stroke-linejoin: miter; stroke-linecap: square"/>
   </g>
   <g id="legend_1">
    <g id="line2d_18">
     <path d="M 305.63125 302.625937 
L 315.63125 302.625937 
L 325.63125 302.625937 
" style="fill: none; stroke: #4b3f72; stroke-opacity: 0.95; stroke-width: 2.2; stroke-linecap: square"/>
    </g>
    <g id="text_15">
     <!-- Our model (AUC=0.763) -->
     <g transform="translate(333.63125 306.125937) scale(0.1 -0.1)">
      <defs>
       <path id="DejaVuSans-4f" d="M 2522 4238 
Q 1834 4238 1429 3725 
Q 1025 3213 1025 2328 
Q 1025 1447 1429 934 
Q 1834 422 2522 422 
Q 3209 422 3611 934 
Q 4013 1447 4013 2328 
Q 4013 3213 3611 3725 
Q 3209 4238 2522 4238 
z
M 2522 4750 
Q 3503 4750 4090 4092 
Q 4678 3434 4678 2328 
Q 4678 1225 4090 567 
Q 3503 -91 2522 -91 
Q 1538 -91 948 565 
Q 359 1222 359 2328 
Q 359 3434 948 4092 
Q 1538 4750 2522 4750 
z
" transform="scale(0.015625)"/>
       <path id="DejaVuSans-75" d="M 544 1381 
L 544 3500 
L 1119 3500 
L 1119 1403 
Q 1119 906 1312 657 
Q 1506 409 1894 409 
Q 2359 409 2629 706 
Q 2900 1003 2900 1516 
L 2900 3500 
L 3475 3500 
L 3475 0 
L 2900 0 
L 2900 538 
Q 2691 219 2414 64 
Q 2138 -91 1772 -91 
Q 1169 -91 856 284 
Q 544 659 544 1381 
z
M 1991 3584 
L 1991 3584 
z
" transform="scale(0.015625)"/>
       <path id="DejaVuSans-72" d="M 2631 2963 
Q 2534 3019 2420 3045 
Q 2306 3072 2169 3072 
Q 1681 3072 1420 2755 
Q 1159 2438 1159 1844 
L 1159 0 
L 581 0 
L 581 3500 
L 1159 3500 
L 1159 2956 
Q 1341 3275 1631 3429 
Q 1922 3584 2338 3584 
Q 2397 3584 2469 3576 
Q 2541 3569 2628 3553 
L 2631 2963 
z
" transform="scale(0.015625)"/>
       <path id="DejaVuSans-6d" d="M 3328 2828 
Q 3544 3216 3844 3400 
Q 4144 3584 4550 3584 
Q 5097 3584 5394 3201 
Q 5691 2819 5691 2113 
L 5691 0 
L 5113 0 
L 5113 2094 
Q 5113 2597 4934 2840 
Q 4756 3084 4391 3084 
Q 3944 3084 3684 2787 
Q 3425 2491 3425 1978 
L 3425 0 
L 2847 0 
L 2847 2094 
Q 2847 2600 2669 2842 
Q 2491 3084 2119 3084 
Q 1678 3084 1418 2786 
Q 1159 2488 1159 1978 
L 1159 0 
L 581 0 
L 581 3500 
L 1159 3500 
L 1159 2956 
Q 1356 3278 1631 3431 
Q 1906 3584 2284 3584 
Q 2666 3584 2933 3390 
Q 3200 3197 3328 2828 
z
" transform="scale(0.015625)"/>
       <path id="DejaVuSans-6f" d="M 1959 3097 
Q 1497 3097 1228 2736 
Q 959 2375 959 1747 
Q 959 1119 1226 758 
Q 1494 397 1959 397 
Q 2419 397 2687 759 
Q 2956 1122 2956 1747 
Q 2956 2369 2687 2733 
Q 2419 3097 1959 3097 
z
M 1959 3584 
Q 2709 3584 3137 3096 
Q 3566 2609 3566 1747 
Q 3566 888 3137 398 
Q 2709 -91 1959 -91 
Q 1206 -91 779 398 
Q 353 888 353 1747 
Q 353 2609 779 3096 
Q 1206 3584 1959 3584 
z
" transform="scale(0.015625)"/>
       <path id="DejaVuSans-64" d="M 2906 2969 
L 2906 4863 
L 3481 4863 
L 3481 0 
L 2906 0 
L 2906 525 
Q 2725 213 2448 61 
Q 2172 -91 1784 -91 
Q 1150 -91 751 415 
Q 353 922 353 1747 
Q 353 2572 751 3078 
Q 1150 3584 1784 3584 
Q 2172 3584 2448 3432 
Q 2725 3281 2906 2969 
z
M 947 1747 
Q 947 1113 1208 752 
Q 1469 391 1925 391 
Q 2381 391 2643 752 
Q 2906 1113 2906 1747 
Q 2906 2381 2643 2742 
Q 2381 3103 1925 3103 
Q 1469 3103 1208 2742 
Q 947 2381 947 1747 
z
" transform="scale(0.015625)"/>
       <path id="DejaVuSans-6c" d="M 603 4863 
L 1178 4863 
L 1178 0 
L 603 0 
L 603 4863 
z
" transform="scale(0.015625)"/>
       <path id="DejaVuSans-28" d="M 1984 4856 
Q 1566 4138 1362 3434 
Q 1159 2731 1159 2009 
Q 1159 1288 1364 580 
Q 1569 -128 1984 -844 
L 1484 -844 
Q 1016 -109 783 600 
Q 550 1309 550 2009 
Q 550 2706 781 3412 
Q 1013 4119 1484 4856 
L 1984 4856 
z
" transform="scale(0.015625)"/>
       <path id="DejaVuSans-41" d="M 2188 4044 
L 1331 1722 
L 3047 1722 
L 2188 4044 
z
M 1831 4666 
L 2547 4666 
L 4325 0 
L 3669 0 
L 3244 1197 
L 1141 1197 
L 716 0 
L 50 0 
L 1831 4666 
z
" transform="scale(0.015625)"/>
       <path id="DejaVuSans-55" d="M 556 4666 
L 1191 4666 
L 1191 1831 
Q 1191 1081 1462 751 
Q 1734 422 2344 422 
Q 2950 422 3222 751 
Q 3494 1081 3494 1831 
L 3494 4666 
L 4128 4666 
L 4128 1753 
Q 4128 841 3676 375 
Q 3225 -91 2344 -91 
Q 1459 -91 1007 375 
Q 556 841 556 1753 
L 556 4666 
z
" transform="scale(0.015625)"/>
       <path id="DejaVuSans-43" d="M 4122 4306 
L 4122 3641 
Q 3803 3938 3442 4084 
Q 3081 4231 2675 4231 
Q 1875 4231 1450 3742 
Q 1025 3253 1025 2328 
Q 1025 1406 1450 917 
Q 1875 428 2675 428 
Q 3081 428 3442 575 
Q 3803 722 4122 1019 
L 4122 359 
Q 3791 134 3420 21 
Q 3050 -91 2638 -91 
Q 1578 -91 968 557 
Q 359 1206 359 2328 
Q 359 3453 968 4101 
Q 1578 4750 2638 4750 
Q 3056 4750 3426 4639 
Q 3797 4528 4122 4306 
z
" transform="scale(0.015625)"/>
       <path id="DejaVuSans-3d" d="M 678 2906 
L 4684 2906 
L 4684 2381 
L 678 2381 
L 678 2906 
z
M 678 1631 
L 4684 1631 
L 4684 1100 
L 678 1100 
L 678 1631 
z
" transform="scale(0.015625)"/>
       <path id="DejaVuSans-37" d="M 525 4666 
L 3525 4666 
L 3525 4397 
L 1831 0 
L 1172 0 
L 2766 4134 
L 525 4134 
L 525 4666 
z
" transform="scale(0.015625)"/>
       <path id="DejaVuSans-33" d="M 2597 2516 
Q 3050 2419 3304 2112 
Q 3559 1806 3559 1356 
Q 3559 666 3084 287 
Q 2609 -91 1734 -91 
Q 1441 -91 1130 -33 
Q 819 25 488 141 
L 488 750 
Q 750 597 1062 519 
Q 1375 441 1716 441 
Q 2309 441 2620 675 
Q 2931 909 2931 1356 
Q 2931 1769 2642 2001 
Q 2353 2234 1838 2234 
L 1294 2234 
L 1294 2753 
L 1863 2753 
Q 2328 2753 2575 2939 
Q 2822 3125 2822 3475 
Q 2822 3834 2567 4026 
Q 2313 4219 1838 4219 
Q 1578 4219 1281 4162 
Q 984 4106 628 3988 
L 628 4550 
Q 988 4650 1302 4700 
Q 1616 4750 1894 4750 
Q 2613 4750 3031 4423 
Q 3450 4097 3450 3541 
Q 3450 3153 3228 2886 
Q 3006 2619 2597 2516 
z
" transform="scale(0.015625)"/>
       <path id="DejaVuSans-29" d="M 513 4856 
L 1013 4856 
Q 1481 4119 1714 3412 
Q 1947 2706 1947 2009 
Q 1947 1309 1714 600 
Q 1481 -109 1013 -844 
L 513 -844 
Q 928 -128 1133 580 
Q 1338 1288 1338 2009 
Q 1338 2731 1133 3434 
Q 928 4138 513 4856 
z
" transform="scale(0.015625)"/>
      </defs>
      <use xlink:href="#DejaVuSans-4f"/>
      <use xlink:href="#DejaVuSans-75" transform="translate(78.710938 0)"/>
      <use xlink:href="#DejaVuSans-72" transform="translate(142.089844 0)"/>
      <use xlink:href="#DejaVuSans-20" transform="translate(183.203125 0)"/>
      <use xlink:href="#DejaVuSans-6d" transform="translate(214.990234 0)"/>
      <use xlink:href="#DejaVuSans-6f" transform="translate(312.402344 0)"/>
      <use xlink:href="#DejaVuSans-64" transform="translate(373.583984 0)"/>
      <use xlink:href="#DejaVuSans-65" transform="translate(437.060547 0)"/>
      <use xlink:href="#DejaVuSans-6c" transform="translate(498.583984 0)"/>
      <use xlink:href="#DejaVuSans-20" transform="translate(526.367188 0)"/>
      <use xlink:href="#DejaVuSans-28" transform="translate(558.154297 0)"/>
      <use xlink:href="#DejaVuSans-41" transform="translate(597.167969 0)"/>
      <use xlink:href="#DejaVuSans-55" transform="translate(665.576172 0)"/>
      <use xlink:href="#DejaVuSans-43" transform="translate(738.769531 0)"/>
      <use xlink:href="#DejaVuSans-3d" transform="translate(808.59375 0)"/>
      <use xlink:href="#DejaVuSans-30" transform="translate(892.382812 0)"/>
      <use xlink:href="#DejaVuSans-2e" transform="translate(956.005859 0)"/>
      <use xlink:href="#DejaVuSans-37" transform="translate(987.792969 0)"/>
      <use xlink:href="#DejaVuSans-36" transform="translate(1051.416016 0)"/>
      <use xlink:href="#DejaVuSans-33" transform="translate(1115.039062 0)"/>
      <use xlink:href="#DejaVuSans-29" transform="translate(1178.662109 0)"/>
     </g>
    </g>
    <g id="line2d_19">
     <path d="M 305.63125 317.304062 
L 315.63125 317.304062 
L 325.63125 317.304062 
" style="fill: none; stroke: #ffd373; stroke-opacity: 0.95; stroke-width: 2.2; stroke-linecap: square"/>
    </g>
    <g id="text_16">
     <!-- TNM (AUC=0.696) -->
     <g transform="translate(333.63125 320.804062) scale(0.1 -0.1)">
      <defs>
       <path id="DejaVuSans-54" d="M -19 4666 
L 3928 4666 
L 3928 4134 
L 2272 4134 
L 2272 0 
L 1638 0 
L 1638 4134 
L -19 4134 
L -19 4666 
z
" transform="scale(0.015625)"/>
       <path id="DejaVuSans-4e" d="M 628 4666 
L 1478 4666 
L 3547 763 
L 3547 4666 
L 4159 4666 
L 4159 0 
L 3309 0 
L 1241 3903 
L 1241 0 
L 628 0 
L 628 4666 
z
" transform="scale(0.015625)"/>
       <path id="DejaVuSans-4d" d="M 628 4666 
L 1569 4666 
L 2759 1491 
L 3956 4666 
L 4897 4666 
L 4897 0 
L 4281 0 
L 4281 4097 
L 3078 897 
L 2444 897 
L 1241 4097 
L 1241 0 
L 628 0 
L 628 4666 
z
" transform="scale(0.015625)"/>
       <path id="DejaVuSans-39" d="M 703 97 
L 703 672 
Q 941 559 1184 500 
Q 1428 441 1663 441 
Q 2288 441 2617 861 
Q 2947 1281 2994 2138 
Q 2813 1869 2534 1725 
Q 2256 1581 1919 1581 
Q 1219 1581 811 2004 
Q 403 2428 403 3163 
Q 403 3881 828 4315 
Q 1253 4750 1959 4750 
Q 2769 4750 3195 4129 
Q 3622 3509 3622 2328 
Q 3622 1225 3098 567 
Q 2575 -91 1691 -91 
Q 1453 -91 1209 -44 
Q 966 3 703 97 
z
M 1959 2075 
Q 2384 2075 2632 2365 
Q 2881 2656 2881 3163 
Q 2881 3666 2632 3958 
Q 2384 4250 1959 4250 
Q 1534 4250 1286 3958 
Q 1038 3666 1038 3163 
Q 1038 2656 1286 2365 
Q 1534 2075 1959 2075 
z
" transform="scale(0.015625)"/>
      </defs>
      <use xlink:href="#DejaVuSans-54"/>
      <use xlink:href="#DejaVuSans-4e" transform="translate(61.083984 0)"/>
      <use xlink:href="#DejaVuSans-4d" transform="translate(135.888672 0)"/>
      <use xlink:href="#DejaVuSans-20" transform="translate(222.167969 0)"/>
      <use xlink:href="#DejaVuSans-28" transform="translate(253.955078 0)"/>
      <use xlink:href="#DejaVuSans-41" transform="translate(292.96875 0)"/>
      <use xlink:href="#DejaVuSans-55" transform="translate(361.376953 0)"/>
      <use xlink:href="#DejaVuSans-43" transform="translate(434.570312 0)"/>
      <use xlink:href="#DejaVuSans-3d" transform="translate(504.394531 0)"/>
      <use xlink:href="#DejaVuSans-30" transform="translate(588.183594 0)"/>
      <use xlink:href="#DejaVuSans-2e" transform="translate(651.806641 0)"/>
      <use xlink:href="#DejaVuSans-36" transform="translate(683.59375 0)"/>
      <use xlink:href="#DejaVuSans-39" transform="translate(747.216797 0)"/>
      <use xlink:href="#DejaVuSans-36" transform="translate(810.839844 0)"/>
      <use xlink:href="#DejaVuSans-29" transform="translate(874.462891 0)"/>
     </g>
    </g>
    <g id="line2d_20">
     <path d="M 305.63125 331.982188 
L 315.63125 331.982188 
L 325.63125 331.982188 
" style="fill: none; stroke: #80c5a2; stroke-opacity: 0.95; stroke-width: 2.2; stroke-linecap: square"/>
    </g>
    <g id="text_17">
     <!-- BCLC (AUC=0.713) -->
     <g transform="translate(333.63125 335.482188) scale(0.1 -0.1)">
      <defs>
       <path id="DejaVuSans-42" d="M 1259 2228 
L 1259 519 
L 2272 519 
Q 2781 519 3026 730 
Q 3272 941 3272 1375 
Q 3272 1813 3026 2020 
Q 2781 2228 2272 2228 
L 1259 2228 
z
M 1259 4147 
L 1259 2741 
L 2194 2741 
Q 2656 2741 2882 2914 
Q 3109 3088 3109 3444 
Q 3109 3797 2882 3972 
Q 2656 4147 2194 4147 
L 1259 4147 
z
M 628 4666 
L 2241 4666 
Q 2963 4666 3353 4366 
Q 3744 4066 3744 3513 
Q 3744 3084 3544 2831 
Q 3344 2578 2956 2516 
Q 3422 2416 3680 2098 
Q 3938 1781 3938 1306 
Q 3938 681 3513 340 
Q 3088 0 2303 0 
L 628 0 
L 628 4666 
z
" transform="scale(0.015625)"/>
       <path id="DejaVuSans-4c" d="M 628 4666 
L 1259 4666 
L 1259 531 
L 3531 531 
L 3531 0 
L 628 0 
L 628 4666 
z
" transform="scale(0.015625)"/>
      </defs>
      <use xlink:href="#DejaVuSans-42"/>
      <use xlink:href="#DejaVuSans-43" transform="translate(66.853516 0)"/>
      <use xlink:href="#DejaVuSans-4c" transform="translate(136.677734 0)"/>
      <use xlink:href="#DejaVuSans-43" transform="translate(192.390625 0)"/>
      <use xlink:href="#DejaVuSans-20" transform="translate(262.214844 0)"/>
      <use xlink:href="#DejaVuSans-28" transform="translate(294.001953 0)"/>
      <use xlink:href="#DejaVuSans-41" transform="translate(333.015625 0)"/>
      <use xlink:href="#DejaVuSans-55" transform="translate(401.423828 0)"/>
      <use xlink:href="#DejaVuSans-43" transform="translate(474.617188 0)"/>
      <use xlink:href="#DejaVuSans-3d" transform="translate(544.441406 0)"/>
      <use xlink:href="#DejaVuSans-30" transform="translate(628.230469 0)"/>
      <use xlink:href="#DejaVuSans-2e" transform="translate(691.853516 0)"/>
      <use xlink:href="#DejaVuSans-37" transform="translate(723.640625 0)"/>
      <use xlink:href="#DejaVuSans-31" transform="translate(787.263672 0)"/>
      <use xlink:href="#DejaVuSans-33" transform="translate(850.886719 0)"/>
      <use xlink:href="#DejaVuSans-29" transform="translate(914.509766 0)"/>
     </g>
    </g>
    <g id="line2d_21">
     <path d="M 305.63125 346.660312 
L 315.63125 346.660312 
L 325.63125 346.660312 
" style="fill: none; stroke: #c0392b; stroke-opacity: 0.95; stroke-width: 2.2; stroke-linecap: square"/>
    </g>
    <g id="text_18">
     <!-- CNLC (AUC=0.720) -->
     <g transform="translate(333.63125 350.160312) scale(0.1 -0.1)">
      <use xlink:href="#DejaVuSans-43"/>
      <use xlink:href="#DejaVuSans-4e" transform="translate(69.824219 0)"/>
      <use xlink:href="#DejaVuSans-4c" transform="translate(144.628906 0)"/>
      <use xlink:href="#DejaVuSans-43" transform="translate(200.341797 0)"/>
      <use xlink:href="#DejaVuSans-20" transform="translate(270.166016 0)"/>
      <use xlink:href="#DejaVuSans-28" transform="translate(301.953125 0)"/>
      <use xlink:href="#DejaVuSans-41" transform="translate(340.966797 0)"/>
      <use xlink:href="#DejaVuSans-55" transform="translate(409.375 0)"/>
      <use xlink:href="#DejaVuSans-43" transform="translate(482.568359 0)"/>
      <use xlink:href="#DejaVuSans-3d" transform="translate(552.392578 0)"/>
      <use xlink:href="#DejaVuSans-30" transform="translate(636.181641 0)"/>
      <use xlink:href="#DejaVuSans-2e" transform="translate(699.804688 0)"/>
      <use xlink:href="#DejaVuSans-37" transform="translate(731.591797 0)"/>
      <use xlink:href="#DejaVuSans-32" transform="translate(795.214844 0)"/>
      <use xlink:href="#DejaVuSans-30" transform="translate(858.837891 0)"/>
      <use xlink:href="#DejaVuSans-29" transform="translate(922.460938 0)"/>
     </g>
    </g>
   </g>
  </g>
 </g>
 <defs>
  <clipPath id="p59f7486c74">
   <rect x="47.72" y="10.8" width="416.68" height="350.44"/>
  </clipPath>
 </defs>
</svg>
